o Capsule1
v -0.051777 0.300000 0.500000
v -0.500000 0.300000 0.051777
v -0.500000 -0.300000 0.051777
v -0.051777 -0.300000 0.500000
v 0.375000 0.500000 -0.038833
v 0.375000 0.500000 0.038832
v 0.500000 0.300000 0.051777
v 0.500000 0.300000 -0.051777
v -0.051777 -0.300000 -0.500000
v 0.051777 -0.300000 -0.500000
v 0.038833 -0.500000 -0.375000
v -0.038833 -0.500000 -0.375000
v 0.051777 -0.300000 0.500000
v -0.038833 -0.500000 0.375000
v 0.038833 -0.500000 0.375000
v 0.051777 0.300000 -0.500000
v 0.038833 0.500000 -0.375000
v -0.038833 0.500000 -0.375000
v -0.375000 0.500000 -0.038833
v -0.375000 0.500000 0.038832
v -0.038833 0.500000 0.375000
v 0.038833 0.500000 0.375000
v -0.051777 0.300000 -0.500000
v 0.051777 0.300000 0.500000
v -0.500000 -0.300000 -0.051777
v -0.375000 -0.500000 -0.038832
v -0.375000 -0.500000 0.038833
v 0.500000 -0.300000 0.051777
v 0.375000 -0.500000 0.038833
v -0.500000 0.300000 -0.051777
v 0.500000 -0.300000 -0.051777
v 0.375000 -0.500000 -0.038832
vn -0.7071 0.0000 0.7071
vn 0.8480 0.5300 -0.0000
vn 0.0000 -0.5300 -0.8480
vn 0.0000 -0.5300 0.8480
vn 0.6355 0.4384 -0.6355
vn 0.0000 1.0000 -0.0000
vn -0.6355 0.4384 0.6355
vn 0.0000 -0.0000 -1.0000
vn 0.6355 0.4384 0.6355
vn -0.8480 -0.5300 0.0000
vn 0.0000 0.0000 1.0000
vn 0.6355 -0.4384 0.6355
vn -0.6355 0.4384 -0.6355
vn 0.6355 -0.4384 -0.6355
vn -0.6355 -0.4384 -0.6355
vn 0.7071 0.0000 -0.7071
vn -0.6355 -0.4384 0.6355
vn -0.7071 0.0000 -0.7071
vn -0.8480 0.5300 -0.0000
vn 0.7071 0.0000 0.7071
vn 1.0000 0.0000 0.0000
vn -1.0000 0.0000 0.0000
vn 0.0000 0.5300 0.8480
vn 0.0000 -1.0000 0.0000
vn 0.8480 -0.5300 0.0000
vn 0.0000 0.5300 -0.8480
s 1
f 1//1 2//1 3//1 4//1
f 5//2 6//2 7//2 8//2
f 9//3 10//3 11//3 12//3
f 13//4 4//4 14//4 15//4
f 16//5 17//5 5//5 8//5
f 17//6 18//6 19//6 20//6 21//6 22//6 6//6 5//6
f 1//7 21//7 20//7 2//7
f 23//8 16//8 10//8 9//8
f 6//9 22//9 24//9 7//9
f 3//10 25//10 26//10 27//10
f 24//11 1//11 4//11 13//11
f 28//12 13//12 15//12 29//12
f 19//13 18//13 23//13 30//13
f 10//14 31//14 32//14 11//14
f 25//15 9//15 12//15 26//15
f 16//16 8//16 31//16 10//16
f 4//17 3//17 27//17 14//17
f 30//18 23//18 9//18 25//18
f 20//19 19//19 30//19 2//19
f 7//20 24//20 13//20 28//20
f 8//21 7//21 28//21 31//21
f 2//22 30//22 25//22 3//22
f 22//23 21//23 1//23 24//23
f 27//24 26//24 12//24 11//24 32//24 29//24 15//24 14//24
f 31//25 28//25 29//25 32//25
f 18//26 17//26 16//26 23//26
