o Capsule2
v -0.060870 -0.250000 0.445313
v -0.445312 -0.250000 0.060870
v -0.093750 -0.500000 0.038833
v -0.038832 -0.500000 0.093750
v 0.445312 -0.250000 0.060870
v 0.060870 -0.250000 0.445313
v 0.038833 -0.500000 0.093750
v 0.093750 -0.500000 0.038833
v -0.060870 -0.250000 -0.445312
v 0.060870 -0.250000 -0.445312
v 0.038833 -0.500000 -0.093750
v -0.038832 -0.500000 -0.093750
v 0.500000 0.400000 -0.068345
v 0.500000 0.400000 0.068345
v 0.500000 0.000000 0.068345
v 0.500000 -0.000000 -0.068345
v -0.445312 -0.250000 -0.060870
v -0.093750 -0.500000 -0.038832
v 0.093750 0.500000 0.038832
v 0.038833 0.500000 0.093750
v 0.068345 0.400000 0.500000
v -0.068345 0.400000 0.500000
v -0.038832 0.500000 0.093750
v -0.093750 0.500000 0.038832
v -0.500000 0.400000 0.068345
v 0.093750 0.500000 -0.038833
v 0.068345 0.400000 -0.500000
v 0.038833 0.500000 -0.093750
v -0.068345 0.000000 0.500000
v 0.068345 0.000000 0.500000
v -0.500000 0.400000 -0.068345
v -0.500000 -0.000000 -0.068345
v -0.500000 0.000000 0.068345
v 0.445312 -0.250000 -0.060870
v 0.093750 -0.500000 -0.038832
v -0.093750 0.500000 -0.038833
v -0.038832 0.500000 -0.093750
v -0.068345 0.400000 -0.500000
v 0.068345 -0.000000 -0.500000
v -0.068345 -0.000000 -0.500000
vn -0.4860 -0.7263 0.4860
vn 0.4860 -0.7263 0.4860
vn 0.0000 -0.8150 -0.5795
vn 1.0000 0.0000 0.0000
vn -0.4860 -0.7263 -0.4860
vn 0.2183 0.9512 0.2183
vn -0.5795 -0.8150 0.0000
vn -0.2183 0.9512 0.2183
vn 0.2390 0.9710 -0.0000
vn 0.0000 -0.8150 0.5795
vn 0.2183 0.9512 -0.2183
vn 0.0000 0.0000 1.0000
vn -1.0000 0.0000 0.0000
vn 0.0000 0.9710 0.2390
vn 0.4860 -0.7263 -0.4860
vn -0.2390 0.9710 -0.0000
vn 0.5795 -0.8150 0.0000
vn -0.2183 0.9512 -0.2183
vn 0.7071 -0.0000 -0.7071
vn 0.0000 -0.0000 -1.0000
vn -0.7071 0.0000 0.7071
vn 0.7071 0.0000 0.7071
vn -0.7071 -0.0000 -0.7071
vn 0.0000 0.9710 -0.2390
vn 0.0000 -1.0000 -0.0000
vn 0.0000 1.0000 0.0000
vn 0.9769 -0.2137 0.0000
vn 0.6964 -0.1732 -0.6964
vn 0.0000 -0.2137 0.9769
vn -0.9769 -0.2137 0.0000
vn -0.6964 -0.1732 -0.6964
vn 0.0000 -0.2137 -0.9769
vn 0.6964 -0.1732 0.6964
vn -0.6964 -0.1732 0.6964
s 1
f 1//1 2//1 3//1 4//1
f 5//2 6//2 7//2 8//2
f 9//3 10//3 11//3 12//3
f 13//4 14//4 15//4 16//4
f 17//5 9//5 12//5 18//5
f 19//6 20//6 21//6 14//6
f 2//7 17//7 18//7 3//7
f 22//8 23//8 24//8 25//8
f 26//9 19//9 14//9 13//9
f 6//10 1//10 4//10 7//10
f 27//11 28//11 26//11 13//11
f 21//12 22//12 29//12 30//12
f 25//13 31//13 32//13 33//13
f 20//14 23//14 22//14 21//14
f 10//15 34//15 35//15 11//15
f 24//16 36//16 31//16 25//16
f 34//17 5//17 8//17 35//17
f 36//18 37//18 38//18 31//18
f 27//19 13//19 16//19 39//19
f 38//20 27//20 39//20 40//20
f 22//21 25//21 33//21 29//21
f 14//22 21//22 30//22 15//22
f 31//23 38//23 40//23 32//23
f 37//24 28//24 27//24 38//24
f 8//25 7//25 4//25 3//25 18//25 12//25 11//25 35//25
f 28//26 37//26 36//26 24//26 23//26 20//26 19//26 26//26
f 16//27 15//27 5//27 34//27
f 39//28 16//28 34//28 10//28
f 30//29 29//29 1//29 6//29
f 33//30 32//30 17//30 2//30
f 32//31 40//31 9//31 17//31
f 40//32 39//32 10//32 9//32
f 15//33 30//33 6//33 5//33
f 29//34 33//34 2//34 1//34
