g Capsule_fullhitbox
v 0.038833 -0.500000 -0.093750
v 0.038833 0.500000 -0.093750
v 0.093750 -0.500000 -0.038832
v 0.093750 0.500000 -0.038833
v 0.093750 -0.500000 0.038833
v 0.093750 0.500000 0.038832
v 0.038833 -0.500000 0.093750
v 0.038833 0.500000 0.093750
v -0.038832 -0.500000 0.093750
v -0.038832 0.500000 0.093750
v -0.093750 -0.500000 0.038833
v -0.093750 0.500000 0.038832
v -0.093750 -0.500000 -0.038832
v -0.093750 0.500000 -0.038833
v -0.038832 -0.500000 -0.093750
v -0.038832 0.500000 -0.093750
v 0.207107 -0.000000 -0.500000
v 0.500000 -0.000000 -0.207107
v 0.500000 -0.000000 0.207107
v 0.207107 0.000000 0.500000
v -0.207107 0.000000 0.500000
v -0.500000 -0.000000 0.207107
v -0.500000 -0.000000 -0.207107
v -0.207107 -0.000000 -0.500000
v 0.207107 0.400000 -0.500000
v 0.500000 0.400000 -0.207107
v 0.500000 0.400000 0.207107
v 0.207107 0.400000 0.500000
v -0.207107 0.400000 0.500000
v -0.500000 0.400000 0.207107
v -0.500000 0.400000 -0.207107
v -0.207107 0.400000 -0.500000
v 0.184455 -0.250000 -0.445312
v 0.445312 -0.250000 -0.184455
v 0.445312 -0.250000 0.184455
v 0.184455 -0.250000 0.445313
v -0.445312 -0.250000 0.184455
v -0.445312 -0.250000 -0.184455
v -0.184455 -0.250000 -0.445312
v -0.184455 -0.250000 0.445313
vn -0.4098 -0.8150 0.4098
vn 0.4098 -0.8150 0.4098
vn -0.0000 -0.8150 -0.5795
vn 1.0000 -0.0000 -0.0000
vn -0.4098 -0.8150 -0.4098
vn 0.1690 0.9710 0.1690
vn -0.5795 -0.8150 -0.0000
vn -0.1690 0.9710 0.1690
vn 0.2390 0.9710 -0.0000
vn -0.0000 -0.8150 0.5795
vn 0.1690 0.9710 -0.1690
vn -0.0000 -0.0000 1.0000
vn -1.0000 -0.0000 -0.0000
vn -0.0000 0.9710 0.2390
vn 0.4098 -0.8150 -0.4098
vn -0.2390 0.9710 -0.0000
vn 0.5795 -0.8150 -0.0000
vn -0.1690 0.9710 -0.1690
vn 0.7071 -0.0000 -0.7071
vn -0.0000 -0.0000 -1.0000
vn -0.7071 -0.0000 0.7071
vn 0.7071 -0.0000 0.7071
vn -0.7071 -0.0000 -0.7071
vn -0.0000 0.9710 -0.2390
vn -0.0000 -1.0000 -0.0000
vn -0.0000 1.0000 -0.0000
vn 0.9769 -0.2137 -0.0000
vn 0.6908 -0.2137 -0.6908
vn -0.0000 -0.2137 0.9769
vn -0.9769 -0.2137 -0.0000
vn -0.6908 -0.2137 -0.6908
vn -0.0000 -0.2137 -0.9769
vn 0.6908 -0.2137 0.6908
vn -0.6908 -0.2137 0.6908
vt 0.000000 0.500000
vt 1.000000 0.500000
vt 0.000000 1.000000
vt 1.000000 1.000000
vt 0.875000 0.500000
vt 0.875000 1.000000
vt 0.750000 0.500000
vt 0.750000 1.000000
vt 0.625000 0.500000
vt 0.625000 1.000000
vt 0.500000 0.500000
vt 0.500000 1.000000
vt 0.375000 0.500000
vt 0.375000 1.000000
vt 0.250000 0.500000
vt 0.250000 1.000000
vt 0.125000 0.500000
vt 0.125000 1.000000
vt 1.000000 0.650000
vt 0.000000 0.650000
vt 0.875000 0.650000
vt 0.750000 0.650000
vt 0.625000 0.650000
vt 0.500000 0.650000
vt 0.375000 0.650000
vt 0.250000 0.650000
vt 0.125000 0.650000
vt 1.000000 0.912500
vt 0.000000 0.912500
vt 0.875000 0.912500
vt 0.750000 0.912500
vt 0.625000 0.912500
vt 0.500000 0.912500
vt 0.375000 0.912500
vt 0.250000 0.912500
vt 0.125000 0.912500
vt 1.000000 0.575000
vt 0.000000 0.575000
vt 0.875000 0.575000
vt 0.750000 0.575000
vt 0.625000 0.575000
vt 0.375000 0.575000
vt 0.250000 0.575000
vt 0.125000 0.575000
vt 0.500000 0.575000
s off
f 37/42/1 9/11/1 40/45/1
f 35/40/2 7/9/2 5/7/2
f 33/38/3 15/17/3 39/44/3
f 26/30/4 19/22/4 18/21/4
f 39/44/5 13/15/5 38/43/5
f 6/8/6 28/32/6 27/31/6
f 38/43/7 11/13/7 37/42/7
f 10/12/8 30/34/8 29/33/8
f 6/8/9 26/30/9 4/6/9
f 40/45/10 7/9/10 36/41/10
f 25/28/11 4/6/11 26/30/11
f 29/33/12 20/23/12 28/32/12
f 31/35/13 22/25/13 30/34/13
f 10/12/14 28/32/14 8/10/14
f 34/39/15 1/2/15 33/37/15
f 14/16/16 30/34/16 12/14/16
f 35/40/17 3/5/17 34/39/17
f 16/18/18 31/35/18 14/16/18
f 26/30/19 17/19/19 25/28/19
f 25/29/20 24/27/20 32/36/20
f 30/34/21 21/24/21 29/33/21
f 28/32/22 19/22/22 27/31/22
f 32/36/23 23/26/23 31/35/23
f 2/3/24 32/36/24 16/18/24
f 11/13/25 15/17/25 3/5/25
f 12/14/26 8/10/26 4/6/26
f 19/22/27 34/39/27 18/21/27
f 18/21/28 33/37/28 17/19/28
f 21/24/29 36/41/29 20/23/29
f 23/26/30 37/42/30 22/25/30
f 24/27/31 38/43/31 23/26/31
f 17/20/32 39/44/32 24/27/32
f 20/23/33 35/40/33 19/22/33
f 22/25/34 40/45/34 21/24/34
f 37/42/1 11/13/1 9/11/1
f 35/40/2 36/41/2 7/9/2
f 33/38/3 1/1/3 15/17/3
f 26/30/4 27/31/4 19/22/4
f 39/44/5 15/17/5 13/15/5
f 6/8/6 8/10/6 28/32/6
f 38/43/7 13/15/7 11/13/7
f 10/12/8 12/14/8 30/34/8
f 6/8/9 27/31/9 26/30/9
f 40/45/10 9/11/10 7/9/10
f 25/28/11 2/4/11 4/6/11
f 29/33/12 21/24/12 20/23/12
f 31/35/13 23/26/13 22/25/13
f 10/12/14 29/33/14 28/32/14
f 34/39/15 3/5/15 1/2/15
f 14/16/16 31/35/16 30/34/16
f 35/40/17 5/7/17 3/5/17
f 16/18/18 32/36/18 31/35/18
f 26/30/19 18/21/19 17/19/19
f 25/29/20 17/20/20 24/27/20
f 30/34/21 22/25/21 21/24/21
f 28/32/22 20/23/22 19/22/22
f 32/36/23 24/27/23 23/26/23
f 2/3/24 25/29/24 32/36/24
f 3/5/25 5/7/25 7/9/25
f 7/9/25 9/11/25 11/13/25
f 11/13/25 13/15/25 15/17/25
f 15/17/25 1/2/25 3/5/25
f 3/5/25 7/9/25 11/13/25
f 4/6/26 2/4/26 16/18/26
f 16/18/26 14/16/26 12/14/26
f 12/14/26 10/12/26 8/10/26
f 8/10/26 6/8/26 4/6/26
f 4/6/26 16/18/26 12/14/26
f 19/22/27 35/40/27 34/39/27
f 18/21/28 34/39/28 33/37/28
f 21/24/29 40/45/29 36/41/29
f 23/26/30 38/43/30 37/42/30
f 24/27/31 39/44/31 38/43/31
f 17/20/32 33/38/32 39/44/32
f 20/23/33 36/41/33 35/40/33
f 22/25/34 37/42/34 40/45/34
