o Capsule_fullhitbox
v 0.155330 -0.500000 -0.375000
v 0.155330 0.500000 -0.375000
v 0.375000 -0.500000 -0.155330
v 0.375000 0.500000 -0.155330
v 0.375000 -0.500000 0.155330
v 0.375000 0.500000 0.155330
v 0.155330 -0.500000 0.375000
v 0.155330 0.500000 0.375000
v -0.155330 -0.500000 0.375000
v -0.155330 0.500000 0.375000
v -0.375000 -0.500000 0.155330
v -0.375000 0.500000 0.155330
v -0.375000 -0.500000 -0.155330
v -0.375000 0.500000 -0.155330
v -0.155330 -0.500000 -0.375000
v -0.155330 0.500000 -0.375000
v 0.207107 -0.300000 -0.500000
v 0.500000 -0.300000 -0.207107
v 0.500000 -0.300000 0.207107
v 0.207107 -0.300000 0.500000
v -0.207107 -0.300000 0.500000
v -0.500000 -0.300000 0.207107
v -0.500000 -0.300000 -0.207107
v -0.207107 -0.300000 -0.500000
v 0.207107 0.300000 -0.500000
v 0.500000 0.300000 -0.207107
v 0.500000 0.300000 0.207107
v 0.207107 0.300000 0.500000
v -0.207107 0.300000 0.500000
v -0.500000 0.300000 0.207107
v -0.500000 0.300000 -0.207107
v -0.207107 0.300000 -0.500000
vt 1.000000 0.912500
vt 0.875000 1.000000
vt 0.875000 0.912500
vt 0.750000 0.912500
vt 0.750000 1.000000
vt 0.625000 0.912500
vt 0.625000 1.000000
vt 0.500000 0.912500
vt 0.375000 1.000000
vt 0.375000 0.912500
vt 0.250000 0.912500
vt 0.419706 0.080294
vt 0.490000 0.250000
vt 0.010000 0.250000
vt 0.250000 1.000000
vt 0.125000 0.912500
vt 0.125000 1.000000
vt 0.000000 0.912500
vt 0.919706 0.080294
vt 0.580294 0.080294
vt 0.580294 0.419706
vt 0.125000 0.650000
vt 0.000000 0.500000
vt 0.125000 0.500000
vt 0.250000 0.650000
vt 0.250000 0.500000
vt 0.375000 0.650000
vt 0.375000 0.500000
vt 0.500000 0.650000
vt 0.500000 0.500000
vt 0.625000 0.650000
vt 0.625000 0.500000
vt 0.750000 0.650000
vt 0.750000 0.500000
vt 0.875000 0.650000
vt 0.875000 0.500000
vt 1.000000 0.650000
vt 1.000000 0.500000
vt 0.000000 0.650000
vt 1.000000 1.000000
vt 0.500000 1.000000
vt 0.419706 0.419706
vt 0.250000 0.490000
vt 0.080294 0.419706
vt 0.080294 0.080294
vt 0.250000 0.010000
vt 0.000000 1.000000
vt 0.750000 0.490000
vt 0.919706 0.419706
vt 0.990000 0.250000
vt 0.750000 0.010000
vt 0.510000 0.250000
vn 0.5996 0.5300 -0.5996
vn 0.8480 0.5300 0.0000
vn 0.5996 0.5300 0.5996
vn 0.0000 0.5300 0.8480
vn -0.5996 0.5300 0.5996
vn -0.8480 0.5300 0.0000
vn 0.0000 1.0000 0.0000
vn -0.5996 0.5300 -0.5996
vn 0.0000 0.5300 -0.8480
vn 0.0000 -1.0000 0.0000
vn 0.0000 -0.5300 -0.8480
vn -0.5996 -0.5300 -0.5996
vn -0.8480 -0.5300 0.0000
vn -0.5996 -0.5300 0.5996
vn 0.0000 -0.5300 0.8480
vn 0.5996 -0.5300 0.5996
vn 0.8480 -0.5300 0.0000
vn 0.5996 -0.5300 -0.5996
vn 0.0000 0.0000 -1.0000
vn -0.7071 0.0000 -0.7071
vn -1.0000 0.0000 0.0000
vn -0.7071 0.0000 0.7071
vn 0.0000 0.0000 1.0000
vn 0.7071 0.0000 0.7071
vn 1.0000 0.0000 0.0000
vn 0.7071 0.0000 -0.7071
s off
f 25/1/1 4/2/1 26/3/1
f 4/2/2 27/4/2 26/3/2
f 6/5/3 28/6/3 27/4/3
f 8/7/4 29/8/4 28/6/4
f 29/8/5 12/9/5 30/10/5
f 12/9/6 31/11/6 30/10/6
f 8/12/7 6/13/7 14/14/7
f 14/15/8 32/16/8 31/11/8
f 16/17/9 25/18/9 32/16/9
f 7/19/10 11/20/10 15/21/10
f 24/22/11 1/23/11 15/24/11
f 23/25/12 15/24/12 13/26/12
f 22/27/13 13/26/13 11/28/13
f 21/29/14 11/28/14 9/30/14
f 20/31/15 9/30/15 7/32/15
f 19/33/16 7/32/16 5/34/16
f 18/35/17 5/34/17 3/36/17
f 17/37/18 3/36/18 1/38/18
f 32/16/19 17/39/19 24/22/19
f 31/11/20 24/22/20 23/25/20
f 30/10/21 23/25/21 22/27/21
f 29/8/22 22/27/22 21/29/22
f 28/6/23 21/29/23 20/31/23
f 27/4/24 20/31/24 19/33/24
f 26/3/25 19/33/25 18/35/25
f 25/1/26 18/35/26 17/37/26
f 25/1/1 2/40/1 4/2/1
f 4/2/2 6/5/2 27/4/2
f 6/5/3 8/7/3 28/6/3
f 8/7/4 10/41/4 29/8/4
f 29/8/5 10/41/5 12/9/5
f 12/9/6 14/15/6 31/11/6
f 6/13/7 4/42/7 2/43/7
f 2/43/7 16/44/7 6/13/7
f 16/44/7 14/14/7 6/13/7
f 14/14/7 12/45/7 10/46/7
f 10/46/7 8/12/7 14/14/7
f 14/15/8 16/17/8 32/16/8
f 16/17/9 2/47/9 25/18/9
f 15/21/10 1/48/10 3/49/10
f 3/49/10 5/50/10 15/21/10
f 5/50/10 7/19/10 15/21/10
f 7/19/10 9/51/10 11/20/10
f 11/20/10 13/52/10 15/21/10
f 24/22/11 17/39/11 1/23/11
f 23/25/12 24/22/12 15/24/12
f 22/27/13 23/25/13 13/26/13
f 21/29/14 22/27/14 11/28/14
f 20/31/15 21/29/15 9/30/15
f 19/33/16 20/31/16 7/32/16
f 18/35/17 19/33/17 5/34/17
f 17/37/18 18/35/18 3/36/18
f 32/16/19 25/18/19 17/39/19
f 31/11/20 32/16/20 24/22/20
f 30/10/21 31/11/21 23/25/21
f 29/8/22 30/10/22 22/27/22
f 28/6/23 29/8/23 21/29/23
f 27/4/24 28/6/24 20/31/24
f 26/3/25 27/4/25 19/33/25
f 25/1/26 26/3/26 18/35/26
