mtllib heart.mtl
o Love
v 0.179937 0.429605 0.150049
v -0.007489 0.289469 0.163346
v -0.005836 0.121296 0.239406
v 0.313750 -0.153289 -0.156860
v 0.190159 -0.348110 -0.110065
v 0.150073 -0.257130 -0.194458
v -0.195227 -0.210760 0.200657
v -0.035821 -0.372158 0.164864
v -0.003957 -0.207009 0.232705
v 0.326263 -0.230267 0.077106
v 0.196429 -0.391714 -0.024112
v 0.388713 -0.162258 -0.019487
v -0.034743 -0.502111 -0.055128
v -0.224572 -0.289615 -0.142261
v -0.026904 -0.470178 -0.106755
v 0.240034 0.198593 -0.233591
v -0.006857 0.137892 -0.233147
v 0.195275 0.361950 -0.193524
v 0.314512 0.272002 -0.207752
v 0.309283 0.102192 -0.223532
v 0.417721 0.252497 0.160748
v 0.430837 0.048171 0.147044
v 0.490911 0.199974 0.076677
v -0.347176 0.466417 0.025818
v -0.461001 0.330892 0.065799
v -0.306311 0.431278 0.139381
v -0.318971 0.066425 0.221291
v -0.123287 -0.061347 0.249108
v -0.267612 0.257102 0.227798
v -0.087244 -0.289904 -0.197361
v -0.204884 -0.115378 -0.222738
v -0.072931 0.029392 -0.250532
v -0.264111 0.240636 -0.229526
v 0.184411 -0.053380 -0.240489
v -0.003345 -0.164491 -0.243250
v -0.160575 -0.040970 -0.243665
v -0.417723 0.400690 -0.046157
v -0.499559 0.246226 -0.042090
v 0.405555 0.134399 -0.179735
v 0.469675 0.237643 -0.122289
v 0.161025 0.472573 0.088352
v 0.176332 0.495089 -0.017692
v 0.000299 0.366181 0.081277
v 0.101406 0.021321 -0.249869
v 0.076744 -0.477997 -0.048236
v 0.044191 -0.477096 0.092497
v 0.187373 -0.363637 0.097455
v 0.337096 -0.208364 -0.080950
v 0.454953 0.033092 -0.109205
v 0.500441 0.102739 -0.002265
v -0.235428 -0.294496 0.122133
v -0.219780 -0.375477 0.002074
v -0.056606 -0.474962 0.085724
v 0.064784 -0.437149 -0.116272
v 0.046555 -0.341080 -0.180348
v 0.236413 -0.113587 -0.212292
v 0.352499 0.002943 -0.195132
v -0.351418 0.031398 -0.208620
v -0.000036 0.368849 -0.079962
v -0.150784 0.482611 -0.039731
v -0.355857 -0.201535 0.049005
v -0.350380 -0.207502 -0.056056
v -0.492003 0.075644 -0.049305
v -0.459472 -0.013903 0.050568
v 0.344467 0.476281 -0.026748
v 0.429367 0.364483 0.089504
v 0.478425 0.312264 -0.050663
v 0.101847 -0.316478 0.181505
v 0.212817 -0.134285 0.217874
v 0.138007 -0.023856 0.249468
v 0.344618 0.068587 0.212681
v 0.290479 0.233430 0.224433
v -0.170342 0.362552 0.186725
v -0.154757 0.453700 0.115485
v -0.484719 0.148710 0.095420
v -0.415810 0.239475 0.167724
v -0.180458 0.417637 -0.166577
v -0.405432 0.294496 -0.159136
v 0.295433 0.474028 0.079419
v 0.172515 0.462769 -0.114478
v 0.004768 0.283580 -0.168614
v 0.318398 0.423079 -0.136693
v -0.401551 -0.001986 0.159389
v -0.283209 0.481439 -0.077686
v -0.341332 0.397422 -0.141791
v -0.233685 0.497889 0.040581
v 0.304222 -0.148342 0.163811
v 0.468207 0.023038 0.064462
v -0.409091 -0.054674 -0.115457
v -0.448102 0.129775 -0.149555
v 0.300308 0.387912 0.162520
v 0.207207 0.309636 0.214356
vn -0.2351 0.3986 0.8865
vn 0.4732 -0.4779 -0.7400
vn -0.1480 -0.3512 0.9245
vn 0.7653 -0.6422 0.0426
vn -0.5323 -0.6815 -0.5023
vn -0.0566 0.2232 -0.9731
vn 0.2538 0.0818 -0.9638
vn 0.7556 0.0046 0.6550
vn -0.6264 0.6521 0.4272
vn -0.1385 0.0035 0.9904
vn -0.3480 -0.3604 -0.8654
vn 0.0398 0.1344 -0.9901
vn 0.1389 -0.0036 -0.9903
vn -0.0373 -0.0509 -0.9980
vn -0.0912 0.0165 -0.9957
vn -0.8831 0.4665 -0.0505
vn 0.5032 0.1600 -0.8492
vn -0.5524 0.8281 0.0961
vn 0.0077 0.0854 -0.9963
vn -0.0475 0.1862 -0.9814
vn 0.2131 -0.8451 -0.4903
vn 0.6008 -0.7679 0.2221
vn 0.7579 -0.6318 -0.1625
vn 0.9361 -0.0891 -0.3401
vn -0.6161 -0.6879 0.3837
vn 0.2079 -0.9766 0.0543
vn 0.1068 -0.5376 -0.8364
vn -0.1571 -0.2450 -0.9567
vn 0.8219 -0.4431 -0.3579
vn 0.4406 -0.3152 -0.8405
vn -0.0659 -0.4656 -0.8825
vn -0.3215 -0.5089 -0.7985
vn 0.3096 -0.1707 -0.9354
vn -0.0096 -0.3379 -0.9411
vn 0.6774 -0.6349 -0.3715
vn 0.5614 -0.8165 0.1351
vn 0.6618 -0.3291 -0.6736
vn 0.7454 -0.0958 -0.6597
vn 0.1578 -0.2428 -0.9572
vn 0.0021 -0.0368 -0.9993
vn 0.6628 -0.1824 -0.7262
vn 0.3926 0.0731 -0.9168
vn 0.6201 -0.5319 -0.5766
vn 0.7350 -0.4210 -0.5315
vn 0.1174 -0.3036 -0.9455
vn 0.2879 -0.4930 -0.8210
vn 0.5877 -0.7034 -0.3997
vn 0.2381 -0.8137 -0.5304
vn 0.4322 -0.0691 -0.8991
vn 0.3011 -0.1389 -0.9434
vn -0.1878 -0.0197 -0.9820
vn -0.4220 -0.3404 -0.8403
vn -0.1445 -0.1872 -0.9716
vn -0.2283 -0.1352 -0.9642
vn 0.4058 -0.5190 -0.7523
vn 0.5160 -0.6913 -0.5058
vn 0.1141 0.0020 -0.9935
vn 0.0535 -0.0657 -0.9964
vn 0.4174 -0.3550 -0.8365
vn 0.2213 -0.2502 -0.9425
vn -0.5854 0.8106 0.0146
vn 0.6044 0.7966 0.0119
vn -0.7884 -0.6151 -0.0062
vn -0.8902 -0.4427 -0.1070
vn 0.7766 0.6288 0.0376
vn 0.9227 0.3296 0.2002
vn 0.1607 -0.2864 0.9445
vn 0.1800 -0.0110 0.9836
vn 0.3019 0.3953 0.8675
vn 0.5126 0.8417 0.1699
vn -0.9708 -0.1908 0.1452
vn -0.3820 0.0714 0.9214
vn 0.1024 0.2900 -0.9515
vn -0.7869 0.4046 -0.4659
vn 0.4366 0.0795 0.8961
vn 0.5928 0.7514 0.2897
vn -0.3230 0.5377 -0.7788
vn 0.6591 0.6037 -0.4484
vn -0.6950 -0.6348 0.3376
vn -0.8398 -0.2616 0.4757
vn -0.1944 0.6765 -0.7103
vn 0.0348 0.9878 -0.1520
vn 0.4649 -0.4813 0.7431
vn 0.7768 -0.4115 0.4767
vn -0.3875 0.3474 0.8539
vn 0.3516 0.5384 0.7658
vn -0.8215 -0.2669 -0.5039
vn -0.8012 0.1743 -0.5725
vn 0.3847 0.3222 0.8650
vn -0.2594 0.4098 0.8745
vn -0.0099 0.0595 0.9982
vn -0.0122 0.0617 0.9980
vn -0.0126 0.0611 0.9981
vn 0.0176 0.0865 0.9961
vn 0.1148 0.9906 0.0740
vn 0.1669 0.8714 -0.4612
vn -0.4656 0.6251 -0.6265
vn 0.4644 0.6507 -0.6007
vn -0.2555 -0.1847 0.9490
vn -0.6931 -0.4639 0.5517
vn 0.8551 -0.4680 0.2233
vn 0.9152 -0.3765 -0.1441
vn 0.4386 0.7541 -0.4889
vn 0.1287 0.8701 -0.4758
vn -0.5989 -0.6968 -0.3947
vn -0.5471 -0.8336 0.0758
vn -0.4184 0.0842 -0.9044
vn -0.1888 0.4071 -0.8937
vn -0.6029 0.4423 0.6640
vn -0.9626 0.1608 0.2179
vn -0.9961 -0.0473 0.0740
vn -0.9112 -0.0230 -0.4114
vn -0.2927 0.8786 0.3772
vn 0.0341 0.6118 0.7903
vn -0.3564 -0.5236 0.7738
vn 0.4109 -0.5503 0.7269
vn -0.6707 -0.6470 -0.3626
vn -0.5874 -0.3798 -0.7146
vn -0.6801 -0.0654 0.7302
vn -0.8203 0.1943 0.5379
vn 0.1019 0.2780 0.9551
vn -0.0925 0.4343 0.8960
vn -0.3797 -0.5293 0.7588
vn -0.5582 -0.4090 0.7219
vn 0.0776 0.4847 0.8713
vn 0.0032 0.9781 0.2081
vn 0.8028 0.2584 0.5374
vn 0.5028 0.4261 0.7520
vn -0.5346 0.7144 -0.4515
vn -0.2643 0.9642 -0.0234
vn 0.2269 -0.1227 0.9662
vn 0.7125 -0.4105 0.5690
vn -0.4336 -0.2578 0.8634
vn -0.5654 -0.0618 0.8225
vn -0.6869 -0.2700 -0.6747
vn -0.4674 0.0698 -0.8813
vn 0.0797 0.2580 -0.9628
vn 0.0507 0.6233 -0.7803
vn 0.2051 0.4123 -0.8877
vn 0.5101 0.3553 -0.7833
vn -0.0663 -0.6002 0.7971
vn -0.0332 -0.9823 0.1842
vn -0.4674 0.6675 0.5796
vn 0.4846 0.6156 0.6214
vn 0.6035 -0.0147 0.7973
vn 0.5389 -0.2794 0.7947
vn 0.2606 0.3736 -0.8903
vn -0.2812 0.4073 -0.8689
vn 0.1304 -0.1901 0.9731
vn -0.0099 0.0594 0.9982
vn 0.8843 -0.1441 0.4441
vn 0.9947 0.1030 -0.0067
vn 0.9812 0.0608 -0.1832
vn 0.6502 0.4850 -0.5847
vn 0.1031 -0.5102 0.8539
vn 0.0452 -0.3870 0.9210
vn 0.3446 0.9213 0.1804
vn -0.0397 0.8418 0.5384
vn -0.7756 -0.4321 0.4601
vn -0.8753 -0.4832 -0.0182
vn -0.5011 0.8265 -0.2563
vn 0.0884 0.9437 -0.3186
vn 0.0132 -0.1012 0.9948
vn -0.1561 -0.2359 0.9592
vn 0.4665 0.6277 0.6231
vn 0.1658 0.6896 0.7049
vn -0.5392 0.8143 -0.2151
vn -0.7414 0.6594 0.1245
vn -0.6870 -0.4770 -0.5482
vn -0.8695 -0.4291 -0.2445
vn 0.0003 0.1315 0.9913
vn 0.2117 0.3519 0.9118
vn 0.9470 -0.1414 0.2885
vn 0.9217 -0.3875 -0.0176
vn -0.3108 0.3430 -0.8864
vn -0.6651 0.5067 -0.5486
vn 0.4152 -0.4145 0.8098
vn 0.4576 -0.2757 0.8453
vn 0.5833 -0.5111 0.6313
vn 0.6930 -0.6895 0.2109
vn -0.4518 0.6611 0.5989
vn 0.0286 0.8244 0.5653
usemtl Love
s 1
f 1//1 2//1 3//1
f 4//2 5//2 6//2
f 7//3 8//3 9//3
f 10//4 11//4 12//4
f 13//5 14//5 15//5
f 16//6 17//6 18//6
f 19//7 20//7 16//7
f 21//8 22//8 23//8
f 24//9 25//9 26//9
f 27//10 28//10 29//10
f 30//11 14//11 31//11
f 32//12 33//12 17//12
f 20//13 34//13 16//13
f 35//14 36//14 32//14
f 32//15 36//15 33//15
f 37//16 38//16 25//16
f 39//17 19//17 40//17
f 41//18 42//18 43//18
f 16//19 44//19 32//19
f 16//20 32//20 17//20
f 15//21 45//21 13//21
f 46//22 11//22 47//22
f 11//23 48//23 12//23
f 49//24 40//24 50//24
f 51//25 52//25 53//25
f 13//26 45//26 46//26
f 54//27 15//27 55//27
f 30//28 31//28 35//28
f 48//29 49//29 12//29
f 4//30 56//30 57//30
f 55//31 15//31 30//31
f 15//32 14//32 30//32
f 57//33 56//33 34//33
f 55//34 30//34 35//34
f 11//35 5//35 48//35
f 46//36 45//36 11//36
f 49//37 4//37 57//37
f 40//38 49//38 39//38
f 6//39 35//39 34//39
f 35//40 32//40 44//40
f 39//41 49//41 57//41
f 39//42 20//42 19//42
f 48//43 5//43 4//43
f 48//44 4//44 49//44
f 35//45 6//45 55//45
f 6//46 54//46 55//46
f 11//47 45//47 5//47
f 45//48 15//48 54//48
f 39//49 57//49 20//49
f 20//50 57//50 34//50
f 36//51 58//51 33//51
f 31//52 14//52 58//52
f 35//53 31//53 36//53
f 31//54 58//54 36//54
f 5//55 54//55 6//55
f 54//56 5//56 45//56
f 34//57 44//57 16//57
f 34//58 35//58 44//58
f 4//59 6//59 56//59
f 6//60 34//60 56//60
f 42//61 59//61 43//61
f 60//62 43//62 59//62
f 61//63 62//63 52//63
f 63//64 62//64 64//64
f 65//65 66//65 67//65
f 67//66 66//66 23//66
f 68//67 69//67 9//67
f 70//68 71//68 72//68
f 2//69 73//69 3//69
f 43//70 60//70 74//70
f 63//71 64//71 75//71
f 76//72 27//72 29//72
f 17//73 33//73 77//73
f 37//74 78//74 38//74
f 72//75 71//75 21//75
f 79//76 66//76 65//76
f 80//77 18//77 81//77
f 82//78 65//78 67//78
f 52//79 51//79 61//79
f 64//80 83//80 75//80
f 84//81 77//81 85//81
f 60//82 84//82 86//82
f 68//83 47//83 87//83
f 22//84 10//84 88//84
f 29//85 26//85 76//85
f 2//86 74//86 73//86
f 89//87 63//87 90//87
f 38//88 78//88 90//88
f 21//89 91//89 72//89
f 1//90 3//90 92//90
f 28//91 3//92 29//93
f 3//94 70//94 72//94
f 42//95 79//95 65//95
f 65//96 82//96 80//96
f 81//97 59//97 80//97
f 77//98 59//98 81//98
f 7//99 28//99 27//99
f 61//100 51//100 83//100
f 12//101 88//101 10//101
f 12//102 49//102 50//102
f 59//103 77//103 60//103
f 77//104 84//104 60//104
f 52//105 14//105 13//105
f 52//106 13//106 53//106
f 33//107 58//107 78//107
f 33//108 85//108 77//108
f 76//109 26//109 25//109
f 38//110 75//110 25//110
f 63//111 75//111 38//111
f 38//112 90//112 63//112
f 86//113 24//113 26//113
f 74//114 26//114 73//114
f 53//115 8//115 7//115
f 46//116 47//116 68//116
f 52//117 62//117 14//117
f 58//118 14//118 89//118
f 76//119 75//119 83//119
f 25//120 75//120 76//120
f 29//121 3//121 73//121
f 73//122 26//122 29//122
f 53//123 7//123 51//123
f 83//124 51//124 7//124
f 92//125 91//125 1//125
f 42//126 41//126 79//126
f 66//127 21//127 23//127
f 66//128 91//128 21//128
f 37//129 84//129 85//129
f 84//130 24//130 86//130
f 69//131 71//131 70//131
f 87//132 10//132 22//132
f 83//133 7//133 27//133
f 76//134 83//134 27//134
f 58//135 89//135 90//135
f 58//136 90//136 78//136
f 18//137 19//137 16//137
f 18//138 80//138 82//138
f 19//139 18//139 82//139
f 82//140 40//140 19//140
f 53//141 46//141 8//141
f 53//142 13//142 46//142
f 43//143 2//143 41//143
f 43//144 74//144 2//144
f 71//145 22//145 21//145
f 87//146 22//146 71//146
f 17//147 77//147 81//147
f 17//148 81//148 18//148
f 9//149 69//149 70//149
f 28//91 70//150 3//92
f 88//151 23//151 22//151
f 50//152 67//152 23//152
f 40//153 67//153 50//153
f 82//154 67//154 40//154
f 46//155 68//155 8//155
f 9//156 8//156 68//156
f 74//157 60//157 86//157
f 86//158 26//158 74//158
f 64//159 61//159 83//159
f 62//160 61//160 64//160
f 42//161 80//161 59//161
f 65//162 80//162 42//162
f 9//163 70//163 28//163
f 7//164 9//164 28//164
f 91//165 66//165 79//165
f 79//166 1//166 91//166
f 24//167 84//167 37//167
f 24//168 37//168 25//168
f 89//169 14//169 62//169
f 89//170 62//170 63//170
f 72//171 92//171 3//171
f 72//172 91//172 92//172
f 88//173 50//173 23//173
f 12//174 50//174 88//174
f 33//175 78//175 85//175
f 37//176 85//176 78//176
f 68//177 87//177 69//177
f 69//178 87//178 71//178
f 47//179 10//179 87//179
f 47//180 11//180 10//180
f 41//181 2//181 1//181
f 79//182 41//182 1//182
