mtllib kwcube6.mtl
o KWCube6
v -0.500000 0.500000 -0.500000
v 0.500000 0.500000 0.500000
v 0.500000 0.500000 -0.500000
v -0.500000 -0.500000 0.500000
v 0.500000 -0.500000 0.500000
v -0.500000 0.500000 0.500000
v -0.500000 -0.500000 -0.500000
v 0.500000 -0.500000 -0.500000
vt 0.000000 1.000000
vt 1.000000 0.000000
vt 1.000000 1.000000
vt 0.000000 0.000000
vt 1.000000 1.000000
vt 0.000000 0.000000
vt 1.000000 0.000000
vt 0.000000 1.000000
vt 1.000000 1.000000
vt 0.000000 0.000000
vt 1.000000 0.000000
vt 1.000000 0.000000
vt 0.000000 1.000000
vt 1.000000 1.000000
vt 0.000000 0.000000
vt 0.000000 1.000000
vt 1.000000 1.000000
vt 0.000000 0.000000
vt 1.000000 0.000000
vt 0.000000 1.000000
vn 0.0000 1.0000 0.0000
vn 0.0000 -0.0000 1.0000
vn -1.0000 -0.0000 0.0000
vn 0.0000 -1.0000 -0.0000
vn 1.0000 -0.0000 0.0000
vn 0.0000 0.0000 -1.0000
usemtl Top
s 1
f 1/1/1 2/2/1 3/3/1
f 1/1/1 6/4/1 2/2/1
usemtl Front
f 2/5/2 4/6/2 5/7/2
f 2/5/2 6/8/2 4/6/2
usemtl Left
f 6/9/3 7/10/3 4/11/3
f 6/9/3 1/1/3 7/10/3
usemtl Bottom
f 8/12/4 4/13/4 7/10/4
f 8/12/4 5/14/4 4/13/4
usemtl Right
f 3/3/5 5/15/5 8/12/5
f 3/3/5 2/16/5 5/15/5
usemtl Back
f 1/17/6 8/18/6 7/19/6
f 1/17/6 3/20/6 8/18/6
