o MinecraftGrassBlade_MinecraftGrassBladeMesh
v -0.062500 0.000000 0.062500
v -0.062500 1.000000 0.062500
v -0.062500 0.000000 -0.062500
v -0.062500 1.000000 -0.062500
v 0.062500 0.000000 0.062500
v 0.062500 1.000000 0.062500
v 0.062500 0.000000 -0.062500
v 0.062500 1.000000 -0.062500
v -0.062500 0.250000 0.062500
v -0.062500 0.250000 -0.062500
v 0.062500 0.250000 -0.062500
v 0.062500 0.250000 0.062500
v -0.062500 0.531250 0.062500
v -0.062500 0.531250 -0.062500
v 0.062500 0.531250 -0.062500
v 0.062500 0.531250 0.062500
v -0.062500 0.765625 0.062500
v -0.062500 0.765625 -0.062500
v 0.062500 0.765625 -0.062500
v 0.062500 0.765625 0.062500
vt 0.000000 0.000000
vt 0.999668 0.234297
vt 0.000000 0.234297
vt 0.006201 0.000000
vt 0.992302 0.234297
vt 0.006201 0.234297
vt 0.000001 0.000000
vt 0.991486 0.234297
vt 0.000000 0.234297
vt 0.000001 0.000333
vt 0.989751 0.234630
vt 0.000000 0.234630
vt 0.401879 0.306746
vt 0.582589 0.487456
vt 0.401879 0.487456
vt 0.582589 0.487937
vt 0.401879 0.668647
vt 0.401879 0.487937
vt 0.000000 0.750083
vt 0.989750 1.000000
vt 0.000000 1.000000
vt 0.000000 0.749750
vt 0.991486 0.999667
vt 0.000000 0.999667
vt 0.006201 0.749750
vt 0.992302 0.999667
vt 0.006201 0.999667
vt 0.000000 0.749750
vt 0.999667 0.999667
vt 0.000000 0.999667
vt 0.000000 0.468927
vt 0.989750 0.750083
vt 0.000000 0.468594
vt 0.991486 0.749750
vt 0.006201 0.468594
vt 0.992302 0.749750
vt 0.000000 0.468594
vt 0.999667 0.749750
vt 0.989750 0.468927
vt 0.991486 0.468594
vt 0.992302 0.468594
vt 0.999667 0.468594
vt 0.999668 0.000000
vt 0.992302 0.000000
vt 0.991487 0.000000
vt 0.989751 0.000333
vt 0.582589 0.306746
vt 0.582589 0.668647
vn -1.0000 0.0000 0.0000
vn 0.0000 0.0000 -1.0000
vn 1.0000 0.0000 0.0000
vn 0.0000 0.0000 1.0000
vn 0.0000 -1.0000 0.0000
vn 0.0000 1.0000 0.0000
s off
f 2/1/1 18/2/1 17/3/1
f 4/4/2 19/5/2 18/6/2
f 8/7/3 20/8/3 19/9/3
f 6/10/4 17/11/4 20/12/4
f 7/13/5 1/14/5 3/15/5
f 4/16/6 6/17/6 8/18/6
f 12/19/4 1/20/4 5/21/4
f 11/22/3 5/23/3 7/24/3
f 10/25/2 7/26/2 3/27/2
f 9/28/1 3/29/1 1/30/1
f 16/31/4 9/32/4 12/19/4
f 15/33/3 12/34/3 11/22/3
f 14/35/2 11/36/2 10/25/2
f 13/37/1 10/38/1 9/28/1
f 20/12/4 13/39/4 16/31/4
f 19/9/3 16/40/3 15/33/3
f 18/6/2 15/41/2 14/35/2
f 17/3/1 14/42/1 13/37/1
f 2/1/1 4/43/1 18/2/1
f 4/4/2 8/44/2 19/5/2
f 8/7/3 6/45/3 20/8/3
f 6/10/4 2/46/4 17/11/4
f 7/13/5 5/47/5 1/14/5
f 4/16/6 2/48/6 6/17/6
f 12/19/4 9/32/4 1/20/4
f 11/22/3 12/34/3 5/23/3
f 10/25/2 11/36/2 7/26/2
f 9/28/1 10/38/1 3/29/1
f 16/31/4 13/39/4 9/32/4
f 15/33/3 16/40/3 12/34/3
f 14/35/2 15/41/2 11/36/2
f 13/37/1 14/42/1 10/38/1
f 20/12/4 17/11/4 13/39/4
f 19/9/3 20/8/3 16/40/3
f 18/6/2 19/5/2 15/41/2
f 17/3/1 18/2/1 14/42/1
