o KWQuad
v 0.500000 -0.500000 -0.001250
v -0.500000 -0.500000 -0.001250
v 0.500000 0.500000 -0.001250
v -0.500000 0.500000 -0.001250
v -0.500000 -0.500000 0.001250
v 0.500000 -0.500000 0.001250
v -0.500000 0.500000 0.001250
v 0.500000 0.500000 0.001250
vt 0.000000 0.000000
vt 1.000000 1.000000
vt 1.000000 0.000000
vt 1.000000 0.000000
vt 0.000000 1.000000
vt 0.000000 0.000000
vt 0.000000 1.000000
vt 1.000000 1.000000
vn -0.0000 0.0000 -1.0000
vn 0.0000 0.0000 1.0000
s off
f 2/1/1 3/2/1 1/3/1
f 6/4/2 7/5/2 5/6/2
f 2/1/1 4/7/1 3/2/1
f 6/4/2 8/8/2 7/5/2
