o KWQuad2D
v -0.500000 0.000000 -0.001250
v 0.500000 1.000000 -0.001250
v 0.500000 0.000000 -0.001250
v 0.500000 0.000000 0.001250
v -0.500000 1.000000 0.001250
v -0.500000 0.000000 0.001250
v -0.500000 1.000000 -0.001250
v 0.500000 1.000000 0.001250
vt 0.000000 0.000000
vt 1.000000 1.000000
vt 1.000000 0.000000
vt 1.000000 0.000000
vt 0.000000 1.000000
vt 0.000000 0.000000
vt 0.000000 1.000000
vt 1.000000 1.000000
vn 0.0000 -0.0000 -1.0000
vn 0.0000 0.0000 1.0000
s 1
f 1/1/1 2/2/1 3/3/1
f 4/4/2 5/5/2 6/6/2
f 1/1/1 7/7/1 2/2/1
f 4/4/2 8/8/2 5/5/2
