o KWShard
v 0.000000 -0.500000 0.000000
v -0.017274 -0.074530 0.053165
v -0.042135 -0.293285 -0.030612
v 0.052081 -0.293282 0.000000
v -0.052081 0.293282 0.064515
v 0.017274 0.223607 -0.078588
v 0.042135 0.293285 0.030612
v 0.000000 0.500000 0.000000
vn 0.3909 -0.0985 0.9152
vn -0.8541 -0.0985 0.5106
vn 0.3081 -0.0776 -0.9482
vn 0.5363 -0.0349 0.8433
vn -0.8567 -0.0967 0.5067
vn 0.3067 -0.1229 -0.9439
vn 0.3386 0.0030 0.9409
vn -0.8867 0.0593 -0.4586
vn 0.9705 0.0290 -0.2394
vn 0.3315 0.2040 0.9212
vn -0.8820 0.0771 -0.4650
vn 0.9403 0.1462 -0.3073
vt 0.181819 0.000000
vt 0.363637 0.157461
vt 0.090910 0.157461
vt 0.909091 0.000000
vt 1.000000 0.157461
vt 0.727274 0.157461
vt 0.545455 0.000000
vt 0.272729 0.314921
vt 0.818182 0.314921
vt 0.545455 0.314921
vt 0.000000 0.314921
vt 0.090910 0.472382
vt 0.636364 0.472382
vt 0.454546 0.472382
s 0
f 1/1/1 4/2/1 2/3/1
f 1/4/2 2/5/2 3/6/2
f 1/7/3 3/6/3 4/2/3
f 2/3/4 4/2/4 7/8/4
f 3/6/5 2/5/5 5/9/5
f 4/2/6 3/6/6 6/10/6
f 2/3/7 7/8/7 5/11/7
f 3/6/8 5/9/8 6/10/8
f 4/2/9 6/10/9 7/8/9
f 5/11/10 7/8/10 8/12/10
f 6/10/11 5/9/11 8/13/11
f 7/8/12 6/10/12 8/14/12
