o Capsule
v 0.038833 -0.487500 -0.093750
v 0.038833 0.487500 -0.093750
v 0.093750 -0.487500 -0.038832
v 0.093750 0.487500 -0.038833
v 0.093750 -0.487500 0.038833
v 0.093750 0.487500 0.038832
v 0.038833 -0.487500 0.093750
v 0.038833 0.487500 0.093750
v -0.038832 -0.487500 0.093750
v -0.038832 0.487500 0.093750
v -0.093750 -0.487500 0.038833
v -0.093750 0.487500 0.038832
v -0.093750 -0.487500 -0.038832
v -0.093750 0.487500 -0.038833
v -0.038832 -0.487500 -0.093750
v -0.038832 0.487500 -0.093750
v 0.142850 -0.314263 -0.387978
v 0.344870 -0.314263 -0.160706
v 0.344870 -0.314263 0.160706
v 0.142850 -0.314263 0.387979
v -0.142850 -0.314263 0.387979
v -0.344870 -0.314263 0.160706
v -0.344870 -0.314263 -0.160706
v -0.142850 -0.314263 -0.387978
v 0.142850 0.314263 -0.387979
v 0.344870 0.314263 -0.160706
v 0.344870 0.314263 0.160706
v 0.142850 0.314263 0.387978
v -0.142850 0.314263 0.387978
v -0.344870 0.314263 0.160706
v -0.344870 0.314263 -0.160706
v -0.142850 0.314263 -0.387979
v 0.196752 0.095000 0.475000
v 0.475000 0.095000 -0.196752
v -0.196752 0.095000 0.475000
v -0.475000 0.095000 0.196752
v -0.196752 0.095000 -0.475000
v 0.475000 0.095000 0.196752
v -0.475000 0.095000 -0.196752
v 0.196752 0.095000 -0.475000
v 0.196752 -0.095000 0.475000
v 0.475000 -0.095000 -0.196752
v -0.196752 -0.095000 0.475000
v -0.475000 -0.095000 0.196752
v -0.196752 -0.095000 -0.475000
v 0.475000 -0.095000 0.196752
v -0.475000 -0.095000 -0.196752
v 0.196752 -0.095000 -0.475000
vn -0.0000 0.3689 0.9295
vn -0.6491 -0.4455 0.6167
vn 0.5678 0.8231 -0.0000
vn -0.0000 -0.8617 -0.5074
vn -0.0000 -0.8617 0.5074
vn 0.3979 0.8429 -0.3623
vn -0.0000 1.0000 -0.0000
vn -0.8600 0.5104 -0.0000
vn -0.3979 0.8429 0.3623
vn -0.0000 -0.3689 -0.9295
vn 0.3979 0.8429 0.3623
vn -0.5678 -0.8231 -0.0000
vn -0.0000 -0.3689 0.9295
vn -0.6491 0.4455 -0.6167
vn 0.3979 -0.8429 0.3623
vn -0.3979 0.8429 -0.3623
vn 0.3979 -0.8429 -0.3623
vn 0.6491 0.4455 0.6167
vn -0.3979 -0.8429 -0.3623
vn 0.6491 0.4455 -0.6167
vn 0.6491 -0.4455 -0.6167
vn -0.3979 -0.8429 0.3623
vn -0.6491 -0.4455 -0.6167
vn -0.5678 0.8231 -0.0000
vn 0.6491 -0.4455 0.6167
vn 0.7071 -0.0000 0.7071
vn -0.7071 -0.0000 -0.7071
vn -0.0000 -0.0000 1.0000
vn 0.8600 -0.5104 -0.0000
vn 0.8600 0.5104 -0.0000
vn -0.8600 -0.5104 -0.0000
vn -0.0000 0.8617 0.5074
vn -0.0000 -0.0000 -1.0000
vn -0.0000 -1.0000 -0.0000
vn 0.5678 -0.8231 -0.0000
vn 0.7071 -0.0000 -0.7071
vn -0.7071 -0.0000 0.7071
vn -0.0000 0.3689 -0.9295
vn 1.0000 -0.0000 -0.0000
vn -0.6491 0.4455 0.6167
vn -1.0000 -0.0000 -0.0000
vn -0.0000 0.8617 -0.5074
vt 0.000000 0.500000
vt 1.000000 0.500000
vt 0.750000 0.490000
vt 1.000000 1.000000
vt 0.250000 0.490000
vt 0.000000 1.000000
vt 0.919706 0.419706
vt 0.875000 0.500000
vt 0.875000 1.000000
vt 0.419706 0.419706
vt 0.990000 0.250000
vt 0.750000 0.500000
vt 0.490000 0.250000
vt 0.750000 1.000000
vt 0.625000 0.500000
vt 0.919706 0.080294
vt 0.419706 0.080294
vt 0.625000 1.000000
vt 0.500000 0.500000
vt 0.750000 0.010000
vt 0.250000 0.010000
vt 0.500000 1.000000
vt 0.375000 0.500000
vt 0.580294 0.080294
vt 0.080294 0.080294
vt 0.375000 1.000000
vt 0.250000 0.500000
vt 0.510000 0.250000
vt 0.010000 0.250000
vt 0.250000 1.000000
vt 0.125000 0.500000
vt 0.580294 0.419706
vt 0.080294 0.419706
vt 0.125000 1.000000
vt 0.000000 0.650000
vt 1.000000 0.650000
vt 0.875000 0.650000
vt 0.750000 0.650000
vt 0.625000 0.650000
vt 0.500000 0.650000
vt 0.375000 0.650000
vt 0.250000 0.650000
vt 0.125000 0.650000
vt 1.000000 0.912500
vt 0.000000 0.912500
vt 0.875000 0.912500
vt 0.750000 0.912500
vt 0.625000 0.912500
vt 0.500000 0.912500
vt 0.375000 0.912500
vt 0.250000 0.912500
vt 0.125000 0.912500
vt 0.625000 0.781250
vt 0.875000 0.781250
vt 0.500000 0.781250
vt 0.375000 0.781250
vt 0.125000 0.781250
vt 0.750000 0.781250
vt 0.250000 0.781250
vt 1.000000 0.781250
vt 0.000000 0.781250
vt 0.625000 0.715625
vt 0.875000 0.715625
vt 0.500000 0.715625
vt 0.375000 0.715625
vt 0.125000 0.715625
vt 0.750000 0.715625
vt 0.250000 0.715625
vt 0.000000 0.715625
vt 1.000000 0.715625
s 0
f 28/48/1 29/49/1 35/55/1 33/53/1
f 43/64/2 44/65/2 22/41/2 21/40/2
f 4/9/3 6/14/3 27/47/3 26/46/3
f 24/43/4 17/35/4 1/1/4 15/31/4
f 20/39/5 21/40/5 9/19/5 7/15/5
f 25/44/6 2/4/6 4/9/6 26/46/6
f 2/5/7 16/33/7 14/29/7 12/25/7 10/21/7 8/17/7 6/13/7 4/10/7
f 30/50/8 31/51/8 39/59/8 36/56/8
f 29/49/9 10/22/9 12/26/9 30/50/9
f 45/66/10 48/69/10 17/35/10 24/43/10
f 6/14/11 8/18/11 28/48/11 27/47/11
f 22/41/12 23/42/12 13/27/12 11/23/12
f 41/62/13 43/64/13 21/40/13 20/39/13
f 31/51/14 32/52/14 37/57/14 39/59/14
f 19/38/15 20/39/15 7/15/15 5/12/15
f 14/30/16 16/34/16 32/52/16 31/51/16
f 17/36/17 18/37/17 3/8/17 1/2/17
f 27/47/18 28/48/18 33/53/18 38/58/18
f 23/42/19 24/43/19 15/31/19 13/27/19
f 25/44/20 26/46/20 34/54/20 40/60/20
f 48/70/21 42/63/21 18/37/21 17/36/21
f 21/40/22 22/41/22 11/23/22 9/19/22
f 47/68/23 45/66/23 24/43/23 23/42/23
f 12/26/24 14/30/24 31/51/24 30/50/24
f 46/67/25 41/62/25 20/39/25 19/38/25
f 38/58/26 33/53/26 41/62/26 46/67/26
f 39/59/27 37/57/27 45/66/27 47/68/27
f 33/53/28 35/55/28 43/64/28 41/62/28
f 42/63/29 46/67/29 19/38/29 18/37/29
f 26/46/30 27/47/30 38/58/30 34/54/30
f 44/65/31 47/68/31 23/42/31 22/41/31
f 8/18/32 10/22/32 29/49/32 28/48/32
f 37/57/33 40/61/33 48/69/33 45/66/33
f 11/24/34 13/28/34 15/32/34 1/3/34 3/7/34 5/11/34 7/16/34 9/20/34
f 18/37/35 19/38/35 5/12/35 3/8/35
f 40/60/36 34/54/36 42/63/36 48/70/36
f 35/55/37 36/56/37 44/65/37 43/64/37
f 32/52/38 25/45/38 40/61/38 37/57/38
f 34/54/39 38/58/39 46/67/39 42/63/39
f 29/49/40 30/50/40 36/56/40 35/55/40
f 36/56/41 39/59/41 47/68/41 44/65/41
f 16/34/42 2/6/42 25/45/42 32/52/42
