mtllib star.mtl
o Star
v 0.500030 0.170818 0.002126
v 0.119993 0.173576 0.002052
v -0.000007 -0.000129 0.252296
v 0.194033 -0.066371 0.002068
v 0.308814 -0.447261 0.002118
v -0.000044 -0.214647 0.002366
v -0.308975 -0.447281 0.002118
v -0.194099 -0.066280 0.002352
v -0.499970 0.171049 0.002164
v -0.119925 0.173628 0.002052
v 0.000108 0.552719 0.002200
v 0.000128 0.000044 -0.247704
vt 0.949236 0.214776
vt 0.763338 0.510840
vt 0.532399 0.501628
vt 0.604844 0.282563
vt 0.373495 0.000194
vt 0.346330 0.356889
vt 0.017242 0.478742
vt 0.345255 0.631406
vt 0.373070 0.988831
vt 0.602636 0.726737
vt 0.949236 0.825948
vt 0.351704 0.350716
vt 0.540700 0.486208
vt 0.017052 0.486225
vt 0.351656 0.621837
vt 0.378815 0.972564
vt 0.612820 0.705512
vt 0.964250 0.787154
vt 0.774671 0.486366
vt 0.964250 0.185653
vt 0.612918 0.267243
vt 0.379075 0.000000
vn 0.0058 0.8202 0.5721
vn 0.5055 -0.6523 0.5647
vn 0.7969 0.2402 0.5543
vn -0.4958 -0.6589 0.5656
vn 0.4958 -0.6590 0.5656
vn -0.7965 0.2398 0.5550
vn -0.5059 -0.6516 0.5653
vn -0.0054 0.8202 0.5721
vn -0.7934 0.2510 0.5545
vn 0.7935 0.2507 0.5545
vn 0.7931 0.2510 -0.5550
vn -0.7926 0.2512 -0.5556
vn -0.0057 0.8198 -0.5726
vn -0.5054 -0.6518 -0.5654
vn -0.7964 0.2405 -0.5548
vn 0.4965 -0.6588 -0.5652
vn -0.4964 -0.6585 -0.5657
vn 0.7967 0.2400 -0.5547
vn 0.5053 -0.6518 -0.5656
vn 0.0061 0.8199 -0.5725
usemtl StarMaterial
s 1
f 1/1/1 2/2/1 3/3/1
f 4/4/2 1/1/2 3/3/2
f 5/5/3 4/4/3 3/3/3
f 6/6/4 5/5/4 3/3/4
f 7/7/5 6/6/5 3/3/5
f 8/8/6 7/7/6 3/3/6
f 9/9/7 8/8/7 3/3/7
f 10/10/8 9/9/8 3/3/8
f 11/11/9 10/10/9 3/3/9
f 2/2/10 11/11/10 3/3/10
f 2/12/11 12/13/11 11/14/11
f 11/14/12 12/13/12 10/15/12
f 10/15/13 12/13/13 9/16/13
f 9/16/14 12/13/14 8/17/14
f 8/17/15 12/13/15 7/18/15
f 7/18/16 12/13/16 6/19/16
f 6/19/17 12/13/17 5/20/17
f 5/20/18 12/13/18 4/21/18
f 4/21/19 12/13/19 1/22/19
f 1/22/20 12/13/20 2/12/20
