# Blender 3.5.0
# www.blender.org
mtllib PlaneRender.mtl
g Planetest_Mesh
v -1.000000 0.000000 1.000000
v 1.000000 0.000000 1.000000
v -1.000000 0.000000 -1.000000
v 1.000000 0.000000 -1.000000
v 2.000000 2.000000 1.000000
v 2.000000 2.000000 -1.000000
v -1.000000 1.000000 3.000000
v 1.000000 1.000000 3.000000
v -1.000000 1.000000 -6.000000
v 1.000000 1.000000 -6.000000
v -6.000000 1.000000 1.000000
v -6.000000 1.000000 -1.000000
v 6.000000 1.000000 1.000000
v 6.000000 1.000000 -1.000000
v -3.500000 1.000000 -8.500000
v -8.500000 1.000000 -3.500000
v -9.000000 0.000000 1.000000
v -9.000000 0.000000 -1.000000
v -2.500000 1.000000 7.000000
v -7.500000 1.000000 5.000000
v -1.000000 -1.000000 -9.000000
v 1.000000 -1.000000 -9.000000
v 6.500000 2.500000 -2.500000
v 5.500000 1.500000 -7.500000
v -1.000000 1.000000 7.000000
v 1.000000 1.000000 7.000000
vn -0.0000 0.8944 -0.4472
vn -0.8944 0.4472 -0.0000
vn -0.0000 1.0000 -0.0000
vn -0.0000 0.9806 0.1961
vn 0.1925 0.9623 0.1925
vn -0.8909 0.4454 0.0891
vn -0.8729 0.4364 -0.2182
vn 0.1761 0.8805 -0.4402
vn 0.1961 0.9806 -0.0000
vn 0.2425 0.9701 -0.0000
vn -0.3162 0.9487 -0.0000
vn -0.3140 0.9421 -0.1178
vn -0.3015 0.9045 0.3015
vn -0.0000 0.8321 -0.5547
vn -0.1622 0.9733 -0.1622
vn 0.4851 0.7276 -0.4851
vn -0.2673 0.8018 -0.5345
vn 0.1672 0.6687 0.7245
vn 0.2074 0.8296 0.5185
vt 0.497949 0.387388
vt 0.595526 0.388662
vt 0.498736 0.489032
vt 0.598440 0.484222
vt 0.700232 0.381807
vt 0.710218 0.481560
vt 0.501243 0.266005
vt 0.618378 0.268876
vt 0.513637 0.767236
vt 0.629106 0.760831
vt 0.227214 0.380403
vt 0.226607 0.490365
vt 0.906599 0.343238
vt 0.924444 0.449933
vt 0.365645 0.899354
vt 0.094680 0.628389
vt 0.055468 0.380862
vt 0.055083 0.487970
vt 0.412610 0.049073
vt 0.144680 0.163039
vt 0.523966 0.968288
vt 0.629977 0.965229
vt 0.947564 0.561892
vt 0.889898 0.832035
vt 0.494028 0.046193
vt 0.602944 0.041808
s 0
usemtl Planematerial
f 7/7/1 2/2/1 1/1/1
f 5/5/2 4/4/2 2/2/2
f 4/4/3 1/1/3 2/2/3
f 10/10/4 3/3/4 4/4/4
f 3/3/5 9/9/5 12/12/5
f 4/4/6 6/6/6 10/10/6
f 2/2/7 8/8/7 5/5/7
f 1/1/8 11/11/8 7/7/8
f 12/12/9 1/1/9 3/3/9
f 5/5/10 14/14/10 6/6/10
f 9/9/3 16/16/3 12/12/3
f 12/12/11 17/17/11 11/11/11
f 7/7/3 20/20/3 19/19/3
f 11/11/12 17/17/12 20/20/12
f 12/12/13 16/16/13 18/18/13
f 10/10/14 21/21/14 9/9/14
f 10/10/15 23/23/15 24/24/15
f 9/9/16 21/21/16 15/15/16
f 10/10/17 24/24/17 22/22/17
f 6/6/18 14/14/18 23/23/18
f 7/7/3 26/26/3 8/8/3
f 7/7/3 19/19/3 25/25/3
f 8/8/19 13/13/19 5/5/19
f 8/8/3 26/26/3 13/13/3
f 7/7/1 8/8/1 2/2/1
f 5/5/2 6/6/2 4/4/2
f 4/4/3 3/3/3 1/1/3
f 10/10/4 9/9/4 3/3/4
f 12/12/9 11/11/9 1/1/9
f 5/5/10 13/13/10 14/14/10
f 9/9/3 15/15/3 16/16/3
f 12/12/11 18/18/11 17/17/11
f 7/7/3 11/11/3 20/20/3
f 10/10/14 22/22/14 21/21/14
f 10/10/15 6/6/15 23/23/15
f 7/7/3 25/25/3 26/26/3
