# Blender 3.5.0
# www.blender.org
g ladder_hitbox_invisible_Cube
v -7.637187 -0.102174 -11.621451
v -7.637187 1.897826 -11.621451
v -7.637187 -0.102174 -15.454311
v -7.637187 1.897826 -15.454311
v 1.458088 -0.102174 -11.621451
v 1.458088 1.897826 -11.621451
v 1.458088 -0.102174 -15.454311
v 1.458088 1.897826 -15.454311
vn -1.0000 -0.0000 -0.0000
vn -0.0000 -0.0000 -1.0000
vn 1.0000 -0.0000 -0.0000
vn -0.0000 -0.0000 1.0000
vn -0.0000 -1.0000 -0.0000
vn -0.0000 1.0000 -0.0000
s 0
f 2//1 4//1 3//1 1//1
f 4//2 8//2 7//2 3//2
f 8//3 6//3 5//3 7//3
f 6//4 2//4 1//4 5//4
f 7//5 5//5 1//5 3//5
f 4//6 2//6 6//6 8//6
g cube_hitbox_invisible.003_Cube.008
v -4.485733 1.180833 0.538123
v -4.485733 1.734846 0.538123
v -4.485733 1.180833 -1.511078
v -4.485733 1.734846 -1.511078
v -3.399105 1.180833 0.538123
v -3.399105 1.734846 0.538123
v -3.399105 1.180833 -1.511078
v -3.399105 1.734846 -1.511078
vn -1.0000 -0.0000 -0.0000
vn -0.0000 -0.0000 -1.0000
vn 1.0000 -0.0000 -0.0000
vn -0.0000 -0.0000 1.0000
vn -0.0000 -1.0000 -0.0000
vn -0.0000 1.0000 -0.0000
s 0
f 10//7 12//7 11//7 9//7
f 12//8 16//8 15//8 11//8
f 16//9 14//9 13//9 15//9
f 14//10 10//10 9//10 13//10
f 15//11 13//11 9//11 11//11
f 12//12 10//12 14//12 16//12
g cube_hitbox_invisible.004_Cube.010
v -1.396194 1.145054 2.303855
v -1.396194 1.699068 2.303855
v -1.396194 1.145054 1.374938
v -1.396194 1.699068 1.374938
v -0.576393 1.145054 2.303855
v -0.576393 1.699068 2.303855
v -0.576393 1.145054 1.374938
v -0.576393 1.699068 1.374938
vn -1.0000 -0.0000 -0.0000
vn -0.0000 -0.0000 -1.0000
vn 1.0000 -0.0000 -0.0000
vn -0.0000 -0.0000 1.0000
vn -0.0000 -1.0000 -0.0000
vn -0.0000 1.0000 -0.0000
s 0
f 18//13 20//13 19//13 17//13
f 20//14 24//14 23//14 19//14
f 24//15 22//15 21//15 23//15
f 22//16 18//16 17//16 21//16
f 23//17 21//17 17//17 19//17
f 20//18 18//18 22//18 24//18
g cube_hitbox_invisible.005_Cube.011
v 0.670674 1.878630 3.838505
v 0.670674 2.432643 3.838505
v 0.670674 1.878630 2.909588
v 0.670674 2.432643 2.909588
v 1.575621 1.878630 3.838505
v 1.575621 2.432643 3.838505
v 1.575621 1.878630 2.909588
v 1.575621 2.432643 2.909588
vn -1.0000 -0.0000 -0.0000
vn -0.0000 -0.0000 -1.0000
vn 1.0000 -0.0000 -0.0000
vn -0.0000 -0.0000 1.0000
vn -0.0000 -1.0000 -0.0000
vn -0.0000 1.0000 -0.0000
s 0
f 26//19 28//19 27//19 25//19
f 28//20 32//20 31//20 27//20
f 32//21 30//21 29//21 31//21
f 30//22 26//22 25//22 29//22
f 31//23 29//23 25//23 27//23
f 28//24 26//24 30//24 32//24
g Cube.001_invisible_Cube.012
v 0.342493 -0.250000 5.741084
v 0.342493 1.612858 5.741084
v 0.342493 -0.250000 5.241084
v 0.342493 1.612858 5.241084
v 0.842493 -0.250000 5.741084
v 0.842493 1.612858 5.741084
v 0.842493 -0.250000 5.241084
v 0.842493 1.612858 5.241084
vn -1.0000 -0.0000 -0.0000
vn -0.0000 -0.0000 -1.0000
vn 1.0000 -0.0000 -0.0000
vn -0.0000 -0.0000 1.0000
vn -0.0000 -1.0000 -0.0000
vn -0.0000 1.0000 -0.0000
s 0
f 34//25 36//25 35//25 33//25
f 36//26 40//26 39//26 35//26
f 40//27 38//27 37//27 39//27
f 38//28 34//28 33//28 37//28
f 39//29 37//29 33//29 35//29
f 36//30 34//30 38//30 40//30
g Cube.001_invisible.001_Cube.013
v 2.068482 -0.499761 5.597093
v 2.068482 -0.499761 6.513908
v 2.068482 0.158707 5.597093
v 2.068482 0.158707 6.513908
v 2.721563 -0.499761 5.597093
v 2.721563 -0.499761 6.513908
v 2.721563 0.158707 5.597093
v 2.721563 0.158707 6.513908
vn 1.0000 -0.0000 -0.0000
vn -1.0000 -0.0000 -0.0000
vn -0.0000 1.0000 -0.0000
vn -0.0000 -1.0000 -0.0000
vn -0.0000 -0.0000 -1.0000
vn -0.0000 -0.0000 1.0000
s 0
f 48//31 46//31 45//31 47//31
f 42//32 44//32 43//32 41//32
f 44//33 48//33 47//33 43//33
f 46//34 42//34 41//34 45//34
f 47//35 45//35 41//35 43//35
f 44//36 42//36 46//36 48//36
g Cube.001_invisible.002_Cube.014
v 3.669989 -0.499761 5.788729
v 3.669989 -0.499761 6.194282
v 3.669989 0.447577 5.788729
v 3.669989 0.447577 6.194282
v 4.113640 -0.499761 5.788729
v 4.113640 -0.499761 6.194282
v 4.113640 0.447577 5.788729
v 4.113640 0.447577 6.194282
vn -1.0000 -0.0000 -0.0000
vn -0.0000 1.0000 -0.0000
vn 1.0000 -0.0000 -0.0000
vn -0.0000 -1.0000 -0.0000
vn -0.0000 -0.0000 -1.0000
vn -0.0000 -0.0000 1.0000
s 0
f 49//37 50//37 52//37 51//37
f 52//38 56//38 55//38 51//38
f 56//39 54//39 53//39 55//39
f 54//40 50//40 49//40 53//40
f 55//41 53//41 49//41 51//41
f 52//42 50//42 54//42 56//42
g Cube.001_invisible.003_Cube.015
v 7.277925 -0.597391 -0.367823
v 7.277925 -0.597390 0.447385
v 7.277925 0.618241 -0.367823
v 7.277925 0.618241 0.447385
v 7.721576 -0.597391 -0.367823
v 7.721576 -0.597390 0.447385
v 7.721576 0.618241 -0.367823
v 7.721576 0.618241 0.447385
vn 1.0000 -0.0000 -0.0000
vn -1.0000 -0.0000 -0.0000
vn -0.0000 1.0000 -0.0000
vn -0.0000 -1.0000 -0.0000
vn -0.0000 -0.0000 -1.0000
vn -0.0000 -0.0000 1.0000
s 0
f 63//43 64//43 62//43 61//43
f 58//44 60//44 59//44 57//44
f 60//45 64//45 63//45 59//45
f 62//46 58//46 57//46 61//46
f 63//47 61//47 57//47 59//47
f 60//48 58//48 62//48 64//48
g Cube.001_invisible.004_Cube.016
v 6.495795 -0.601539 1.499784
v 7.493093 -0.601539 2.519204
v 6.495795 0.699981 1.499784
v 7.493093 0.699981 2.519204
v 6.809504 -0.601539 1.186075
v 7.806802 -0.601539 2.205496
v 6.809504 0.699981 1.186075
v 7.806802 0.699981 2.205496
vn 0.7148 -0.0000 -0.6993
vn -0.7148 -0.0000 0.6993
vn -0.0000 1.0000 -0.0000
vn -0.0000 -1.0000 -0.0000
vn -0.7071 -0.0000 -0.7071
vn 0.7071 -0.0000 0.7071
s 0
f 72//49 70//49 69//49 71//49
f 66//50 68//50 67//50 65//50
f 67//51 68//51 72//51 71//51
f 70//52 66//52 65//52 69//52
f 71//53 69//53 65//53 67//53
f 68//54 66//54 70//54 72//54
g Cube.001_invisible.005_Cube.017
v 10.185891 -0.390315 -1.905062
v 10.185891 -0.390315 5.540544
v 10.185891 3.079954 -1.905062
v 10.185891 3.079954 5.540544
v 10.629542 -0.390315 -1.905062
v 10.629542 -0.390315 5.540544
v 10.629542 3.079954 -1.905062
v 10.629542 3.079954 5.540544
vn -1.0000 -0.0000 -0.0000
vn -0.0000 1.0000 -0.0000
vn 1.0000 -0.0000 -0.0000
vn -0.0000 -1.0000 -0.0000
vn -0.0000 -0.0000 -1.0000
vn -0.0000 -0.0000 1.0000
s 0
f 74//55 76//55 75//55 73//55
f 76//56 80//56 79//56 75//56
f 80//57 78//57 77//57 79//57
f 78//58 74//58 73//58 77//58
f 79//59 77//59 73//59 75//59
f 76//60 74//60 78//60 80//60
g Cube.001_invisible.006_Cube.018
v 10.185891 -0.390315 -9.976244
v 10.185891 -0.390315 -3.977017
v 10.185891 3.079954 -9.976244
v 10.185891 3.079954 -3.977017
v 10.629542 -0.390315 -9.976244
v 10.629542 -0.390315 -3.977017
v 10.629542 3.079954 -9.976244
v 10.629542 3.079954 -3.977017
vn -1.0000 -0.0000 -0.0000
vn -0.0000 1.0000 -0.0000
vn 1.0000 -0.0000 -0.0000
vn -0.0000 -1.0000 -0.0000
vn -0.0000 -0.0000 -1.0000
vn -0.0000 -0.0000 1.0000
s 0
f 82//61 84//61 83//61 81//61
f 84//62 88//62 87//62 83//62
f 87//63 88//63 86//63 85//63
f 86//64 82//64 81//64 85//64
f 87//65 85//65 81//65 83//65
f 84//66 82//66 86//66 88//66
g Cube.001_invisible.007_Cube.019
v 10.598433 -0.390315 -8.889026
v 20.594791 -0.390315 -8.889027
v 10.598433 3.079954 -8.889026
v 20.594791 3.079954 -8.889027
v 10.598433 -0.390315 -9.960390
v 20.594791 -0.390315 -9.960391
v 10.598433 3.079954 -9.960390
v 20.594791 3.079954 -9.960391
vn -0.0000 -0.0000 1.0000
vn -0.0000 1.0000 -0.0000
vn -0.0000 -0.0000 -1.0000
vn -0.0000 -1.0000 -0.0000
vn -1.0000 -0.0000 -0.0000
vn 1.0000 -0.0000 -0.0000
s 0
f 90//67 92//67 91//67 89//67
f 92//68 96//68 95//68 91//68
f 96//69 94//69 93//69 95//69
f 93//70 94//70 90//70 89//70
f 95//71 93//71 89//71 91//71
f 92//72 90//72 94//72 96//72
g Cube.001_invisible.008_Cube.020
v 20.530342 -0.390315 6.499990
v 20.530336 -0.390315 -8.845525
v 20.530342 3.079954 6.499990
v 20.530336 3.079954 -8.845525
v 19.458977 -0.390315 6.499991
v 19.458973 -0.390315 -8.845525
v 19.458977 3.079954 6.499990
v 19.458973 3.079954 -8.845525
vn 1.0000 -0.0000 -0.0000
vn -0.0000 1.0000 -0.0000
vn -1.0000 -0.0000 -0.0000
vn -0.0000 -1.0000 -0.0000
vn -0.0000 -0.0000 1.0000
vn -0.0000 -0.0000 -1.0000
s 0
f 98//73 100//73 99//73 97//73
f 100//74 104//74 103//74 99//74
f 103//75 104//75 102//75 101//75
f 102//76 98//76 97//76 101//76
f 103//77 101//77 97//77 99//77
f 100//78 98//78 102//78 104//78
g Cube.001_invisible.009_Cube.021
v 10.224873 -0.390315 6.575148
v 19.931429 -0.390315 6.575147
v 10.224873 3.079954 6.575148
v 19.931429 3.079954 6.575147
v 10.224873 -0.390315 5.478227
v 19.931429 -0.390315 5.478227
v 10.224873 3.079954 5.478227
v 19.931429 3.079954 5.478227
vn -0.0000 -1.0000 -0.0000
vn -0.0000 -0.0000 1.0000
vn -0.0000 1.0000 -0.0000
vn -0.0000 -0.0000 -1.0000
vn -1.0000 -0.0000 -0.0000
vn 1.0000 -0.0000 -0.0000
s 0
f 110//79 106//79 105//79 109//79
f 106//80 108//80 107//80 105//80
f 108//81 112//81 111//81 107//81
f 112//82 110//82 109//82 111//82
f 111//83 109//83 105//83 107//83
f 108//84 106//84 110//84 112//84
g Cube.001_fullhitbox_invisible.001_Cube.023
v 17.173386 1.002202 5.478812
v 17.173386 4.231160 5.478812
v 19.901596 1.002202 1.887316
v 19.901596 1.002202 5.478812
v 19.901596 4.231160 1.887317
v 19.901596 4.231160 5.478812
vn -0.7963 -0.0000 -0.6049
vn 1.0000 -0.0000 -0.0000
vn -0.0000 1.0000 -0.0000
vn -0.0000 -1.0000 -0.0000
vn -0.0000 -0.0000 1.0000
s 0
f 117//85 115//85 113//85 114//85
f 118//86 116//86 115//86 117//86
f 114//87 118//87 117//87
f 116//88 113//88 115//88
f 114//89 113//89 116//89 118//89
g Cube.001_invisible.011_Cube.001
v -1.780786 -0.250000 -5.209794
v -1.780786 1.612858 -5.209794
v -1.780786 -0.250000 -12.323769
v -1.780786 1.612858 -12.323769
v -1.280786 -0.250000 -5.209794
v -1.280786 1.612858 -5.209794
v -1.280786 -0.250000 -12.323769
v -1.280786 1.612858 -12.323769
vn -0.0000 1.0000 -0.0000
vn -1.0000 -0.0000 -0.0000
vn -0.0000 -0.0000 -1.0000
vn 1.0000 -0.0000 -0.0000
vn -0.0000 -1.0000 -0.0000
vn -0.0000 -0.0000 1.0000
s 0
f 122//90 120//90 124//90 126//90
f 120//91 122//91 121//91 119//91
f 122//92 126//92 125//92 121//92
f 126//93 124//93 123//93 125//93
f 125//94 123//94 119//94 121//94
f 124//95 120//95 119//95 123//95
g Cube.001_invisible.012_Cube.003
v -3.277146 -0.250000 -5.209794
v -3.277146 1.612858 -5.209794
v -3.277146 -0.250000 -12.323769
v -3.277146 1.612858 -12.323769
v -2.777146 -0.250000 -5.209794
v -2.777146 1.612858 -5.209794
v -2.777146 -0.250000 -12.323769
v -2.777146 1.612858 -12.323769
vn -0.0000 1.0000 -0.0000
vn -1.0000 -0.0000 -0.0000
vn -0.0000 -0.0000 -1.0000
vn 1.0000 -0.0000 -0.0000
vn -0.0000 -1.0000 -0.0000
vn -0.0000 -0.0000 1.0000
s 0
f 130//96 128//96 132//96 134//96
f 128//97 130//97 129//97 127//97
f 130//98 134//98 133//98 129//98
f 134//99 132//99 131//99 133//99
f 133//100 131//100 127//100 129//100
f 132//101 128//101 127//101 131//101
g cube_hitbox_invisible.006_Cube.026
v 10.631735 0.260092 -3.424428
v 10.631735 4.482873 -3.424428
v 3.757233 0.260092 -3.424428
v 3.757233 4.482873 -3.424428
v 10.631735 0.260092 -3.900029
v 10.631735 4.482873 -3.900029
v 3.757233 0.260092 -3.900028
v 3.757233 4.482873 -3.900028
vn -0.0000 -1.0000 -0.0000
vn -0.0000 -0.0000 1.0000
vn -0.0000 -0.0000 -1.0000
vn -1.0000 -0.0000 -0.0000
vn 1.0000 -0.0000 -0.0000
vn -0.0000 1.0000 -0.0000
s 0
f 141//102 139//102 135//102 137//102
f 136//103 138//103 137//103 135//103
f 142//104 140//104 139//104 141//104
f 138//105 142//105 141//105 137//105
f 140//106 136//106 135//106 139//106
f 138//107 136//107 140//107 142//107
g cube_hitbox_invisible.007_Cube.028
v 10.632334 0.311480 -1.876694
v 10.632334 4.559402 -1.876694
v 3.757234 0.311480 -1.876694
v 3.757234 4.559402 -1.876694
v 10.632334 0.311480 -2.352295
v 10.632334 4.559402 -2.352295
v 3.757234 0.311480 -2.352295
v 3.757234 4.559402 -2.352295
vn -0.0000 1.0000 -0.0000
vn -0.0000 -0.0000 1.0000
vn -1.0000 -0.0000 -0.0000
vn 1.0000 -0.0000 -0.0000
vn -0.0000 -1.0000 -0.0000
vn -0.0000 -0.0000 -1.0000
s 0
f 146//108 144//108 148//108 150//108
f 144//109 146//109 145//109 143//109
f 146//110 150//110 149//110 145//110
f 148//111 144//111 143//111 147//111
f 149//112 147//112 143//112 145//112
f 150//113 148//113 147//113 149//113
g cube_hitbox_invisible.009_Cube.029
v -2.714928 1.180833 2.558652
v -2.714928 4.164220 2.558652
v -4.227815 1.180833 1.176480
v -4.227815 4.164220 1.176480
v -2.038627 1.180833 1.818392
v -2.038627 4.164220 1.818392
v -3.551514 1.180833 0.436220
v -3.551514 4.164220 0.436220
vn -0.6745 -0.0000 0.7383
vn -0.7383 -0.0000 -0.6745
vn 0.6745 -0.0000 -0.7383
vn 0.7383 -0.0000 0.6745
vn -0.0000 -1.0000 -0.0000
vn -0.0000 1.0000 -0.0000
s 0
f 152//114 154//114 153//114 151//114
f 154//115 158//115 157//115 153//115
f 158//116 156//116 155//116 157//116
f 156//117 152//117 151//117 155//117
f 157//118 155//118 151//118 153//118
f 154//119 152//119 156//119 158//119
g Cube.001_fullhitbox_invisible.002_Cube.030
v 10.616550 0.908341 4.019179
v 10.616550 2.683866 4.019179
v 12.346068 0.908341 5.796657
v 10.393203 0.908341 5.502636
v 12.346068 2.683866 5.796657
v 10.393203 2.683866 5.502636
vn 0.7167 -0.0000 -0.6974
vn -0.1489 -0.0000 0.9889
vn -0.0000 1.0000 -0.0000
vn -0.0000 -1.0000 -0.0000
vn -0.9889 -0.0000 -0.1489
s 0
f 163//120 161//120 159//120 160//120
f 164//121 162//121 161//121 163//121
f 160//122 164//122 163//122
f 162//123 159//123 161//123
f 160//124 159//124 162//124 164//124
g cube_fullhitbox_invisible.001_Cube.022
v 3.702456 0.260092 -3.424428
v 3.702456 2.610450 -3.424428
v 3.702456 0.260092 -3.900029
v 3.702456 2.610450 -3.900029
v 0.324663 0.260092 -3.424428
v 0.324663 1.613602 -3.424428
v 0.324663 0.260092 -3.900028
v 0.324663 1.613602 -3.900028
vn -0.0000 -1.0000 -0.0000
vn -0.0000 -0.0000 -1.0000
vn 1.0000 -0.0000 -0.0000
vn -0.2830 0.9591 -0.0000
vn -0.0000 -0.0000 1.0000
vn -1.0000 -0.0000 -0.0000
s 0
f 171//125 167//125 165//125 169//125
f 172//126 168//126 167//126 171//126
f 168//127 166//127 165//127 167//127
f 170//128 166//128 168//128 172//128
f 166//129 170//129 169//129 165//129
f 170//130 172//130 171//130 169//130
g cube_fullhitbox_invisible.002_Cube.024
v -1.203564 0.260092 -3.424428
v -1.203564 1.418527 -3.424428
v -1.203564 0.260092 -3.900028
v -1.203564 1.418527 -3.900028
v 0.324663 0.260092 -3.424428
v 0.324663 1.608119 -3.424428
v 0.324663 0.260092 -3.900028
v 0.324663 1.608119 -3.900028
vn -0.0000 -0.0000 1.0000
vn -1.0000 -0.0000 -0.0000
vn -0.1231 0.9924 -0.0000
vn -0.0000 -0.0000 -1.0000
vn -0.0000 -1.0000 -0.0000
vn 1.0000 -0.0000 -0.0000
s 0
f 178//131 174//131 173//131 177//131
f 174//132 176//132 175//132 173//132
f 174//133 178//133 180//133 176//133
f 176//134 180//134 179//134 175//134
f 175//135 179//135 177//135 173//135
f 178//136 177//136 179//136 180//136
g cube_fullhitbox_invisible.003_Cube.025
v 3.702456 -0.018326 -1.880558
v 3.702456 1.070368 -1.880558
v 3.702456 -0.018326 -2.161091
v 3.702456 0.955131 -2.161091
v 0.007179 -0.018418 -1.880558
v 0.007179 0.131411 -1.880558
v 0.007179 -0.018418 -2.161090
v 0.007179 0.131411 -2.161090
v 2.525815 -0.018326 -1.880558
v 2.525815 0.815338 -2.161091
v 2.525815 0.930575 -1.880558
v 2.525815 -0.018326 -2.161091
vn -0.0000 -1.0000 -0.0000
vn -0.0000 -0.0000 -1.0000
vn 1.0000 -0.0000 -0.0000
vn -0.1092 0.9195 -0.3777
vn -0.0000 -0.0000 1.0000
vn -1.0000 -0.0000 -0.0000
vn -0.2771 0.9412 -0.1933
s 0
f 192//137 183//137 181//137 189//137
f 190//138 184//138 183//138 192//138
f 184//139 182//139 181//139 183//139
f 191//140 182//140 184//140 190//140
f 191//141 186//141 185//141 189//141
f 186//142 188//142 187//142 185//142
f 182//141 191//141 189//141 181//141
f 186//143 191//143 190//143 188//143
f 188//138 190//138 192//138 187//138
f 187//137 192//137 189//137 185//137
g cube_hitbox_invisible.001_Cube.032
v -3.945555 -0.308972 2.207721
v -3.945555 1.186327 2.207721
v -3.945555 -0.308972 -4.239527
v -3.945555 1.186327 -4.239527
v -3.399105 -0.308972 2.207721
v -3.399105 1.186327 2.207721
v -3.399105 -0.308972 -4.239527
v -3.399105 1.186327 -4.239527
vn -1.0000 -0.0000 -0.0000
vn -0.0000 -0.0000 -1.0000
vn 1.0000 -0.0000 -0.0000
vn -0.0000 -0.0000 1.0000
vn -0.0000 -1.0000 -0.0000
vn -0.0000 1.0000 -0.0000
s 0
f 194//144 196//144 195//144 193//144
f 196//145 200//145 199//145 195//145
f 200//146 198//146 197//146 199//146
f 198//147 194//147 193//147 197//147
f 199//148 197//148 193//148 195//148
f 196//149 194//149 198//149 200//149
g cube_hitbox_invisible.002_Cube.033
v -1.009724 -0.308972 4.393889
v -1.009724 2.148821 4.393889
v -1.009724 -0.308972 2.477181
v -1.009724 2.148821 2.477181
v -0.463275 -0.308972 4.393889
v -0.463275 2.148821 4.393889
v -0.463275 -0.308972 2.477181
v -0.463275 2.148821 2.477181
vn -1.0000 -0.0000 -0.0000
vn -0.0000 -0.0000 -1.0000
vn 1.0000 -0.0000 -0.0000
vn -0.0000 -0.0000 1.0000
vn -0.0000 -1.0000 -0.0000
vn -0.0000 1.0000 -0.0000
s 0
f 202//150 204//150 203//150 201//150
f 204//151 208//151 207//151 203//151
f 208//152 206//152 205//152 207//152
f 206//153 202//153 201//153 205//153
f 207//154 205//154 201//154 203//154
f 204//155 202//155 206//155 208//155
g cube_hitbox_invisible.008_Cube.034
v -2.515085 -0.090972 0.538123
v -2.515085 1.158571 0.538123
v -2.515085 -0.090972 -1.511078
v -2.515085 1.158571 -1.511078
v -1.428457 -0.090972 0.538123
v -1.428457 1.158571 0.538123
v -1.428457 -0.090972 -1.511078
v -1.428457 1.158571 -1.511078
vn -1.0000 -0.0000 -0.0000
vn -0.0000 -0.0000 -1.0000
vn 1.0000 -0.0000 -0.0000
vn -0.0000 -0.0000 1.0000
vn -0.0000 -1.0000 -0.0000
vn -0.0000 1.0000 -0.0000
s 0
f 210//156 212//156 211//156 209//156
f 212//157 216//157 215//157 211//157
f 216//158 214//158 213//158 215//158
f 214//159 210//159 209//159 213//159
f 215//160 213//160 209//160 211//160
f 212//161 210//161 214//161 216//161
g Cube.001_invisible.010_Cube.035
v -0.425103 -0.250000 4.287034
v -0.425103 2.080400 4.287034
v -0.425103 -0.250000 3.391973
v -0.425103 2.080400 3.391973
v 1.624478 -0.250000 4.287034
v 1.624478 2.080400 4.287034
v 1.624478 -0.250000 3.391973
v 1.624478 2.080400 3.391973
vn -1.0000 -0.0000 -0.0000
vn -0.0000 -0.0000 -1.0000
vn 1.0000 -0.0000 -0.0000
vn -0.0000 -0.0000 1.0000
vn -0.0000 -1.0000 -0.0000
vn -0.0000 1.0000 -0.0000
s 0
f 218//162 220//162 219//162 217//162
f 220//163 224//163 223//163 219//163
f 224//164 222//164 221//164 223//164
f 222//165 218//165 217//165 221//165
f 223//166 221//166 217//166 219//166
f 220//167 218//167 222//167 224//167
