{
	"asset":{
		"generator":"Khronos glTF Blender I/O v3.5.30",
		"version":"2.0"
	},
	"extensionsUsed":[
		"KHR_materials_specular"
	],
	"scene":0,
	"scenes":[
		{
			"name":"Scene",
			"nodes":[
				0
			]
		}
	],
	"nodes":[
		{
			"mesh":0,
			"name":"Gun"
		}
	],
	"materials":[
		{
			"doubleSided":true,
			"extensions":{
				"KHR_materials_specular":{
					"specularColorFactor":[
						0,
						0,
						0
					]
				}
			},
			"name":"Black",
			"pbrMetallicRoughness":{
				"baseColorFactor":[
					0.009017317555844784,
					0.009017317555844784,
					0.009017317555844784,
					1
				],
				"metallicFactor":0.3499999940395355,
				"roughnessFactor":0.5
			}
		},
		{
			"doubleSided":true,
			"extensions":{
				"KHR_materials_specular":{
					"specularColorFactor":[
						0,
						0,
						0
					]
				}
			},
			"name":"Gun_Grey",
			"pbrMetallicRoughness":{
				"baseColorFactor":[
					0.10247143357992172,
					0.10247143357992172,
					0.10247143357992172,
					1
				],
				"metallicFactor":0,
				"roughnessFactor":0.75
			}
		},
		{
			"doubleSided":true,
			"extensions":{
				"KHR_materials_specular":{
					"specularColorFactor":[
						0,
						0,
						0
					]
				}
			},
			"name":"White",
			"pbrMetallicRoughness":{
				"baseColorFactor":[
					0.564797043800354,
					0.5925737619400024,
					0.5061427354812622,
					1
				],
				"metallicFactor":0
			}
		},
		{
			"doubleSided":true,
			"extensions":{
				"KHR_materials_specular":{
					"specularColorFactor":[
						0,
						0,
						0
					]
				}
			},
			"name":"Main",
			"pbrMetallicRoughness":{
				"baseColorFactor":[
					0.0012141080806031823,
					0.3049873113632202,
					1,
					1
				],
				"metallicFactor":0.75,
				"roughnessFactor":0.5
			}
		}
	],
	"meshes":[
		{
			"name":"GunMesh",
			"primitives":[
				{
					"attributes":{
						"POSITION":0,
						"NORMAL":1
					},
					"indices":2,
					"material":0
				},
				{
					"attributes":{
						"POSITION":3,
						"NORMAL":4
					},
					"indices":5,
					"material":1
				},
				{
					"attributes":{
						"POSITION":6,
						"NORMAL":7
					},
					"indices":8,
					"material":2
				},
				{
					"attributes":{
						"POSITION":9,
						"NORMAL":10
					},
					"indices":11,
					"material":3
				}
			]
		}
	],
	"accessors":[
		{
			"bufferView":0,
			"componentType":5126,
			"count":719,
			"max":[
				0.07207978516817093,
				0.32726210355758667,
				0.7686294913291931
			],
			"min":[
				-0.07658399641513824,
				-0.1560988426208496,
				-0.22993159294128418
			],
			"type":"VEC3"
		},
		{
			"bufferView":1,
			"componentType":5126,
			"count":719,
			"type":"VEC3"
		},
		{
			"bufferView":2,
			"componentType":5123,
			"count":2136,
			"type":"SCALAR"
		},
		{
			"bufferView":3,
			"componentType":5126,
			"count":256,
			"max":[
				0.08486653119325638,
				0.32100653648376465,
				0.7287547588348389
			],
			"min":[
				-0.08875514566898346,
				-0.18851907551288605,
				-0.15669426321983337
			],
			"type":"VEC3"
		},
		{
			"bufferView":4,
			"componentType":5126,
			"count":256,
			"type":"VEC3"
		},
		{
			"bufferView":5,
			"componentType":5123,
			"count":708,
			"type":"SCALAR"
		},
		{
			"bufferView":6,
			"componentType":5126,
			"count":507,
			"max":[
				0.05528171733021736,
				0.315233439207077,
				0.6247206926345825
			],
			"min":[
				-0.05504126474261284,
				-0.16965316236019135,
				-0.14146611094474792
			],
			"type":"VEC3"
		},
		{
			"bufferView":7,
			"componentType":5126,
			"count":507,
			"type":"VEC3"
		},
		{
			"bufferView":8,
			"componentType":5123,
			"count":1758,
			"type":"SCALAR"
		},
		{
			"bufferView":9,
			"componentType":5126,
			"count":108,
			"max":[
				0.05287346988916397,
				0.315233439207077,
				0.6599951386451721
			],
			"min":[
				-0.05504126474261284,
				0.09494440257549286,
				-0.17048898339271545
			],
			"type":"VEC3"
		},
		{
			"bufferView":10,
			"componentType":5126,
			"count":108,
			"type":"VEC3"
		},
		{
			"bufferView":11,
			"componentType":5123,
			"count":306,
			"type":"SCALAR"
		}
	],
	"bufferViews":[
		{
			"buffer":0,
			"byteLength":8628,
			"byteOffset":0,
			"target":34962
		},
		{
			"buffer":0,
			"byteLength":8628,
			"byteOffset":8628,
			"target":34962
		},
		{
			"buffer":0,
			"byteLength":4272,
			"byteOffset":17256,
			"target":34963
		},
		{
			"buffer":0,
			"byteLength":3072,
			"byteOffset":21528,
			"target":34962
		},
		{
			"buffer":0,
			"byteLength":3072,
			"byteOffset":24600,
			"target":34962
		},
		{
			"buffer":0,
			"byteLength":1416,
			"byteOffset":27672,
			"target":34963
		},
		{
			"buffer":0,
			"byteLength":6084,
			"byteOffset":29088,
			"target":34962
		},
		{
			"buffer":0,
			"byteLength":6084,
			"byteOffset":35172,
			"target":34962
		},
		{
			"buffer":0,
			"byteLength":3516,
			"byteOffset":41256,
			"target":34963
		},
		{
			"buffer":0,
			"byteLength":1296,
			"byteOffset":44772,
			"target":34962
		},
		{
			"buffer":0,
			"byteLength":1296,
			"byteOffset":46068,
			"target":34962
		},
		{
			"buffer":0,
			"byteLength":612,
			"byteOffset":47364,
			"target":34963
		}
	],
	"buffers":[
		{
			"byteLength":47976,
			"uri":"data:application/octet-stream;base64,"
		}
	]
}
