{
	"asset":{
		"generator":"Khronos glTF Blender I/O v3.5.30",
		"version":"2.0"
	},
	"extensionsUsed":[
		"KHR_materials_emissive_strength"
	],
	"scene":0,
	"scenes":[
		{
			"name":"Scene",
			"nodes":[
				0,
				1,
				2,
				3,
				4
			]
		}
	],
	"nodes":[
		{
			"mesh":0,
			"name":"CarCartoon_nohitbox"
		},
		{
			"mesh":1,
			"name":"CarCartoon_Back_nohitbox",
			"translation":[
				0.0018633697181940079,
				0.14582693576812744,
				-0.4418105185031891
			]
		},
		{
			"mesh":2,
			"name":"CarCartoon_Front_R_nohitbox",
			"translation":[
				-0.359039843082428,
				0.14582695066928864,
				0.3517446219921112
			]
		},
		{
			"mesh":3,
			"name":"CarCartoon_Front_L_nohitbox",
			"translation":[
				0.36276692152023315,
				0.14582693576812744,
				0.35174450278282166
			]
		},
		{
			"mesh":4,
			"name":"_CarCartoon_fullhitbox_invisible"
		}
	],
	"materials":[
		{
			"alphaMode":"BLEND",
			"emissiveFactor":[
				1,
				1,
				1
			],
			"emissiveTexture":{
				"index":0
			},
			"extensions":{
				"KHR_materials_emissive_strength":{
					"emissiveStrength":1.5
				}
			},
			"name":"CarCartoonMat",
			"pbrMetallicRoughness":{
				"baseColorTexture":{
					"index":1
				},
				"metallicRoughnessTexture":{
					"index":2
				}
			}
		},
		{
			"alphaMode":"BLEND",
			"name":"MatInvis",
			"pbrMetallicRoughness":{
				"baseColorFactor":[
					0.8000000715255737,
					0,
					0.001030491548590362,
					0
				],
				"metallicFactor":0
			}
		}
	],
	"meshes":[
		{
			"name":"CarCartoonMesh",
			"primitives":[
				{
					"attributes":{
						"POSITION":0,
						"TEXCOORD_0":1,
						"NORMAL":2,
						"TANGENT":3
					},
					"indices":4,
					"material":0
				}
			]
		},
		{
			"name":"CarCartoonMesh.001",
			"primitives":[
				{
					"attributes":{
						"POSITION":5,
						"TEXCOORD_0":6,
						"NORMAL":7,
						"TANGENT":8
					},
					"indices":9,
					"material":0
				}
			]
		},
		{
			"name":"CarCartoonMesh.002",
			"primitives":[
				{
					"attributes":{
						"POSITION":10,
						"TEXCOORD_0":11,
						"NORMAL":12,
						"TANGENT":13
					},
					"indices":14,
					"material":0
				}
			]
		},
		{
			"name":"CarCartoonMesh.003",
			"primitives":[
				{
					"attributes":{
						"POSITION":15,
						"TEXCOORD_0":16,
						"NORMAL":17,
						"TANGENT":18
					},
					"indices":19,
					"material":0
				}
			]
		},
		{
			"name":"Cube",
			"primitives":[
				{
					"attributes":{
						"POSITION":20,
						"TEXCOORD_0":21,
						"NORMAL":22
					},
					"indices":23,
					"material":1
				}
			]
		}
	],
	"textures":[
		{
			"sampler":0,
			"source":0
		},
		{
			"sampler":0,
			"source":1
		},
		{
			"sampler":0,
			"source":2
		}
	],
	"images":[
		{
			"mimeType":"image/jpeg",
			"name":"CarCartoon_emissive",
			"uri":"CarCartoon_emissive.jpg"
		},
		{
			"mimeType":"image/jpeg",
			"name":"CarCartoon_albedo",
			"uri":"CarCartoon_albedo.jpg"
		},
		{
			"mimeType":"image/jpeg",
			"name":"CarCartoon_metallicroughness",
			"uri":"CarCartoon_metallicroughness.jpg"
		}
	],
	"accessors":[
		{
			"bufferView":0,
			"componentType":5126,
			"count":8480,
			"max":[
				0.5571576356887817,
				1.0699909925460815,
				0.8168812394142151
			],
			"min":[
				-0.5428423285484314,
				0.06999096274375916,
				-0.7831186652183533
			],
			"type":"VEC3"
		},
		{
			"bufferView":1,
			"componentType":5126,
			"count":8480,
			"type":"VEC2"
		},
		{
			"bufferView":2,
			"componentType":5126,
			"count":8480,
			"type":"VEC3"
		},
		{
			"bufferView":3,
			"componentType":5126,
			"count":8480,
			"type":"VEC4"
		},
		{
			"bufferView":4,
			"componentType":5123,
			"count":25917,
			"type":"SCALAR"
		},
		{
			"bufferView":5,
			"componentType":5126,
			"count":718,
			"max":[
				0.45493239164352417,
				0.14991414546966553,
				0.15149807929992676
			],
			"min":[
				-0.4549321234226227,
				-0.14992597699165344,
				-0.1512536108493805
			],
			"type":"VEC3"
		},
		{
			"bufferView":6,
			"componentType":5126,
			"count":718,
			"type":"VEC2"
		},
		{
			"bufferView":7,
			"componentType":5126,
			"count":718,
			"type":"VEC3"
		},
		{
			"bufferView":8,
			"componentType":5126,
			"count":718,
			"type":"VEC4"
		},
		{
			"bufferView":9,
			"componentType":5123,
			"count":1680,
			"type":"SCALAR"
		},
		{
			"bufferView":10,
			"componentType":5126,
			"count":359,
			"max":[
				0.08504331111907959,
				0.14991413056850433,
				0.1514979898929596
			],
			"min":[
				-0.09402883052825928,
				-0.14992599189281464,
				-0.1512535661458969
			],
			"type":"VEC3"
		},
		{
			"bufferView":11,
			"componentType":5126,
			"count":359,
			"type":"VEC2"
		},
		{
			"bufferView":12,
			"componentType":5126,
			"count":359,
			"type":"VEC3"
		},
		{
			"bufferView":13,
			"componentType":5126,
			"count":359,
			"type":"VEC4"
		},
		{
			"bufferView":14,
			"componentType":5123,
			"count":840,
			"type":"SCALAR"
		},
		{
			"bufferView":15,
			"componentType":5126,
			"count":359,
			"max":[
				0.09402894973754883,
				0.14991414546966553,
				0.1514979898929596
			],
			"min":[
				-0.08504343032836914,
				-0.14992597699165344,
				-0.1512535661458969
			],
			"type":"VEC3"
		},
		{
			"bufferView":16,
			"componentType":5126,
			"count":359,
			"type":"VEC2"
		},
		{
			"bufferView":17,
			"componentType":5126,
			"count":359,
			"type":"VEC3"
		},
		{
			"bufferView":18,
			"componentType":5126,
			"count":359,
			"type":"VEC4"
		},
		{
			"bufferView":19,
			"componentType":5123,
			"count":840,
			"type":"SCALAR"
		},
		{
			"bufferView":20,
			"componentType":5126,
			"count":48,
			"max":[
				0.5111810564994812,
				1,
				0.8261654376983643
			],
			"min":[
				-0.48881930112838745,
				0,
				-0.7512403726577759
			],
			"type":"VEC3"
		},
		{
			"bufferView":21,
			"componentType":5126,
			"count":48,
			"type":"VEC2"
		},
		{
			"bufferView":22,
			"componentType":5126,
			"count":48,
			"type":"VEC3"
		},
		{
			"bufferView":23,
			"componentType":5123,
			"count":84,
			"type":"SCALAR"
		}
	],
	"bufferViews":[
		{
			"buffer":0,
			"byteLength":101760,
			"byteOffset":0,
			"target":34962
		},
		{
			"buffer":0,
			"byteLength":67840,
			"byteOffset":101760,
			"target":34962
		},
		{
			"buffer":0,
			"byteLength":101760,
			"byteOffset":169600,
			"target":34962
		},
		{
			"buffer":0,
			"byteLength":135680,
			"byteOffset":271360,
			"target":34962
		},
		{
			"buffer":0,
			"byteLength":51834,
			"byteOffset":407040,
			"target":34963
		},
		{
			"buffer":0,
			"byteLength":8616,
			"byteOffset":458876,
			"target":34962
		},
		{
			"buffer":0,
			"byteLength":5744,
			"byteOffset":467492,
			"target":34962
		},
		{
			"buffer":0,
			"byteLength":8616,
			"byteOffset":473236,
			"target":34962
		},
		{
			"buffer":0,
			"byteLength":11488,
			"byteOffset":481852,
			"target":34962
		},
		{
			"buffer":0,
			"byteLength":3360,
			"byteOffset":493340,
			"target":34963
		},
		{
			"buffer":0,
			"byteLength":4308,
			"byteOffset":496700,
			"target":34962
		},
		{
			"buffer":0,
			"byteLength":2872,
			"byteOffset":501008,
			"target":34962
		},
		{
			"buffer":0,
			"byteLength":4308,
			"byteOffset":503880,
			"target":34962
		},
		{
			"buffer":0,
			"byteLength":5744,
			"byteOffset":508188,
			"target":34962
		},
		{
			"buffer":0,
			"byteLength":1680,
			"byteOffset":513932,
			"target":34963
		},
		{
			"buffer":0,
			"byteLength":4308,
			"byteOffset":515612,
			"target":34962
		},
		{
			"buffer":0,
			"byteLength":2872,
			"byteOffset":519920,
			"target":34962
		},
		{
			"buffer":0,
			"byteLength":4308,
			"byteOffset":522792,
			"target":34962
		},
		{
			"buffer":0,
			"byteLength":5744,
			"byteOffset":527100,
			"target":34962
		},
		{
			"buffer":0,
			"byteLength":1680,
			"byteOffset":532844,
			"target":34963
		},
		{
			"buffer":0,
			"byteLength":576,
			"byteOffset":534524,
			"target":34962
		},
		{
			"buffer":0,
			"byteLength":384,
			"byteOffset":535100,
			"target":34962
		},
		{
			"buffer":0,
			"byteLength":576,
			"byteOffset":535484,
			"target":34962
		},
		{
			"buffer":0,
			"byteLength":168,
			"byteOffset":536060,
			"target":34963
		}
	],
	"samplers":[
		{
			"magFilter":9729,
			"minFilter":9987
		}
	],
	"buffers":[
		{
			"byteLength":536228,
			"uri":"CarCartoon.bin"
		}
	]
}
