{
	"asset":{
		"generator":"Khronos glTF Blender I/O v3.5.30",
		"version":"2.0"
	},
	"scene":0,
	"scenes":[
		{
			"name":"Scene",
			"nodes":[
				0,
				1,
				2,
				3
			]
		}
	],
	"nodes":[
		{
			"mesh":0,
			"name":"03_Body"
		},
		{
			"mesh":1,
			"name":"01_WheelsFront_Left",
			"translation":[
				0.5292418003082275,
				0.2201894223690033,
				0.7676152586936951
			]
		},
		{
			"mesh":2,
			"name":"02_WheelsBack",
			"translation":[
				0,
				0.2201894223690033,
				-0.9533151984214783
			]
		},
		{
			"mesh":3,
			"name":"01_WheelsFront_Right",
			"translation":[
				-0.5292417407035828,
				0.2201894223690033,
				0.7676152586936951
			]
		}
	],
	"materials":[
		{
			"name":"mt_palette_main",
			"pbrMetallicRoughness":{
				"baseColorTexture":{
					"index":0
				},
				"metallicFactor":0.10000000149011612,
				"roughnessFactor":0.6600000262260437
			}
		},
		{
			"alphaMode":"BLEND",
			"name":"mt_palette_glass",
			"pbrMetallicRoughness":{
				"baseColorFactor":[
					0.800000011920929,
					0.800000011920929,
					0.800000011920929,
					0.25
				],
				"metallicFactor":0.10000000149011612,
				"roughnessFactor":0.33000001311302185
			}
		}
	],
	"meshes":[
		{
			"name":"Cube.001",
			"primitives":[
				{
					"attributes":{
						"POSITION":0,
						"TEXCOORD_0":1,
						"NORMAL":2,
						"TANGENT":3
					},
					"indices":4,
					"material":0
				},
				{
					"attributes":{
						"POSITION":5,
						"TEXCOORD_0":6,
						"NORMAL":7,
						"TANGENT":8
					},
					"indices":9,
					"material":1
				}
			]
		},
		{
			"name":"Cylinder.002",
			"primitives":[
				{
					"attributes":{
						"POSITION":10,
						"TEXCOORD_0":11,
						"NORMAL":12,
						"TANGENT":13
					},
					"indices":14,
					"material":0
				}
			]
		},
		{
			"name":"Cylinder.004",
			"primitives":[
				{
					"attributes":{
						"POSITION":15,
						"TEXCOORD_0":16,
						"NORMAL":17,
						"TANGENT":18
					},
					"indices":19,
					"material":0
				}
			]
		},
		{
			"name":"Cylinder.005",
			"primitives":[
				{
					"attributes":{
						"POSITION":20,
						"TEXCOORD_0":21,
						"NORMAL":22,
						"TANGENT":23
					},
					"indices":24,
					"material":0
				}
			]
		}
	],
	"textures":[
		{
			"sampler":0,
			"source":0
		}
	],
	"images":[
		{
			"mimeType":"image/jpeg",
			"name":"CarLowPoly",
			"uri":"CarLowPoly.jpg"
		}
	],
	"accessors":[
		{
			"bufferView":0,
			"componentType":5126,
			"count":9092,
			"max":[
				0.666923999786377,
				0.800632119178772,
				1.5554124116897583
			],
			"min":[
				-0.666923999786377,
				0.1001642569899559,
				-1.4754621982574463
			],
			"type":"VEC3"
		},
		{
			"bufferView":1,
			"componentType":5126,
			"count":9092,
			"type":"VEC2"
		},
		{
			"bufferView":2,
			"componentType":5126,
			"count":9092,
			"type":"VEC3"
		},
		{
			"bufferView":3,
			"componentType":5126,
			"count":9092,
			"type":"VEC4"
		},
		{
			"bufferView":4,
			"componentType":5123,
			"count":18516,
			"type":"SCALAR"
		},
		{
			"bufferView":5,
			"componentType":5126,
			"count":154,
			"max":[
				0.46075066924095154,
				0.7900458574295044,
				0.550892174243927
			],
			"min":[
				-0.46075066924095154,
				0.5444804430007935,
				-0.5944838523864746
			],
			"type":"VEC3"
		},
		{
			"bufferView":6,
			"componentType":5126,
			"count":154,
			"type":"VEC2"
		},
		{
			"bufferView":7,
			"componentType":5126,
			"count":154,
			"type":"VEC3"
		},
		{
			"bufferView":8,
			"componentType":5126,
			"count":154,
			"type":"VEC4"
		},
		{
			"bufferView":9,
			"componentType":5123,
			"count":270,
			"type":"SCALAR"
		},
		{
			"bufferView":10,
			"componentType":5126,
			"count":782,
			"max":[
				0.11533509194850922,
				0.2240794599056244,
				0.22407950460910797
			],
			"min":[
				-0.08840636909008026,
				-0.22407948970794678,
				-0.22407947480678558
			],
			"type":"VEC3"
		},
		{
			"bufferView":11,
			"componentType":5126,
			"count":782,
			"type":"VEC2"
		},
		{
			"bufferView":12,
			"componentType":5126,
			"count":782,
			"type":"VEC3"
		},
		{
			"bufferView":13,
			"componentType":5126,
			"count":782,
			"type":"VEC4"
		},
		{
			"bufferView":14,
			"componentType":5123,
			"count":1812,
			"type":"SCALAR"
		},
		{
			"bufferView":15,
			"componentType":5126,
			"count":1564,
			"max":[
				0.6445772647857666,
				0.2240794599056244,
				0.22407950460910797
			],
			"min":[
				-0.6445766091346741,
				-0.22407948970794678,
				-0.2240794152021408
			],
			"type":"VEC3"
		},
		{
			"bufferView":16,
			"componentType":5126,
			"count":1564,
			"type":"VEC2"
		},
		{
			"bufferView":17,
			"componentType":5126,
			"count":1564,
			"type":"VEC3"
		},
		{
			"bufferView":18,
			"componentType":5126,
			"count":1564,
			"type":"VEC4"
		},
		{
			"bufferView":19,
			"componentType":5123,
			"count":3624,
			"type":"SCALAR"
		},
		{
			"bufferView":20,
			"componentType":5126,
			"count":782,
			"max":[
				0.08840632438659668,
				0.2240794599056244,
				0.22407950460910797
			],
			"min":[
				-0.11533522605895996,
				-0.22407948970794678,
				-0.22407947480678558
			],
			"type":"VEC3"
		},
		{
			"bufferView":21,
			"componentType":5126,
			"count":782,
			"type":"VEC2"
		},
		{
			"bufferView":22,
			"componentType":5126,
			"count":782,
			"type":"VEC3"
		},
		{
			"bufferView":23,
			"componentType":5126,
			"count":782,
			"type":"VEC4"
		},
		{
			"bufferView":24,
			"componentType":5123,
			"count":1812,
			"type":"SCALAR"
		}
	],
	"bufferViews":[
		{
			"buffer":0,
			"byteLength":109104,
			"byteOffset":0,
			"target":34962
		},
		{
			"buffer":0,
			"byteLength":72736,
			"byteOffset":109104,
			"target":34962
		},
		{
			"buffer":0,
			"byteLength":109104,
			"byteOffset":181840,
			"target":34962
		},
		{
			"buffer":0,
			"byteLength":145472,
			"byteOffset":290944,
			"target":34962
		},
		{
			"buffer":0,
			"byteLength":37032,
			"byteOffset":436416,
			"target":34963
		},
		{
			"buffer":0,
			"byteLength":1848,
			"byteOffset":473448,
			"target":34962
		},
		{
			"buffer":0,
			"byteLength":1232,
			"byteOffset":475296,
			"target":34962
		},
		{
			"buffer":0,
			"byteLength":1848,
			"byteOffset":476528,
			"target":34962
		},
		{
			"buffer":0,
			"byteLength":2464,
			"byteOffset":478376,
			"target":34962
		},
		{
			"buffer":0,
			"byteLength":540,
			"byteOffset":480840,
			"target":34963
		},
		{
			"buffer":0,
			"byteLength":9384,
			"byteOffset":481380,
			"target":34962
		},
		{
			"buffer":0,
			"byteLength":6256,
			"byteOffset":490764,
			"target":34962
		},
		{
			"buffer":0,
			"byteLength":9384,
			"byteOffset":497020,
			"target":34962
		},
		{
			"buffer":0,
			"byteLength":12512,
			"byteOffset":506404,
			"target":34962
		},
		{
			"buffer":0,
			"byteLength":3624,
			"byteOffset":518916,
			"target":34963
		},
		{
			"buffer":0,
			"byteLength":18768,
			"byteOffset":522540,
			"target":34962
		},
		{
			"buffer":0,
			"byteLength":12512,
			"byteOffset":541308,
			"target":34962
		},
		{
			"buffer":0,
			"byteLength":18768,
			"byteOffset":553820,
			"target":34962
		},
		{
			"buffer":0,
			"byteLength":25024,
			"byteOffset":572588,
			"target":34962
		},
		{
			"buffer":0,
			"byteLength":7248,
			"byteOffset":597612,
			"target":34963
		},
		{
			"buffer":0,
			"byteLength":9384,
			"byteOffset":604860,
			"target":34962
		},
		{
			"buffer":0,
			"byteLength":6256,
			"byteOffset":614244,
			"target":34962
		},
		{
			"buffer":0,
			"byteLength":9384,
			"byteOffset":620500,
			"target":34962
		},
		{
			"buffer":0,
			"byteLength":12512,
			"byteOffset":629884,
			"target":34962
		},
		{
			"buffer":0,
			"byteLength":3624,
			"byteOffset":642396,
			"target":34963
		}
	],
	"samplers":[
		{
			"magFilter":9729,
			"minFilter":9987
		}
	],
	"buffers":[
		{
			"byteLength":646020,
			"uri":"CarLowPoly.bin"
		}
	]
}
