{
	"asset":{
		"generator":"Khronos glTF Blender I/O v3.5.30",
		"version":"2.0"
	},
	"extensionsUsed":[
		"KHR_materials_specular",
		"KHR_materials_ior"
	],
	"scene":0,
	"scenes":[
		{
			"name":"Scene",
			"nodes":[
				0,
				1,
				2,
				3,
				4,
				5
			]
		}
	],
	"nodes":[
		{
			"mesh":0,
			"name":"02_wheels_back_nohitbox",
			"translation":[
				-0.0001690251665422693,
				0.07960803806781769,
				-0.2999742925167084
			]
		},
		{
			"mesh":1,
			"name":"03_wheels_front_L_nohitbox",
			"translation":[
				0.17506606876850128,
				0.076229028403759,
				0.27312594652175903
			]
		},
		{
			"mesh":2,
			"name":"04_wheels_front_R_nohitbox",
			"translation":[
				-0.17540520429611206,
				0.07531481236219406,
				0.27312594652175903
			]
		},
		{
			"mesh":3,
			"name":"01_body_nohitbox"
		},
		{
			"mesh":4,
			"name":"05_glass_nohitbox"
		},
		{
			"mesh":5,
			"name":"06_fullhitbox_invisible",
			"scale":[
				0.25,
				0.25,
				0.25
			],
			"translation":[
				0,
				0.25,
				0
			]
		}
	],
	"materials":[
		{
			"extensions":{
				"KHR_materials_specular":{
					"specularColorFactor":[
						1.0,
						1.0,
						1.0
					]
				},
				"KHR_materials_ior":{
					"ior":1.4500000476837158
				}
			},
			"name":"car_body",
			"normalTexture":{
				"index":0
			},
			"occlusionTexture":{
				"index":1
			},
			"pbrMetallicRoughness":{
				"baseColorTexture":{
					"index":2
				},
				"metallicRoughnessTexture":{
					"index":1
				}
			}
		},
		{
			"alphaMode":"BLEND",
			"doubleSided":true,
			"name":"car_glass",
			"pbrMetallicRoughness":{
				"baseColorFactor":[
					0,
					0,
					0,
					0.10000000149011612
				],
				"metallicFactor":0.5,
				"roughnessFactor":0.25
			}
		},
		{
			"alphaMode":"BLEND",
			"name":"HitboxMaterial",
			"pbrMetallicRoughness":{
				"baseColorFactor":[
					0.8000000715255737,
					0,
					0.009379168041050434,
					0
				],
				"metallicFactor":0
			}
		}
	],
	"meshes":[
		{
			"name":"02_wb_mesh",
			"primitives":[
				{
					"attributes":{
						"POSITION":0,
						"TEXCOORD_0":1,
						"TEXCOORD_1":2,
						"TEXCOORD_2":3,
						"NORMAL":4,
						"TANGENT":5
					},
					"indices":6,
					"material":0
				}
			]
		},
		{
			"name":"03_wf_l",
			"primitives":[
				{
					"attributes":{
						"POSITION":7,
						"TEXCOORD_0":8,
						"TEXCOORD_1":9,
						"TEXCOORD_2":10,
						"NORMAL":11,
						"TANGENT":12
					},
					"indices":13,
					"material":0
				}
			]
		},
		{
			"name":"04_wf_r",
			"primitives":[
				{
					"attributes":{
						"POSITION":14,
						"TEXCOORD_0":15,
						"TEXCOORD_1":16,
						"TEXCOORD_2":17,
						"NORMAL":18,
						"TANGENT":19
					},
					"indices":20,
					"material":0
				}
			]
		},
        {
			"name":"01_bodymesh",
			"primitives":[
				{
					"attributes":{
						"POSITION":26,
						"TEXCOORD_0":27,
						"TEXCOORD_1":28,
						"TEXCOORD_2":29,
						"NORMAL":30,
						"TANGENT":31
					},
					"indices":32,
					"material":0
				}
			]
		},
		{
			"name":"05_glassmesh",
			"primitives":[
				{
					"attributes":{
						"POSITION":21,
						"TEXCOORD_0":22,
						"NORMAL":23,
						"TANGENT":24
					},
					"indices":25,
					"material":1
				}
			]
		},
		{
			"name":"06",
			"primitives":[
				{
					"attributes":{
						"POSITION":33,
						"TEXCOORD_0":34,
						"NORMAL":35
					},
					"indices":36,
					"material":2
				}
			]
		}
	],
	"textures":[
		{
			"sampler":0,
			"source":0
		},
		{
			"sampler":0,
			"source":1
		},
		{
			"sampler":0,
			"source":2
		}
	],
	"images":[
		{
			"mimeType":"image/jpeg",
			"name":"CarSports_normal",
			"uri":"CarSports_normal.jpg"
		},
		{
			"mimeType":"image/jpeg",
			"name":"CarSports_metallicroughness",
			"uri":"CarSports_metallicroughness.jpg"
		},
		{
			"mimeType":"image/jpeg",
			"name":"CarSports_albedo",
			"uri":"CarSports_albedo.jpg"
		}
	],
	"accessors":[
		{
			"bufferView":0,
			"componentType":5126,
			"count":7714,
			"max":[
				0.23966188728809357,
				0.07961288094520569,
				0.0786789208650589
			],
			"min":[
				-0.23966169357299805,
				-0.07964673638343811,
				-0.07869192957878113
			],
			"type":"VEC3"
		},
		{
			"bufferView":1,
			"componentType":5126,
			"count":7714,
			"type":"VEC2"
		},
		{
			"bufferView":2,
			"componentType":5126,
			"count":7714,
			"type":"VEC2"
		},
		{
			"bufferView":3,
			"componentType":5126,
			"count":7714,
			"type":"VEC2"
		},
		{
			"bufferView":4,
			"componentType":5126,
			"count":7714,
			"type":"VEC3"
		},
		{
			"bufferView":5,
			"componentType":5126,
			"count":7714,
			"type":"VEC4"
		},
		{
			"bufferView":6,
			"componentType":5123,
			"count":29880,
			"type":"SCALAR"
		},
		{
			"bufferView":7,
			"componentType":5126,
			"count":3873,
			"max":[
				0.039866358041763306,
				0.0758197084069252,
				0.07455062866210938
			],
			"min":[
				-0.041806355118751526,
				-0.07587145268917084,
				-0.07456347346305847
			],
			"type":"VEC3"
		},
		{
			"bufferView":8,
			"componentType":5126,
			"count":3873,
			"type":"VEC2"
		},
		{
			"bufferView":9,
			"componentType":5126,
			"count":3873,
			"type":"VEC2"
		},
		{
			"bufferView":10,
			"componentType":5126,
			"count":3873,
			"type":"VEC2"
		},
		{
			"bufferView":11,
			"componentType":5126,
			"count":3873,
			"type":"VEC3"
		},
		{
			"bufferView":12,
			"componentType":5126,
			"count":3873,
			"type":"VEC4"
		},
		{
			"bufferView":13,
			"componentType":5123,
			"count":14874,
			"type":"SCALAR"
		},
		{
			"bufferView":14,
			"componentType":5126,
			"count":3873,
			"max":[
				0.04180639982223511,
				0.0758197233080864,
				0.07455062866210938
			],
			"min":[
				-0.039866283535957336,
				-0.07587142288684845,
				-0.07456344366073608
			],
			"type":"VEC3"
		},
		{
			"bufferView":15,
			"componentType":5126,
			"count":3873,
			"type":"VEC2"
		},
		{
			"bufferView":16,
			"componentType":5126,
			"count":3873,
			"type":"VEC2"
		},
		{
			"bufferView":17,
			"componentType":5126,
			"count":3873,
			"type":"VEC2"
		},
		{
			"bufferView":18,
			"componentType":5126,
			"count":3873,
			"type":"VEC3"
		},
		{
			"bufferView":19,
			"componentType":5126,
			"count":3873,
			"type":"VEC4"
		},
		{
			"bufferView":20,
			"componentType":5123,
			"count":14874,
			"type":"SCALAR"
		},
		{
			"bufferView":21,
			"componentType":5126,
			"count":883,
			"max":[
				0.20149219036102295,
				0.23474079370498657,
				0.47331494092941284
			],
			"min":[
				-0.20223641395568848,
				0.09468746185302734,
				-0.46559789776802063
			],
			"type":"VEC3"
		},
		{
			"bufferView":22,
			"componentType":5126,
			"count":883,
			"type":"VEC2"
		},
		{
			"bufferView":23,
			"componentType":5126,
			"count":883,
			"type":"VEC3"
		},
		{
			"bufferView":24,
			"componentType":5126,
			"count":883,
			"type":"VEC4"
		},
		{
			"bufferView":25,
			"componentType":5123,
			"count":2460,
			"type":"SCALAR"
		},
		{
			"bufferView":26,
			"componentType":5126,
			"count":32812,
			"max":[
				0.23733139038085938,
				0.2556355595588684,
				0.5081164240837097
			],
			"min":[
				-0.23766858875751495,
				0.01063553337007761,
				-0.49188363552093506
			],
			"type":"VEC3"
		},
		{
			"bufferView":27,
			"componentType":5126,
			"count":32812,
			"type":"VEC2"
		},
		{
			"bufferView":28,
			"componentType":5126,
			"count":32812,
			"type":"VEC2"
		},
		{
			"bufferView":29,
			"componentType":5126,
			"count":32812,
			"type":"VEC2"
		},
		{
			"bufferView":30,
			"componentType":5126,
			"count":32812,
			"type":"VEC3"
		},
		{
			"bufferView":31,
			"componentType":5126,
			"count":32812,
			"type":"VEC4"
		},
		{
			"bufferView":32,
			"componentType":5123,
			"count":132312,
			"type":"SCALAR"
		},
		{
			"bufferView":33,
			"componentType":5126,
			"count":48,
			"max":[
				0.9199999570846558,
				0.0304335355758667,
				2.0399999618530273
			],
			"min":[
				-0.9199999570846558,
				-1,
				-1.959999918937683
			],
			"type":"VEC3"
		},
		{
			"bufferView":34,
			"componentType":5126,
			"count":48,
			"type":"VEC2"
		},
		{
			"bufferView":35,
			"componentType":5126,
			"count":48,
			"type":"VEC3"
		},
		{
			"bufferView":36,
			"componentType":5123,
			"count":84,
			"type":"SCALAR"
		}
	],
	"bufferViews":[
		{
			"buffer":0,
			"byteLength":92568,
			"byteOffset":0,
			"target":34962
		},
		{
			"buffer":0,
			"byteLength":61712,
			"byteOffset":92568,
			"target":34962
		},
		{
			"buffer":0,
			"byteLength":61712,
			"byteOffset":154280,
			"target":34962
		},
		{
			"buffer":0,
			"byteLength":61712,
			"byteOffset":215992,
			"target":34962
		},
		{
			"buffer":0,
			"byteLength":92568,
			"byteOffset":277704,
			"target":34962
		},
		{
			"buffer":0,
			"byteLength":123424,
			"byteOffset":370272,
			"target":34962
		},
		{
			"buffer":0,
			"byteLength":59760,
			"byteOffset":493696,
			"target":34963
		},
		{
			"buffer":0,
			"byteLength":46476,
			"byteOffset":553456,
			"target":34962
		},
		{
			"buffer":0,
			"byteLength":30984,
			"byteOffset":599932,
			"target":34962
		},
		{
			"buffer":0,
			"byteLength":30984,
			"byteOffset":630916,
			"target":34962
		},
		{
			"buffer":0,
			"byteLength":30984,
			"byteOffset":661900,
			"target":34962
		},
		{
			"buffer":0,
			"byteLength":46476,
			"byteOffset":692884,
			"target":34962
		},
		{
			"buffer":0,
			"byteLength":61968,
			"byteOffset":739360,
			"target":34962
		},
		{
			"buffer":0,
			"byteLength":29748,
			"byteOffset":801328,
			"target":34963
		},
		{
			"buffer":0,
			"byteLength":46476,
			"byteOffset":831076,
			"target":34962
		},
		{
			"buffer":0,
			"byteLength":30984,
			"byteOffset":877552,
			"target":34962
		},
		{
			"buffer":0,
			"byteLength":30984,
			"byteOffset":908536,
			"target":34962
		},
		{
			"buffer":0,
			"byteLength":30984,
			"byteOffset":939520,
			"target":34962
		},
		{
			"buffer":0,
			"byteLength":46476,
			"byteOffset":970504,
			"target":34962
		},
		{
			"buffer":0,
			"byteLength":61968,
			"byteOffset":1016980,
			"target":34962
		},
		{
			"buffer":0,
			"byteLength":29748,
			"byteOffset":1078948,
			"target":34963
		},
		{
			"buffer":0,
			"byteLength":10596,
			"byteOffset":1108696,
			"target":34962
		},
		{
			"buffer":0,
			"byteLength":7064,
			"byteOffset":1119292,
			"target":34962
		},
		{
			"buffer":0,
			"byteLength":10596,
			"byteOffset":1126356,
			"target":34962
		},
		{
			"buffer":0,
			"byteLength":14128,
			"byteOffset":1136952,
			"target":34962
		},
		{
			"buffer":0,
			"byteLength":4920,
			"byteOffset":1151080,
			"target":34963
		},
		{
			"buffer":0,
			"byteLength":393744,
			"byteOffset":1156000,
			"target":34962
		},
		{
			"buffer":0,
			"byteLength":262496,
			"byteOffset":1549744,
			"target":34962
		},
		{
			"buffer":0,
			"byteLength":262496,
			"byteOffset":1812240,
			"target":34962
		},
		{
			"buffer":0,
			"byteLength":262496,
			"byteOffset":2074736,
			"target":34962
		},
		{
			"buffer":0,
			"byteLength":393744,
			"byteOffset":2337232,
			"target":34962
		},
		{
			"buffer":0,
			"byteLength":524992,
			"byteOffset":2730976,
			"target":34962
		},
		{
			"buffer":0,
			"byteLength":264624,
			"byteOffset":3255968,
			"target":34963
		},
		{
			"buffer":0,
			"byteLength":576,
			"byteOffset":3520592,
			"target":34962
		},
		{
			"buffer":0,
			"byteLength":384,
			"byteOffset":3521168,
			"target":34962
		},
		{
			"buffer":0,
			"byteLength":576,
			"byteOffset":3521552,
			"target":34962
		},
		{
			"buffer":0,
			"byteLength":168,
			"byteOffset":3522128,
			"target":34963
		}
	],
	"samplers":[
		{
			"magFilter":9729,
			"minFilter":9987
		}
	],
	"buffers":[
		{
			"byteLength":3522296,
			"uri":"CarSports.bin"
		}
	]
}
