{
	"asset":{
		"generator":"Khronos glTF Blender I/O v3.5.30",
		"version":"2.0"
	},
	"scene":0,
	"scenes":[
		{
			"name":"Scene",
			"nodes":[
				0
			]
		}
	],
	"nodes":[
		{
			"mesh":0,
			"name":"Planetest_fullhitbox"
		}
	],
	"meshes":[
		{
			"name":"Plane",
			"primitives":[
				{
					"attributes":{
						"POSITION":0,
						"TEXCOORD_0":1,
						"NORMAL":2,
						"TANGENT":3
					},
					"indices":4
				}
			]
		}
	],
	"accessors":[
		{
			"bufferView":0,
			"componentType":5126,
			"count":32,
			"max":[
				2,
				2,
				3
			],
			"min":[
				-6,
				0,
				-6
			],
			"type":"VEC3"
		},
		{
			"bufferView":1,
			"componentType":5126,
			"count":32,
			"type":"VEC2"
		},
		{
			"bufferView":2,
			"componentType":5126,
			"count":32,
			"type":"VEC3"
		},
		{
			"bufferView":3,
			"componentType":5126,
			"count":32,
			"type":"VEC4"
		},
		{
			"bufferView":4,
			"componentType":5123,
			"count":42,
			"type":"SCALAR"
		}
	],
	"bufferViews":[
		{
			"buffer":0,
			"byteLength":384,
			"byteOffset":0,
			"target":34962
		},
		{
			"buffer":0,
			"byteLength":256,
			"byteOffset":384,
			"target":34962
		},
		{
			"buffer":0,
			"byteLength":384,
			"byteOffset":640,
			"target":34962
		},
		{
			"buffer":0,
			"byteLength":512,
			"byteOffset":1024,
			"target":34962
		},
		{
			"buffer":0,
			"byteLength":84,
			"byteOffset":1536,
			"target":34963
		}
	],
	"buffers":[
		{
			"byteLength":1620,
			"uri":"PlaneCollider.bin"
		}
	]
}
