{
	"asset":{
		"generator":"Khronos glTF Blender I/O v3.5.30",
		"version":"2.0"
	},
	"scene":0,
	"scenes":[
		{
			"name":"Scene",
			"nodes":[
				0
			]
		}
	],
	"nodes":[
		{
			"mesh":0,
			"name":"Sword"
		}
	],
	"materials":[
		{
			"doubleSided":true,
			"name":"Aeons",
			"normalTexture":{
				"index":0
			},
			"pbrMetallicRoughness":{
				"baseColorTexture":{
					"index":1
				},
				"metallicRoughnessTexture":{
					"index":2
				}
			}
		},
		{
			"alphaMode":"BLEND",
			"doubleSided":true,
			"emissiveFactor":[
				1,
				1,
				1
			],
			"emissiveTexture":{
				"index":3
			},
			"name":"Glow",
			"pbrMetallicRoughness":{
				"baseColorTexture":{
					"index":4
				},
				"metallicFactor":0
			}
		}
	],
	"meshes":[
		{
			"name":"polySurface1168_Aeons_0",
			"primitives":[
				{
					"attributes":{
						"POSITION":0,
						"TEXCOORD_0":1,
						"TEXCOORD_1":2,
						"NORMAL":3,
						"TANGENT":4
					},
					"indices":5,
					"material":0
				},
				{
					"attributes":{
						"POSITION":6,
						"TEXCOORD_0":7,
						"TEXCOORD_1":8,
						"NORMAL":9,
						"TANGENT":10
					},
					"indices":11,
					"material":1
				}
			]
		}
	],
	"textures":[
		{
			"sampler":0,
			"source":0
		},
		{
			"sampler":0,
			"source":1
		},
		{
			"sampler":0,
			"source":2
		},
		{
			"sampler":0,
			"source":3
		},
		{
			"sampler":0,
			"source":4
		}
	],
	"images":[
		{
			"mimeType":"image/png",
			"name":"Image_2",
			"uri":"sword_normal.png"
		},
		{
			"mimeType":"image/png",
			"name":"Image_0",
			"uri":"sword_albedo.png"
		},
		{
			"mimeType":"image/png",
			"name":"Image_1",
			"uri":"sword_metallicroughness.png"
		},
		{
			"mimeType":"image/png",
			"name":"Image_4",
			"uri":"sword_emissive.png"
		},
		{
			"mimeType":"image/png",
			"name":"Image_3",
			"uri":"sword_albedo2.png"
		}
	],
	"accessors":[
		{
			"bufferView":0,
			"componentType":5126,
			"count":4607,
			"max":[
				0.1940201371908188,
				0.051690224558115005,
				0.9556993246078491
			],
			"min":[
				-0.19339989125728607,
				-0.05169358476996422,
				-0.38040027022361755
			],
			"type":"VEC3"
		},
		{
			"bufferView":1,
			"componentType":5126,
			"count":4607,
			"type":"VEC2"
		},
		{
			"bufferView":2,
			"componentType":5126,
			"count":4607,
			"type":"VEC2"
		},
		{
			"bufferView":3,
			"componentType":5126,
			"count":4607,
			"type":"VEC3"
		},
		{
			"bufferView":4,
			"componentType":5126,
			"count":4607,
			"type":"VEC4"
		},
		{
			"bufferView":5,
			"componentType":5123,
			"count":23376,
			"type":"SCALAR"
		},
		{
			"bufferView":6,
			"componentType":5126,
			"count":92,
			"max":[
				0.06253847479820251,
				0.032239340245723724,
				0.49831971526145935
			],
			"min":[
				-0.07703392952680588,
				-0.03223935142159462,
				-0.36994558572769165
			],
			"type":"VEC3"
		},
		{
			"bufferView":7,
			"componentType":5126,
			"count":92,
			"type":"VEC2"
		},
		{
			"bufferView":8,
			"componentType":5126,
			"count":92,
			"type":"VEC2"
		},
		{
			"bufferView":9,
			"componentType":5126,
			"count":92,
			"type":"VEC3"
		},
		{
			"bufferView":10,
			"componentType":5126,
			"count":92,
			"type":"VEC4"
		},
		{
			"bufferView":11,
			"componentType":5123,
			"count":444,
			"type":"SCALAR"
		}
	],
	"bufferViews":[
		{
			"buffer":0,
			"byteLength":55284,
			"byteOffset":0,
			"target":34962
		},
		{
			"buffer":0,
			"byteLength":36856,
			"byteOffset":55284,
			"target":34962
		},
		{
			"buffer":0,
			"byteLength":36856,
			"byteOffset":92140,
			"target":34962
		},
		{
			"buffer":0,
			"byteLength":55284,
			"byteOffset":128996,
			"target":34962
		},
		{
			"buffer":0,
			"byteLength":73712,
			"byteOffset":184280,
			"target":34962
		},
		{
			"buffer":0,
			"byteLength":46752,
			"byteOffset":257992,
			"target":34963
		},
		{
			"buffer":0,
			"byteLength":1104,
			"byteOffset":304744,
			"target":34962
		},
		{
			"buffer":0,
			"byteLength":736,
			"byteOffset":305848,
			"target":34962
		},
		{
			"buffer":0,
			"byteLength":736,
			"byteOffset":306584,
			"target":34962
		},
		{
			"buffer":0,
			"byteLength":1104,
			"byteOffset":307320,
			"target":34962
		},
		{
			"buffer":0,
			"byteLength":1472,
			"byteOffset":308424,
			"target":34962
		},
		{
			"buffer":0,
			"byteLength":888,
			"byteOffset":309896,
			"target":34963
		}
	],
	"samplers":[
		{
			"magFilter":9729,
			"minFilter":9987
		}
	],
	"buffers":[
		{
			"byteLength":310784,
			"uri":"Sword.bin"
		}
	]
}
