{
    "asset" : {
        "generator" : "Khronos glTF Blender I/O v3.3.32",
        "version" : "2.0"
    },
    "extensionsUsed" : [
        "KHR_materials_specular",
        "KHR_materials_ior"
    ],
    "scene" : 0,
    "scenes" : [
        {
            "name" : "Scene",
            "nodes" : [
                0,
                1,
                2
            ]
        }
    ],
    "nodes" : [
        {
            "mesh" : 0,
            "name" : "HayBaked_nohitbox",
            "translation" : [
                -0.35736191272735596,
                0.17437735199928284,
                -4.240135669708252
            ]
        },
        {
            "mesh" : 1,
            "name" : "ToolsBaked_nohitbox",
            "translation" : [
                2.775273323059082,
                0.13867877423763275,
                -4.776212692260742
            ]
        },
        {
            "mesh" : 2,
            "name" : "BarnBaked_nohitbox",
            "translation" : [
                -0.8075879812240601,
                1.557863473892212,
                5.3134565353393555
            ]
        }
    ],
    "materials" : [
        {
            "alphaMode" : "BLEND",
            "doubleSided" : true,
            "extensions" : {
                "KHR_materials_specular" : {
                    "specularColorFactor" : [
                        0,
                        0,
                        0
                    ]
                },
                "KHR_materials_ior" : {
                    "ior" : 1.4500000476837158
                }
            },
            "name" : "HayBake_Baked",
            "normalTexture" : {
                "index" : 0
            },
            "pbrMetallicRoughness" : {
                "baseColorTexture" : {
                    "index" : 1
                },
                "metallicFactor" : 0
            }
        },
        {
            "alphaMode" : "BLEND",
            "doubleSided" : true,
            "name" : "ToolsBake_Baked",
            "normalTexture" : {
                "index" : 2
            },
            "pbrMetallicRoughness" : {
                "baseColorTexture" : {
                    "index" : 3
                },
                "metallicRoughnessTexture" : {
                    "index" : 4
                }
            }
        },
        {
            "alphaMode" : "BLEND",
            "doubleSided" : true,
            "extensions" : {
                "KHR_materials_specular" : {
                    "specularColorFactor" : [
                        0,
                        0,
                        0
                    ]
                },
                "KHR_materials_ior" : {
                    "ior" : 1.4500000476837158
                }
            },
            "name" : "MergedBake_Baked",
            "normalTexture" : {
                "index" : 5
            },
            "pbrMetallicRoughness" : {
                "baseColorTexture" : {
                    "index" : 6
                },
                "metallicFactor" : 0
            }
        }
    ],
    "meshes" : [
        {
            "name" : "HayBakedMesh_nohitbox",
            "primitives" : [
                {
                    "attributes" : {
                        "POSITION" : 0,
                        "NORMAL" : 1,
                        "TANGENT" : 2,
                        "TEXCOORD_0" : 3
                    },
                    "indices" : 4,
                    "material" : 0
                }
            ]
        },
        {
            "name" : "ToolsBakedMesh_nohitbox",
            "primitives" : [
                {
                    "attributes" : {
                        "POSITION" : 5,
                        "NORMAL" : 6,
                        "TEXCOORD_0" : 7
                    },
                    "indices" : 8,
                    "material" : 1
                }
            ]
        },
        {
            "name" : "BarnBakedMesh_nohitbox",
            "primitives" : [
                {
                    "attributes" : {
                        "POSITION" : 9,
                        "NORMAL" : 10,
                        "TEXCOORD_0" : 11
                    },
                    "indices" : 12,
                    "material" : 2
                }
            ]
        }
    ],
    "textures" : [
        {
            "sampler" : 0,
            "source" : 0
        },
        {
            "sampler" : 0,
            "source" : 1
        },
        {
            "sampler" : 0,
            "source" : 2
        },
        {
            "sampler" : 0,
            "source" : 3
        },
        {
            "sampler" : 0,
            "source" : 4
        },
        {
            "sampler" : 0,
            "source" : 5
        },
        {
            "sampler" : 0,
            "source" : 6
        }
    ],
    "images" : [
        {
            "mimeType" : "image/png",
            "name" : "HayBake_Bake1_PBR_Normal",
            "uri" : "HayBake_Bake1_PBR_Normal.dds"
        },
        {
            "mimeType" : "image/png",
            "name" : "HayBake_Bake1_PBR_Diffuse",
            "uri" : "HayBake_Bake1_PBR_Diffuse.dds"
        },
        {
            "mimeType" : "image/png",
            "name" : "ToolsBake_Bake1_PBR_Normal",
            "uri" : "ToolsBake_Bake1_PBR_Normal.dds"
        },
        {
            "mimeType" : "image/png",
            "name" : "ToolsBake_Bake1_PBR_Diffuse",
            "uri" : "ToolsBake_Bake1_PBR_Diffuse.dds"
        },
        {
            "mimeType" : "image/png",
            "name" : "ToolsBake_Bake1_PBR_Metalness-ToolsBake_Bake1_PBR_Roughness",
            "uri" : "ToolsBake_Bake1_PBR_Metalness-ToolsBake_Bake1_PBR_Roughness.dds"
        },
        {
            "mimeType" : "image/png",
            "name" : "MergedBake_Bake1_PBR_Normal",
            "uri" : "MergedBake_Bake1_PBR_Normal.dds"
        },
        {
            "mimeType" : "image/png",
            "name" : "MergedBake_Bake1_PBR_Diffuse",
            "uri" : "MergedBake_Bake1_PBR_Diffuse.dds"
        }
    ],
    "accessors" : [
        {
            "bufferView" : 0,
            "componentType" : 5126,
            "count" : 2018,
            "max" : [
                5.468733310699463,
                3.983100414276123,
                13.458646774291992
            ],
            "min" : [
                -5.009718894958496,
                -0.2811161279678345,
                -1.069173812866211
            ],
            "type" : "VEC3"
        },
        {
            "bufferView" : 1,
            "componentType" : 5126,
            "count" : 2018,
            "type" : "VEC3"
        },
        {
            "bufferView" : 2,
            "componentType" : 5126,
            "count" : 2018,
            "type" : "VEC4"
        },
        {
            "bufferView" : 3,
            "componentType" : 5126,
            "count" : 2018,
            "type" : "VEC2"
        },
        {
            "bufferView" : 4,
            "componentType" : 5123,
            "count" : 8634,
            "type" : "SCALAR"
        },
        {
            "bufferView" : 5,
            "componentType" : 5126,
            "count" : 15669,
            "max" : [
                2.371849536895752,
                2.938835620880127,
                13.812851905822754
            ],
            "min" : [
                -7.846040725708008,
                -0.17755472660064697,
                -0.5206670761108398
            ],
            "type" : "VEC3"
        },
        {
            "bufferView" : 6,
            "componentType" : 5126,
            "count" : 15669,
            "type" : "VEC3"
        },
        {
            "bufferView" : 7,
            "componentType" : 5126,
            "count" : 15669,
            "type" : "VEC2"
        },
        {
            "bufferView" : 8,
            "componentType" : 5123,
            "count" : 50892,
            "type" : "SCALAR"
        },
        {
            "bufferView" : 9,
            "componentType" : 5126,
            "count" : 2784,
            "max" : [
                6.28518533706665,
                5.376302719116211,
                4.224410057067871
            ],
            "min" : [
                -4.970654010772705,
                -1.7676185369491577,
                -10.872042655944824
            ],
            "type" : "VEC3"
        },
        {
            "bufferView" : 10,
            "componentType" : 5126,
            "count" : 2784,
            "type" : "VEC3"
        },
        {
            "bufferView" : 11,
            "componentType" : 5126,
            "count" : 2784,
            "type" : "VEC2"
        },
        {
            "bufferView" : 12,
            "componentType" : 5123,
            "count" : 5166,
            "type" : "SCALAR"
        }
    ],
    "bufferViews" : [
        {
            "buffer" : 0,
            "byteLength" : 24216,
            "byteOffset" : 0,
            "target" : 34962
        },
        {
            "buffer" : 0,
            "byteLength" : 24216,
            "byteOffset" : 24216,
            "target" : 34962
        },
        {
            "buffer" : 0,
            "byteLength" : 32288,
            "byteOffset" : 48432,
            "target" : 34962
        },
        {
            "buffer" : 0,
            "byteLength" : 16144,
            "byteOffset" : 80720,
            "target" : 34962
        },
        {
            "buffer" : 0,
            "byteLength" : 17268,
            "byteOffset" : 96864,
            "target" : 34963
        },
        {
            "buffer" : 0,
            "byteLength" : 188028,
            "byteOffset" : 114132,
            "target" : 34962
        },
        {
            "buffer" : 0,
            "byteLength" : 188028,
            "byteOffset" : 302160,
            "target" : 34962
        },
        {
            "buffer" : 0,
            "byteLength" : 125352,
            "byteOffset" : 490188,
            "target" : 34962
        },
        {
            "buffer" : 0,
            "byteLength" : 101784,
            "byteOffset" : 615540,
            "target" : 34963
        },
        {
            "buffer" : 0,
            "byteLength" : 33408,
            "byteOffset" : 717324,
            "target" : 34962
        },
        {
            "buffer" : 0,
            "byteLength" : 33408,
            "byteOffset" : 750732,
            "target" : 34962
        },
        {
            "buffer" : 0,
            "byteLength" : 22272,
            "byteOffset" : 784140,
            "target" : 34962
        },
        {
            "buffer" : 0,
            "byteLength" : 10332,
            "byteOffset" : 806412,
            "target" : 34963
        }
    ],
    "samplers" : [
        {
            "magFilter" : 9729,
            "minFilter" : 9987
        }
    ],
    "buffers" : [
        {
            "byteLength" : 816744,
            "uri" : "barn.bin"
        }
    ]
}
