{
	"asset":{
		"generator":"Khronos glTF Blender I/O v3.5.30",
		"version":"2.0"
	},
	"extensionsUsed":[
		"KHR_materials_specular",
		"KHR_materials_ior"
	],
	"scene":0,
	"scenes":[
		{
			"name":"Scene",
			"nodes":[
				0,
				1,
				2,
				3
			]
		}
	],
	"nodes":[
		{
			"mesh":0,
			"name":"BarnBaked_nohitbox",
			"rotation":[
				0,
				-1,
				0,
				1.6292068494294654e-07
			]
		},
		{
			"mesh":1,
			"name":"HayBaked_nohitbox",
			"rotation":[
				0,
				-1,
				0,
				1.6292068494294654e-07
			]
		},
		{
			"mesh":2,
			"name":"Stuff_nohitbox",
			"rotation":[
				0,
				-1,
				0,
				1.6292068494294654e-07
			]
		},
		{
			"mesh":3,
			"name":"ToolsBaked_nohitbox",
			"rotation":[
				0,
				-1,
				0,
				1.6292068494294654e-07
			]
		}
	],
	"materials":[
		{
			"alphaMode":"BLEND",
			"doubleSided":true,
			"extensions":{
				"KHR_materials_specular":{
					"specularColorFactor":[
						0,
						0,
						0
					]
				},
				"KHR_materials_ior":{
					"ior":1.4500000476837158
				}
			},
			"name":"MergedBake_Baked",
			"normalTexture":{
				"index":0
			},
			"pbrMetallicRoughness":{
				"baseColorTexture":{
					"index":1
				},
				"metallicFactor":0
			}
		},
		{
			"alphaMode":"BLEND",
			"extensions":{
				"KHR_materials_specular":{
					"specularColorFactor":[
						0,
						0,
						0
					]
				},
				"KHR_materials_ior":{
					"ior":1.4500000476837158
				}
			},
			"name":"HayBake_Baked",
			"normalTexture":{
				"index":2
			},
			"pbrMetallicRoughness":{
				"baseColorTexture":{
					"index":3
				},
				"metallicFactor":0
			}
		},
		{
			"alphaMode":"BLEND",
			"doubleSided":true,
			"extensions":{
				"KHR_materials_specular":{
					"specularColorFactor":[
						0,
						0,
						0
					]
				},
				"KHR_materials_ior":{
					"ior":1.4500000476837158
				}
			},
			"name":"LogsBaked_Baked",
			"normalTexture":{
				"index":4
			},
			"pbrMetallicRoughness":{
				"baseColorTexture":{
					"index":5
				},
				"metallicRoughnessTexture":{
					"index":6
				}
			}
		},
		{
			"alphaMode":"BLEND",
			"doubleSided":true,
			"name":"ToolsBake_Baked",
			"normalTexture":{
				"index":7
			},
			"pbrMetallicRoughness":{
				"baseColorTexture":{
					"index":8
				},
				"metallicRoughnessTexture":{
					"index":9
				}
			}
		}
	],
	"meshes":[
		{
			"name":"BarnBakedMesh_nohitbox",
			"primitives":[
				{
					"attributes":{
						"POSITION":0,
						"TEXCOORD_0":1,
						"NORMAL":2
					},
					"indices":3,
					"material":0
				}
			]
		},
		{
			"name":"HayBakedMesh_nohitbox",
			"primitives":[
				{
					"attributes":{
						"POSITION":4,
						"TEXCOORD_0":5,
						"NORMAL":6,
						"TANGENT":7
					},
					"indices":8,
					"material":1
				}
			]
		},
		{
			"name":"StuffMesh_nohitbox",
			"primitives":[
				{
					"attributes":{
						"POSITION":9,
						"TEXCOORD_0":10,
						"NORMAL":11
					},
					"indices":12,
					"material":2
				}
			]
		},
		{
			"name":"ToolsBakedMesh_nohitbox",
			"primitives":[
				{
					"attributes":{
						"POSITION":13,
						"TEXCOORD_0":14,
						"NORMAL":15
					},
					"indices":16,
					"material":3
				}
			]
		}
	],
	"textures":[
		{
			"sampler":0,
			"source":0
		},
		{
			"sampler":0,
			"source":1
		},
		{
			"sampler":0,
			"source":2
		},
		{
			"sampler":0,
			"source":3
		},
		{
			"sampler":0,
			"source":4
		},
		{
			"sampler":0,
			"source":5
		},
		{
			"sampler":0,
			"source":6
		},
		{
			"sampler":0,
			"source":7
		},
		{
			"sampler":0,
			"source":8
		},
		{
			"sampler":0,
			"source":9
		}
	],
	"images":[
		{
			"mimeType":"image/jpeg",
			"name":"MergedBake_Bake1_PBR_Normal",
			"uri":"MergedBake_Bake1_PBR_Normal.jpg"
		},
		{
			"mimeType":"image/jpeg",
			"name":"MergedBake_Bake1_PBR_Diffuse",
			"uri":"MergedBake_Bake1_PBR_Diffuse.jpg"
		},
		{
			"mimeType":"image/jpeg",
			"name":"HayBake_Bake1_PBR_Normal",
			"uri":"HayBake_Bake1_PBR_Normal.jpg"
		},
		{
			"mimeType":"image/jpeg",
			"name":"HayBake_Bake1_PBR_Diffuse",
			"uri":"HayBake_Bake1_PBR_Diffuse.jpg"
		},
		{
			"mimeType":"image/jpeg",
			"name":"LogsBaked_Bake1_PBR_Normal",
			"uri":"LogsBaked_Bake1_PBR_Normal.jpg"
		},
		{
			"mimeType":"image/jpeg",
			"name":"LogsBaked_Bake1_PBR_Diffuse",
			"uri":"LogsBaked_Bake1_PBR_Diffuse.jpg"
		},
		{
			"mimeType":"image/jpeg",
			"name":"LogsBaked_Bake1_PBR_Metalness-LogsBaked_Bake1_PBR_Roughness",
			"uri":"LogsBaked_Bake1_PBR_Metalness-LogsBaked_Bake1_PBR_Roughness.jpg"
		},
		{
			"mimeType":"image/jpeg",
			"name":"ToolsBake_Bake1_PBR_Normal",
			"uri":"ToolsBake_Bake1_PBR_Normal.jpg"
		},
		{
			"mimeType":"image/jpeg",
			"name":"ToolsBake_Bake1_PBR_Diffuse",
			"uri":"ToolsBake_Bake1_PBR_Diffuse.jpg"
		},
		{
			"mimeType":"image/jpeg",
			"name":"ToolsBake_Bake1_PBR_Metalness-ToolsBake_Bake1_PBR_Roughness",
			"uri":"ToolsBake_Bake1_PBR_Metalness-ToolsBake_Bake1_PBR_Roughness.jpg"
		}
	],
	"accessors":[
		{
			"bufferView":0,
			"componentType":5126,
			"count":2598,
			"max":[
				5.477597236633301,
				6.934165954589844,
				9.537866592407227
			],
			"min":[
				-5.778242111206055,
				-0.2097550630569458,
				-5.558586120605469
			],
			"type":"VEC3"
		},
		{
			"bufferView":1,
			"componentType":5126,
			"count":2598,
			"type":"VEC2"
		},
		{
			"bufferView":2,
			"componentType":5126,
			"count":2598,
			"type":"VEC3"
		},
		{
			"bufferView":3,
			"componentType":5123,
			"count":5166,
			"type":"SCALAR"
		},
		{
			"bufferView":4,
			"componentType":5126,
			"count":5756,
			"max":[
				5.1113715171813965,
				4.157477855682373,
				9.218511581420898
			],
			"min":[
				-5.3670806884765625,
				-0.10673877596855164,
				-5.309309482574463
			],
			"type":"VEC3"
		},
		{
			"bufferView":5,
			"componentType":5126,
			"count":5756,
			"type":"VEC2"
		},
		{
			"bufferView":6,
			"componentType":5126,
			"count":5756,
			"type":"VEC3"
		},
		{
			"bufferView":7,
			"componentType":5126,
			"count":5756,
			"type":"VEC4"
		},
		{
			"bufferView":8,
			"componentType":5123,
			"count":8634,
			"type":"SCALAR"
		},
		{
			"bufferView":9,
			"componentType":5126,
			"count":11415,
			"max":[
				5.150472640991211,
				3.0914623737335205,
				8.4589262008667
			],
			"min":[
				-4.277005195617676,
				-0.057255715131759644,
				-3.7451677322387695
			],
			"type":"VEC3"
		},
		{
			"bufferView":10,
			"componentType":5126,
			"count":11415,
			"type":"VEC2"
		},
		{
			"bufferView":11,
			"componentType":5126,
			"count":11415,
			"type":"VEC3"
		},
		{
			"bufferView":12,
			"componentType":5123,
			"count":29634,
			"type":"SCALAR"
		},
		{
			"bufferView":13,
			"componentType":5126,
			"count":31058,
			"max":[
				5.147122859954834,
				3.077514410018921,
				9.036639213562012
			],
			"min":[
				-5.070767402648926,
				-0.03887595236301422,
				-5.296879768371582
			],
			"type":"VEC3"
		},
		{
			"bufferView":14,
			"componentType":5126,
			"count":31058,
			"type":"VEC2"
		},
		{
			"bufferView":15,
			"componentType":5126,
			"count":31058,
			"type":"VEC3"
		},
		{
			"bufferView":16,
			"componentType":5123,
			"count":50892,
			"type":"SCALAR"
		}
	],
	"bufferViews":[
		{
			"buffer":0,
			"byteLength":31176,
			"byteOffset":0,
			"target":34962
		},
		{
			"buffer":0,
			"byteLength":20784,
			"byteOffset":31176,
			"target":34962
		},
		{
			"buffer":0,
			"byteLength":31176,
			"byteOffset":51960,
			"target":34962
		},
		{
			"buffer":0,
			"byteLength":10332,
			"byteOffset":83136,
			"target":34963
		},
		{
			"buffer":0,
			"byteLength":69072,
			"byteOffset":93468,
			"target":34962
		},
		{
			"buffer":0,
			"byteLength":46048,
			"byteOffset":162540,
			"target":34962
		},
		{
			"buffer":0,
			"byteLength":69072,
			"byteOffset":208588,
			"target":34962
		},
		{
			"buffer":0,
			"byteLength":92096,
			"byteOffset":277660,
			"target":34962
		},
		{
			"buffer":0,
			"byteLength":17268,
			"byteOffset":369756,
			"target":34963
		},
		{
			"buffer":0,
			"byteLength":136980,
			"byteOffset":387024,
			"target":34962
		},
		{
			"buffer":0,
			"byteLength":91320,
			"byteOffset":524004,
			"target":34962
		},
		{
			"buffer":0,
			"byteLength":136980,
			"byteOffset":615324,
			"target":34962
		},
		{
			"buffer":0,
			"byteLength":59268,
			"byteOffset":752304,
			"target":34963
		},
		{
			"buffer":0,
			"byteLength":372696,
			"byteOffset":811572,
			"target":34962
		},
		{
			"buffer":0,
			"byteLength":248464,
			"byteOffset":1184268,
			"target":34962
		},
		{
			"buffer":0,
			"byteLength":372696,
			"byteOffset":1432732,
			"target":34962
		},
		{
			"buffer":0,
			"byteLength":101784,
			"byteOffset":1805428,
			"target":34963
		}
	],
	"samplers":[
		{
			"magFilter":9729,
			"minFilter":9987
		}
	],
	"buffers":[
		{
			"byteLength":1907212,
			"uri":"barn.bin"
		}
	]
}
