{
	"asset":{
		"generator":"Khronos glTF Blender I/O v3.5.30",
		"version":"2.0"
	},
	"extensionsUsed":[
		"KHR_materials_specular",
		"KHR_materials_ior"
	],
	"scene":0,
	"scenes":[
		{
			"name":"Scene",
			"nodes":[
				0,
				1,
				2,
				3
			]
		}
	],
	"nodes":[
		{
			"mesh":0,
			"name":"HayBaked_nohitbox"
		},
		{
			"mesh":1,
			"name":"ToolsBaked_nohitbox"
		},
		{
			"mesh":2,
			"name":"BarnBaked"
		},
		{
			"mesh":3,
			"name":"Stuff_nohitbox",
			"translation":[
				1.4865089654922485,
				0.06562213599681854,
				-0.52397221326828
			]
		}
	],
	"materials":[
		{
			"alphaMode":"BLEND",
			"doubleSided":true,
			"extensions":{
				"KHR_materials_specular":{
					"specularColorFactor":[
						0,
						0,
						0
					]
				},
				"KHR_materials_ior":{
					"ior":1.4500000476837158
				}
			},
			"name":"HayBake_Baked",
			"normalTexture":{
				"index":0
			},
			"pbrMetallicRoughness":{
				"baseColorTexture":{
					"index":1
				},
				"metallicFactor":0
			}
		},
		{
			"alphaMode":"BLEND",
			"doubleSided":true,
			"name":"ToolsBake_Baked",
			"normalTexture":{
				"index":2
			},
			"pbrMetallicRoughness":{
				"baseColorTexture":{
					"index":3
				},
				"metallicRoughnessTexture":{
					"index":4
				}
			}
		},
		{
			"alphaMode":"BLEND",
			"doubleSided":true,
			"extensions":{
				"KHR_materials_specular":{
					"specularColorFactor":[
						0,
						0,
						0
					]
				},
				"KHR_materials_ior":{
					"ior":1.4500000476837158
				}
			},
			"name":"MergedBake_Baked",
			"normalTexture":{
				"index":5
			},
			"pbrMetallicRoughness":{
				"baseColorTexture":{
					"index":6
				},
				"metallicFactor":0
			}
		},
		{
			"alphaMode":"BLEND",
			"doubleSided":true,
			"extensions":{
				"KHR_materials_specular":{
					"specularColorFactor":[
						0,
						0,
						0
					]
				},
				"KHR_materials_ior":{
					"ior":1.4500000476837158
				}
			},
			"name":"LogsBaked_Baked",
			"normalTexture":{
				"index":7
			},
			"pbrMetallicRoughness":{
				"baseColorTexture":{
					"index":8
				},
				"metallicRoughnessTexture":{
					"index":9
				}
			}
		}
	],
	"meshes":[
		{
			"name":"HayBakedMesh_nohitbox",
			"primitives":[
				{
					"attributes":{
						"POSITION":0,
						"TEXCOORD_0":1,
						"NORMAL":2,
						"TANGENT":3
					},
					"indices":4,
					"material":0
				}
			]
		},
		{
			"name":"ToolsBakedMesh_nohitbox",
			"primitives":[
				{
					"attributes":{
						"POSITION":5,
						"TEXCOORD_0":6,
						"NORMAL":7
					},
					"indices":8,
					"material":1
				}
			]
		},
		{
			"name":"BarnBakedMesh_nohitbox",
			"primitives":[
				{
					"attributes":{
						"POSITION":9,
						"TEXCOORD_0":10,
						"NORMAL":11
					},
					"indices":12,
					"material":2
				}
			]
		},
		{
			"name":"StuffMesh_nohitbox",
			"primitives":[
				{
					"attributes":{
						"POSITION":13,
						"TEXCOORD_0":14,
						"NORMAL":15
					},
					"indices":16,
					"material":3
				}
			]
		}
	],
	"textures":[
		{
			"sampler":0,
			"source":0
		},
		{
			"sampler":0,
			"source":1
		},
		{
			"sampler":0,
			"source":2
		},
		{
			"sampler":0,
			"source":3
		},
		{
			"sampler":0,
			"source":4
		},
		{
			"sampler":0,
			"source":5
		},
		{
			"sampler":0,
			"source":6
		},
		{
			"sampler":0,
			"source":7
		},
		{
			"sampler":0,
			"source":8
		},
		{
			"sampler":0,
			"source":9
		}
	],
	"images":[
		{
			"mimeType":"image/png",
			"name":"HayBake_Bake1_PBR_Normal",
			"uri":"HayBake_Bake1_PBR_Normal.png"
		},
		{
			"mimeType":"image/png",
			"name":"HayBake_Bake1_PBR_Diffuse",
			"uri":"HayBake_Bake1_PBR_Diffuse.png"
		},
		{
			"mimeType":"image/png",
			"name":"ToolsBake_Bake1_PBR_Normal",
			"uri":"ToolsBake_Bake1_PBR_Normal.png"
		},
		{
			"mimeType":"image/png",
			"name":"ToolsBake_Bake1_PBR_Diffuse",
			"uri":"ToolsBake_Bake1_PBR_Diffuse.png"
		},
		{
			"mimeType":"image/png",
			"name":"ToolsBake_Bake1_PBR_Metalness-ToolsBake_Bake1_PBR_Roughness",
			"uri":"ToolsBake_Bake1_PBR_Metalness-ToolsBake_Bake1_PBR_Roughness.png"
		},
		{
			"mimeType":"image/png",
			"name":"MergedBake_Bake1_PBR_Normal",
			"uri":"MergedBake_Bake1_PBR_Normal.png"
		},
		{
			"mimeType":"image/png",
			"name":"MergedBake_Bake1_PBR_Diffuse",
			"uri":"MergedBake_Bake1_PBR_Diffuse.png"
		},
		{
			"mimeType":"image/png",
			"name":"LogsBaked_Bake1_PBR_Normal",
			"uri":"LogsBaked_Bake1_PBR_Normal.png"
		},
		{
			"mimeType":"image/png",
			"name":"LogsBaked_Bake1_PBR_Diffuse",
			"uri":"LogsBaked_Bake1_PBR_Diffuse.png"
		},
		{
			"mimeType":"image/png",
			"name":"LogsBaked_Bake1_PBR_Metalness-LogsBaked_Bake1_PBR_Roughness",
			"uri":"LogsBaked_Bake1_PBR_Metalness-LogsBaked_Bake1_PBR_Roughness.png"
		}
	],
	"accessors":[
		{
			"bufferView":0,
			"componentType":5126,
			"count":5756,
			"max":[
				5.1113715171813965,
				4.157477855682373,
				9.218511581420898
			],
			"min":[
				-5.3670806884765625,
				-0.10673877596855164,
				-5.309309482574463
			],
			"type":"VEC3"
		},
		{
			"bufferView":1,
			"componentType":5126,
			"count":5756,
			"type":"VEC2"
		},
		{
			"bufferView":2,
			"componentType":5126,
			"count":5756,
			"type":"VEC3"
		},
		{
			"bufferView":3,
			"componentType":5126,
			"count":5756,
			"type":"VEC4"
		},
		{
			"bufferView":4,
			"componentType":5123,
			"count":8634,
			"type":"SCALAR"
		},
		{
			"bufferView":5,
			"componentType":5126,
			"count":31126,
			"max":[
				5.147122859954834,
				3.077514410018921,
				9.036639213562012
			],
			"min":[
				-5.070767402648926,
				-0.03887595236301422,
				-5.296879768371582
			],
			"type":"VEC3"
		},
		{
			"bufferView":6,
			"componentType":5126,
			"count":31126,
			"type":"VEC2"
		},
		{
			"bufferView":7,
			"componentType":5126,
			"count":31126,
			"type":"VEC3"
		},
		{
			"bufferView":8,
			"componentType":5123,
			"count":50892,
			"type":"SCALAR"
		},
		{
			"bufferView":9,
			"componentType":5126,
			"count":2597,
			"max":[
				5.477597236633301,
				6.934165954589844,
				9.537866592407227
			],
			"min":[
				-5.778242111206055,
				-0.2097550630569458,
				-5.558586120605469
			],
			"type":"VEC3"
		},
		{
			"bufferView":10,
			"componentType":5126,
			"count":2597,
			"type":"VEC2"
		},
		{
			"bufferView":11,
			"componentType":5126,
			"count":2597,
			"type":"VEC3"
		},
		{
			"bufferView":12,
			"componentType":5123,
			"count":5166,
			"type":"SCALAR"
		},
		{
			"bufferView":13,
			"componentType":5126,
			"count":11565,
			"max":[
				3.663963794708252,
				3.0258402824401855,
				8.982898712158203
			],
			"min":[
				-5.763514041900635,
				-0.12287785112857819,
				-3.2211954593658447
			],
			"type":"VEC3"
		},
		{
			"bufferView":14,
			"componentType":5126,
			"count":11565,
			"type":"VEC2"
		},
		{
			"bufferView":15,
			"componentType":5126,
			"count":11565,
			"type":"VEC3"
		},
		{
			"bufferView":16,
			"componentType":5123,
			"count":30066,
			"type":"SCALAR"
		}
	],
	"bufferViews":[
		{
			"buffer":0,
			"byteLength":69072,
			"byteOffset":0,
			"target":34962
		},
		{
			"buffer":0,
			"byteLength":46048,
			"byteOffset":69072,
			"target":34962
		},
		{
			"buffer":0,
			"byteLength":69072,
			"byteOffset":115120,
			"target":34962
		},
		{
			"buffer":0,
			"byteLength":92096,
			"byteOffset":184192,
			"target":34962
		},
		{
			"buffer":0,
			"byteLength":17268,
			"byteOffset":276288,
			"target":34963
		},
		{
			"buffer":0,
			"byteLength":373512,
			"byteOffset":293556,
			"target":34962
		},
		{
			"buffer":0,
			"byteLength":249008,
			"byteOffset":667068,
			"target":34962
		},
		{
			"buffer":0,
			"byteLength":373512,
			"byteOffset":916076,
			"target":34962
		},
		{
			"buffer":0,
			"byteLength":101784,
			"byteOffset":1289588,
			"target":34963
		},
		{
			"buffer":0,
			"byteLength":31164,
			"byteOffset":1391372,
			"target":34962
		},
		{
			"buffer":0,
			"byteLength":20776,
			"byteOffset":1422536,
			"target":34962
		},
		{
			"buffer":0,
			"byteLength":31164,
			"byteOffset":1443312,
			"target":34962
		},
		{
			"buffer":0,
			"byteLength":10332,
			"byteOffset":1474476,
			"target":34963
		},
		{
			"buffer":0,
			"byteLength":138780,
			"byteOffset":1484808,
			"target":34962
		},
		{
			"buffer":0,
			"byteLength":92520,
			"byteOffset":1623588,
			"target":34962
		},
		{
			"buffer":0,
			"byteLength":138780,
			"byteOffset":1716108,
			"target":34962
		},
		{
			"buffer":0,
			"byteLength":60132,
			"byteOffset":1854888,
			"target":34963
		}
	],
	"samplers":[
		{
			"magFilter":9729,
			"minFilter":9987
		}
	],
	"buffers":[
		{
			"byteLength":1915020,
			"uri":"barntest.bin"
		}
	]
}
