{
	"asset":{
		"generator":"Khronos glTF Blender I/O v3.5.30",
		"version":"2.0"
	},
	"extensionsUsed":[
		"KHR_materials_specular",
		"KHR_materials_ior"
	],
	"scene":0,
	"scenes":[
		{
			"name":"Scene",
			"nodes":[
				0,
				1,
				2
			]
		}
	],
	"nodes":[
		{
			"mesh":0,
			"name":"Fence_Corner_nohitbox"
		},
		{
			"mesh":1,
			"name":"Fence_Corner_invisible"
		},
		{
			"mesh":2,
			"name":"Fence_Corner2_invisible"
		}
	],
	"materials":[
		{
			"doubleSided":true,
			"extensions":{
				"KHR_materials_specular":{
					"specularColorFactor":[
						0,
						0,
						0
					]
				}
			},
			"name":"Wood",
			"pbrMetallicRoughness":{
				"baseColorFactor":[
					0.3757452964782715,
					0.20292167365550995,
					0.0587104856967926,
					1
				],
				"metallicFactor":0,
				"roughnessFactor":0.8999999761581421
			}
		},
		{
			"doubleSided":true,
			"extensions":{
				"KHR_materials_specular":{
					"specularColorFactor":[
						0,
						0,
						0
					]
				}
			},
			"name":"Wood_Light",
			"pbrMetallicRoughness":{
				"baseColorFactor":[
					0.5382204055786133,
					0.314663827419281,
					0.08692671358585358,
					1
				],
				"metallicFactor":0,
				"roughnessFactor":0.8999999761581421
			}
		},
		{
			"alphaMode":"BLEND",
			"doubleSided":true,
			"extensions":{
				"KHR_materials_specular":{
					"specularColorFactor":[
						0,
						0,
						0
					]
				},
				"KHR_materials_ior":{
					"ior":1.4500000476837158
				}
			},
			"name":"HBInvis",
			"pbrMetallicRoughness":{
				"baseColorFactor":[
					0.800000011920929,
					0.800000011920929,
					0.800000011920929,
					0
				],
				"metallicFactor":0
			}
		}
	],
	"meshes":[
		{
			"name":"Cube.023",
			"primitives":[
				{
					"attributes":{
						"POSITION":0,
						"NORMAL":1
					},
					"indices":2,
					"material":0
				},
				{
					"attributes":{
						"POSITION":3,
						"NORMAL":4
					},
					"indices":5,
					"material":1
				}
			]
		},
		{
			"name":"Cube",
			"primitives":[
				{
					"attributes":{
						"POSITION":6,
						"TEXCOORD_0":7,
						"NORMAL":8,
						"TANGENT":9
					},
					"indices":10,
					"material":2
				}
			]
		},
		{
			"name":"Cube.001",
			"primitives":[
				{
					"attributes":{
						"POSITION":11,
						"TEXCOORD_0":12,
						"NORMAL":13,
						"TANGENT":14
					},
					"indices":15,
					"material":2
				}
			]
		}
	],
	"accessors":[
		{
			"bufferView":0,
			"componentType":5126,
			"count":208,
			"max":[
				0.7481545209884644,
				1.2511268854141235,
				0.13217657804489136
			],
			"min":[
				-0.13217657804489136,
				0,
				-0.7481545209884644
			],
			"type":"VEC3"
		},
		{
			"bufferView":1,
			"componentType":5126,
			"count":208,
			"type":"VEC3"
		},
		{
			"bufferView":2,
			"componentType":5123,
			"count":528,
			"type":"SCALAR"
		},
		{
			"bufferView":3,
			"componentType":5126,
			"count":88,
			"max":[
				0.9999999403953552,
				0.7251081466674805,
				0.0622519887983799
			],
			"min":[
				-0.0622519887983799,
				0.4187104105949402,
				-0.9999999403953552
			],
			"type":"VEC3"
		},
		{
			"bufferView":4,
			"componentType":5126,
			"count":88,
			"type":"VEC3"
		},
		{
			"bufferView":5,
			"componentType":5123,
			"count":192,
			"type":"SCALAR"
		},
		{
			"bufferView":6,
			"componentType":5126,
			"count":24,
			"max":[
				0.13200004398822784,
				1.25,
				0.13199999928474426
			],
			"min":[
				-0.12999999523162842,
				-0.02499997615814209,
				-1
			],
			"type":"VEC3"
		},
		{
			"bufferView":7,
			"componentType":5126,
			"count":24,
			"type":"VEC2"
		},
		{
			"bufferView":8,
			"componentType":5126,
			"count":24,
			"type":"VEC3"
		},
		{
			"bufferView":9,
			"componentType":5126,
			"count":24,
			"type":"VEC4"
		},
		{
			"bufferView":10,
			"componentType":5123,
			"count":36,
			"type":"SCALAR"
		},
		{
			"bufferView":11,
			"componentType":5126,
			"count":24,
			"max":[
				1,
				1.25,
				0.13200004398822784
			],
			"min":[
				0.13199999928474426,
				-0.02499997615814209,
				-0.12999999523162842
			],
			"type":"VEC3"
		},
		{
			"bufferView":12,
			"componentType":5126,
			"count":24,
			"type":"VEC2"
		},
		{
			"bufferView":13,
			"componentType":5126,
			"count":24,
			"type":"VEC3"
		},
		{
			"bufferView":14,
			"componentType":5126,
			"count":24,
			"type":"VEC4"
		},
		{
			"bufferView":15,
			"componentType":5123,
			"count":36,
			"type":"SCALAR"
		}
	],
	"bufferViews":[
		{
			"buffer":0,
			"byteLength":2496,
			"byteOffset":0,
			"target":34962
		},
		{
			"buffer":0,
			"byteLength":2496,
			"byteOffset":2496,
			"target":34962
		},
		{
			"buffer":0,
			"byteLength":1056,
			"byteOffset":4992,
			"target":34963
		},
		{
			"buffer":0,
			"byteLength":1056,
			"byteOffset":6048,
			"target":34962
		},
		{
			"buffer":0,
			"byteLength":1056,
			"byteOffset":7104,
			"target":34962
		},
		{
			"buffer":0,
			"byteLength":384,
			"byteOffset":8160,
			"target":34963
		},
		{
			"buffer":0,
			"byteLength":288,
			"byteOffset":8544,
			"target":34962
		},
		{
			"buffer":0,
			"byteLength":192,
			"byteOffset":8832,
			"target":34962
		},
		{
			"buffer":0,
			"byteLength":288,
			"byteOffset":9024,
			"target":34962
		},
		{
			"buffer":0,
			"byteLength":384,
			"byteOffset":9312,
			"target":34962
		},
		{
			"buffer":0,
			"byteLength":72,
			"byteOffset":9696,
			"target":34963
		},
		{
			"buffer":0,
			"byteLength":288,
			"byteOffset":9768,
			"target":34962
		},
		{
			"buffer":0,
			"byteLength":192,
			"byteOffset":10056,
			"target":34962
		},
		{
			"buffer":0,
			"byteLength":288,
			"byteOffset":10248,
			"target":34962
		},
		{
			"buffer":0,
			"byteLength":384,
			"byteOffset":10536,
			"target":34962
		},
		{
			"buffer":0,
			"byteLength":72,
			"byteOffset":10920,
			"target":34963
		}
	],
	"buffers":[
		{
			"byteLength":10992,
			"uri":"data:application/octet-stream;base64,"
		}
	]
}
