{
	"asset":{
		"generator":"Khronos glTF Blender I/O v3.5.30",
		"version":"2.0"
	},
	"extensionsUsed":[
		"KHR_materials_specular"
	],
	"scene":0,
	"scenes":[
		{
			"name":"Scene",
			"nodes":[
				0
			]
		}
	],
	"nodes":[
		{
			"mesh":0,
			"name":"Fence_Middle_16"
		}
	],
	"materials":[
		{
			"doubleSided":true,
			"extensions":{
				"KHR_materials_specular":{
					"specularColorFactor":[
						0,
						0,
						0
					]
				}
			},
			"name":"Wood",
			"pbrMetallicRoughness":{
				"baseColorFactor":[
					0.3757452964782715,
					0.20292167365550995,
					0.0587104856967926,
					1
				],
				"metallicFactor":0,
				"roughnessFactor":0.9094488620758057
			}
		},
		{
			"doubleSided":true,
			"extensions":{
				"KHR_materials_specular":{
					"specularColorFactor":[
						0,
						0,
						0
					]
				}
			},
			"name":"Wood_Light",
			"pbrMetallicRoughness":{
				"baseColorFactor":[
					0.5382204055786133,
					0.314663827419281,
					0.08692671358585358,
					1
				],
				"metallicFactor":0,
				"roughnessFactor":0.7283464670181274
			}
		}
	],
	"meshes":[
		{
			"name":"Fence_Middle",
			"primitives":[
				{
					"attributes":{
						"POSITION":0,
						"NORMAL":1
					},
					"indices":2,
					"material":0
				},
				{
					"attributes":{
						"POSITION":3,
						"NORMAL":4
					},
					"indices":5,
					"material":1
				}
			]
		}
	],
	"accessors":[
		{
			"bufferView":0,
			"componentType":5126,
			"count":992,
			"max":[
				7.748230934143066,
				1.2507342100143433,
				0.13199999928474426
			],
			"min":[
				-7.748230934143066,
				0,
				-0.13199998438358307
			],
			"type":"VEC3"
		},
		{
			"bufferView":1,
			"componentType":5126,
			"count":992,
			"type":"VEC3"
		},
		{
			"bufferView":2,
			"componentType":5123,
			"count":3264,
			"type":"SCALAR"
		},
		{
			"bufferView":3,
			"componentType":5126,
			"count":168,
			"max":[
				8,
				0.7251081466674805,
				0.06185292825102806
			],
			"min":[
				-8,
				0.4187104403972626,
				-0.06185277923941612
			],
			"type":"VEC3"
		},
		{
			"bufferView":4,
			"componentType":5126,
			"count":168,
			"type":"VEC3"
		},
		{
			"bufferView":5,
			"componentType":5123,
			"count":378,
			"type":"SCALAR"
		}
	],
	"bufferViews":[
		{
			"buffer":0,
			"byteLength":11904,
			"byteOffset":0,
			"target":34962
		},
		{
			"buffer":0,
			"byteLength":11904,
			"byteOffset":11904,
			"target":34962
		},
		{
			"buffer":0,
			"byteLength":6528,
			"byteOffset":23808,
			"target":34963
		},
		{
			"buffer":0,
			"byteLength":2016,
			"byteOffset":30336,
			"target":34962
		},
		{
			"buffer":0,
			"byteLength":2016,
			"byteOffset":32352,
			"target":34962
		},
		{
			"buffer":0,
			"byteLength":756,
			"byteOffset":34368,
			"target":34963
		}
	],
	"buffers":[
		{
			"byteLength":35124,
			"uri":"data:application/octet-stream;base64,"
		}
	]
}
