{
	"asset":{
		"generator":"Khronos glTF Blender I/O v3.5.30",
		"version":"2.0"
	},
	"extensionsUsed":[
		"KHR_materials_specular"
	],
	"scene":0,
	"scenes":[
		{
			"name":"Scene",
			"nodes":[
				0
			]
		}
	],
	"nodes":[
		{
			"mesh":0,
			"name":"Fence_Middle_16"
		}
	],
	"materials":[
		{
			"doubleSided":true,
			"extensions":{
				"KHR_materials_specular":{
					"specularColorFactor":[
						0,
						0,
						0
					]
				}
			},
			"name":"Wood",
			"pbrMetallicRoughness":{
				"baseColorFactor":[
					0.3757452964782715,
					0.20292167365550995,
					0.0587104856967926,
					1
				],
				"metallicFactor":0,
				"roughnessFactor":0.9094488620758057
			}
		},
		{
			"doubleSided":true,
			"name":"Wood_Light",
			"pbrMetallicRoughness":{
				"baseColorFactor":[
					0.5382204055786133,
					0.314663827419281,
					0.08692671358585358,
					1
				],
				"metallicFactor":0,
				"roughnessFactor":0.5
			}
		}
	],
	"meshes":[
		{
			"name":"Fence_Middle",
			"primitives":[
				{
					"attributes":{
						"POSITION":0,
						"NORMAL":1
					},
					"indices":2,
					"material":0
				},
				{
					"attributes":{
						"POSITION":3,
						"NORMAL":4
					},
					"indices":5,
					"material":1
				}
			]
		}
	],
	"accessors":[
		{
			"bufferView":0,
			"componentType":5126,
			"count":1664,
			"max":[
				7.748154640197754,
				1.2511268854141235,
				0.13217657804489136
			],
			"min":[
				-7.748154640197754,
				0,
				-0.13217662274837494
			],
			"type":"VEC3"
		},
		{
			"bufferView":1,
			"componentType":5126,
			"count":1664,
			"type":"VEC3"
		},
		{
			"bufferView":2,
			"componentType":5123,
			"count":4224,
			"type":"SCALAR"
		},
		{
			"bufferView":3,
			"componentType":5126,
			"count":432,
			"max":[
				8,
				0.7251081466674805,
				0.0622519887983799
			],
			"min":[
				-8,
				0.4187104403972626,
				-0.06225183978676796
			],
			"type":"VEC3"
		},
		{
			"bufferView":4,
			"componentType":5126,
			"count":432,
			"type":"VEC3"
		},
		{
			"bufferView":5,
			"componentType":5123,
			"count":1008,
			"type":"SCALAR"
		}
	],
	"bufferViews":[
		{
			"buffer":0,
			"byteLength":19968,
			"byteOffset":0,
			"target":34962
		},
		{
			"buffer":0,
			"byteLength":19968,
			"byteOffset":19968,
			"target":34962
		},
		{
			"buffer":0,
			"byteLength":8448,
			"byteOffset":39936,
			"target":34963
		},
		{
			"buffer":0,
			"byteLength":5184,
			"byteOffset":48384,
			"target":34962
		},
		{
			"buffer":0,
			"byteLength":5184,
			"byteOffset":53568,
			"target":34962
		},
		{
			"buffer":0,
			"byteLength":2016,
			"byteOffset":58752,
			"target":34963
		}
	],
	"buffers":[
		{
			"byteLength":60768,
			"uri":"data:application/octet-stream;base64,"
		}
	]
}
