{
	"asset":{
		"generator":"Khronos glTF Blender I/O v3.5.30",
		"version":"2.0"
	},
	"scene":0,
	"scenes":[
		{
			"name":"Scene",
			"nodes":[
				0
			]
		}
	],
	"nodes":[
		{
			"mesh":0,
			"name":"Fence_Middle"
		}
	],
	"materials":[
		{
			"doubleSided":true,
			"name":"Wood",
			"pbrMetallicRoughness":{
				"baseColorFactor":[
					0.3757452964782715,
					0.20292167365550995,
					0.0587104856967926,
					1
				],
				"metallicFactor":0,
				"roughnessFactor":0.5
			}
		},
		{
			"doubleSided":true,
			"name":"Wood_Light",
			"pbrMetallicRoughness":{
				"baseColorFactor":[
					0.5382204055786133,
					0.314663827419281,
					0.08692671358585358,
					1
				],
				"metallicFactor":0,
				"roughnessFactor":0.5
			}
		}
	],
	"meshes":[
		{
			"name":"Fence_Middle",
			"primitives":[
				{
					"attributes":{
						"POSITION":0,
						"NORMAL":1
					},
					"indices":2,
					"material":0
				},
				{
					"attributes":{
						"POSITION":3,
						"NORMAL":4
					},
					"indices":5,
					"material":1
				}
			]
		}
	],
	"accessors":[
		{
			"bufferView":0,
			"componentType":5126,
			"count":416,
			"max":[
				1.748154640197754,
				1.2511268854141235,
				0.13217657804489136
			],
			"min":[
				-1.7481545209884644,
				0,
				-0.13217662274837494
			],
			"type":"VEC3"
		},
		{
			"bufferView":1,
			"componentType":5126,
			"count":416,
			"type":"VEC3"
		},
		{
			"bufferView":2,
			"componentType":5123,
			"count":1056,
			"type":"SCALAR"
		},
		{
			"bufferView":3,
			"componentType":5126,
			"count":108,
			"max":[
				2,
				0.7251081466674805,
				0.0622519887983799
			],
			"min":[
				-2,
				0.4187104403972626,
				-0.06225183978676796
			],
			"type":"VEC3"
		},
		{
			"bufferView":4,
			"componentType":5126,
			"count":108,
			"type":"VEC3"
		},
		{
			"bufferView":5,
			"componentType":5123,
			"count":252,
			"type":"SCALAR"
		}
	],
	"bufferViews":[
		{
			"buffer":0,
			"byteLength":4992,
			"byteOffset":0,
			"target":34962
		},
		{
			"buffer":0,
			"byteLength":4992,
			"byteOffset":4992,
			"target":34962
		},
		{
			"buffer":0,
			"byteLength":2112,
			"byteOffset":9984,
			"target":34963
		},
		{
			"buffer":0,
			"byteLength":1296,
			"byteOffset":12096,
			"target":34962
		},
		{
			"buffer":0,
			"byteLength":1296,
			"byteOffset":13392,
			"target":34962
		},
		{
			"buffer":0,
			"byteLength":504,
			"byteOffset":14688,
			"target":34963
		}
	],
	"buffers":[
		{
			"byteLength":15192,
			"uri":"data:application/octet-stream;base64,"
		}
	]
}
