{
	"asset":{
		"generator":"Khronos glTF Blender I/O v3.5.30",
		"version":"2.0"
	},
	"extensionsUsed":[
		"KHR_materials_specular"
	],
	"scene":0,
	"scenes":[
		{
			"name":"Scene",
			"nodes":[
				0
			]
		}
	],
	"nodes":[
		{
			"mesh":0,
			"name":"Fence_Middle_64"
		}
	],
	"materials":[
		{
			"doubleSided":true,
			"extensions":{
				"KHR_materials_specular":{
					"specularColorFactor":[
						0,
						0,
						0
					]
				}
			},
			"name":"Wood",
			"pbrMetallicRoughness":{
				"baseColorFactor":[
					0.3757452964782715,
					0.20292167365550995,
					0.0587104856967926,
					1
				],
				"metallicFactor":0,
				"roughnessFactor":0.9094488620758057
			}
		},
		{
			"doubleSided":true,
			"extensions":{
				"KHR_materials_specular":{
					"specularColorFactor":[
						0,
						0,
						0
					]
				}
			},
			"name":"Wood_Light",
			"pbrMetallicRoughness":{
				"baseColorFactor":[
					0.5382204055786133,
					0.314663827419281,
					0.08692671358585358,
					1
				],
				"metallicFactor":0,
				"roughnessFactor":0.7834645509719849
			}
		}
	],
	"meshes":[
		{
			"name":"Fence_Middle",
			"primitives":[
				{
					"attributes":{
						"POSITION":0,
						"NORMAL":1
					},
					"indices":2,
					"material":0
				},
				{
					"attributes":{
						"POSITION":3,
						"NORMAL":4
					},
					"indices":5,
					"material":1
				}
			]
		}
	],
	"accessors":[
		{
			"bufferView":0,
			"componentType":5126,
			"count":5376,
			"max":[
				31.748153686523438,
				1.2511268854141235,
				0.13217657804489136
			],
			"min":[
				-31.748153686523438,
				0,
				-0.13217662274837494
			],
			"type":"VEC3"
		},
		{
			"bufferView":1,
			"componentType":5126,
			"count":5376,
			"type":"VEC3"
		},
		{
			"bufferView":2,
			"componentType":5123,
			"count":13056,
			"type":"SCALAR"
		},
		{
			"bufferView":3,
			"componentType":5126,
			"count":600,
			"max":[
				32,
				0.7251081466674805,
				0.0622519887983799
			],
			"min":[
				-32,
				0.4187104403972626,
				-0.06225183978676796
			],
			"type":"VEC3"
		},
		{
			"bufferView":4,
			"componentType":5126,
			"count":600,
			"type":"VEC3"
		},
		{
			"bufferView":5,
			"componentType":5123,
			"count":1458,
			"type":"SCALAR"
		}
	],
	"bufferViews":[
		{
			"buffer":0,
			"byteLength":64512,
			"byteOffset":0,
			"target":34962
		},
		{
			"buffer":0,
			"byteLength":64512,
			"byteOffset":64512,
			"target":34962
		},
		{
			"buffer":0,
			"byteLength":26112,
			"byteOffset":129024,
			"target":34963
		},
		{
			"buffer":0,
			"byteLength":7200,
			"byteOffset":155136,
			"target":34962
		},
		{
			"buffer":0,
			"byteLength":7200,
			"byteOffset":162336,
			"target":34962
		},
		{
			"buffer":0,
			"byteLength":2916,
			"byteOffset":169536,
			"target":34963
		}
	],
	"buffers":[
		{
			"byteLength":172452,
			"uri":"data:application/octet-stream;base64,"
		}
	]
}
