{
	"asset":{
		"generator":"Khronos glTF Blender I/O v3.5.30",
		"version":"2.0"
	},
	"extensionsUsed":[
		"KHR_materials_specular",
		"KHR_materials_ior"
	],
	"scene":0,
	"scenes":[
		{
			"name":"Scene",
			"nodes":[
				0,
				1,
				2,
				3
			]
		}
	],
	"nodes":[
		{
			"mesh":0,
			"name":"Ramp01b_mainmodel_nohitbox"
		},
		{
			"mesh":1,
			"name":"Ramp01d_decoration_nohitbox"
		},
		{
			"mesh":2,
			"name":"Ramp01c_decoration_nohitbox",
			"rotation":[
				0,
				0.7071068286895752,
				0,
				0.7071068286895752
			],
			"translation":[
				0.550000011920929,
				0.5,
				-0.949999988079071
			]
		},
		{
			"mesh":3,
			"name":"Ramp01a_fullhitbox_invisible"
		}
	],
	"materials":[
		{
			"doubleSided":true,
			"extensions":{
				"KHR_materials_specular":{
					"specularColorFactor":[
						0,
						0,
						0
					]
				},
				"KHR_materials_ior":{
					"ior":1.4500000476837158
				}
			},
			"name":"Sides",
			"pbrMetallicRoughness":{
				"baseColorFactor":[
					0.5500003099441528,
					0.32480937242507935,
					0.15471962094306946,
					1
				],
				"metallicFactor":0,
				"roughnessFactor":0.8500000238418579
			}
		},
		{
			"doubleSided":true,
			"extensions":{
				"KHR_materials_specular":{
					"specularColorFactor":[
						0,
						0,
						0
					]
				},
				"KHR_materials_ior":{
					"ior":1.4500000476837158
				}
			},
			"name":"Top",
			"pbrMetallicRoughness":{
				"baseColorFactor":[
					0.32857152819633484,
					0.27798256278038025,
					0.1346515715122223,
					1
				],
				"metallicFactor":0,
				"roughnessFactor":0.8999999761581421
			}
		},
		{
			"alphaMode":"BLEND",
			"doubleSided":true,
			"name":"Invisible",
			"pbrMetallicRoughness":{
				"baseColorFactor":[
					0.800000011920929,
					0.800000011920929,
					0.800000011920929,
					0
				],
				"metallicFactor":0,
				"roughnessFactor":0.5
			}
		}
	],
	"meshes":[
		{
			"name":"RampMesh",
			"primitives":[
				{
					"attributes":{
						"POSITION":0,
						"TEXCOORD_0":1,
						"NORMAL":2
					},
					"indices":3,
					"material":0
				},
				{
					"attributes":{
						"POSITION":4,
						"TEXCOORD_0":5,
						"NORMAL":6
					},
					"indices":7,
					"material":1
				}
			]
		},
		{
			"name":"Cube",
			"primitives":[
				{
					"attributes":{
						"POSITION":8,
						"TEXCOORD_0":9,
						"NORMAL":10
					},
					"indices":11,
					"material":0
				}
			]
		},
		{
			"name":"Cube.002",
			"primitives":[
				{
					"attributes":{
						"POSITION":12,
						"TEXCOORD_0":13,
						"NORMAL":14
					},
					"indices":11,
					"material":0
				}
			]
		},
		{
			"name":"RampMesh.001",
			"primitives":[
				{
					"attributes":{
						"POSITION":15,
						"TEXCOORD_0":16,
						"NORMAL":17,
						"TANGENT":18
					},
					"indices":19,
					"material":2
				}
			]
		}
	],
	"accessors":[
		{
			"bufferView":0,
			"componentType":5126,
			"count":18,
			"max":[
				0.5,
				1,
				1
			],
			"min":[
				-0.5,
				0,
				-1
			],
			"type":"VEC3"
		},
		{
			"bufferView":1,
			"componentType":5126,
			"count":18,
			"type":"VEC2"
		},
		{
			"bufferView":2,
			"componentType":5126,
			"count":18,
			"type":"VEC3"
		},
		{
			"bufferView":3,
			"componentType":5123,
			"count":30,
			"type":"SCALAR"
		},
		{
			"bufferView":4,
			"componentType":5126,
			"count":12,
			"max":[
				0.5,
				1,
				1
			],
			"min":[
				-0.5,
				0,
				-1
			],
			"type":"VEC3"
		},
		{
			"bufferView":5,
			"componentType":5126,
			"count":12,
			"type":"VEC2"
		},
		{
			"bufferView":6,
			"componentType":5126,
			"count":12,
			"type":"VEC3"
		},
		{
			"bufferView":7,
			"componentType":5123,
			"count":18,
			"type":"SCALAR"
		},
		{
			"bufferView":8,
			"componentType":5126,
			"count":44,
			"max":[
				-0.5,
				1,
				-0.8984949588775635
			],
			"min":[
				-0.6015050411224365,
				-1.4901161193847656e-08,
				-1
			],
			"type":"VEC3"
		},
		{
			"bufferView":9,
			"componentType":5126,
			"count":44,
			"type":"VEC2"
		},
		{
			"bufferView":10,
			"componentType":5126,
			"count":44,
			"type":"VEC3"
		},
		{
			"bufferView":11,
			"componentType":5123,
			"count":72,
			"type":"SCALAR"
		},
		{
			"bufferView":12,
			"componentType":5126,
			"count":44,
			"max":[
				0.05000007152557373,
				0.5,
				0.05150502920150757
			],
			"min":[
				-0.05150496959686279,
				-0.5,
				-0.050000011920928955
			],
			"type":"VEC3"
		},
		{
			"bufferView":13,
			"componentType":5126,
			"count":44,
			"type":"VEC2"
		},
		{
			"bufferView":14,
			"componentType":5126,
			"count":44,
			"type":"VEC3"
		},
		{
			"bufferView":15,
			"componentType":5126,
			"count":61,
			"max":[
				0.5,
				1,
				1.100000023841858
			],
			"min":[
				-0.5,
				-0.4000000059604645,
				-1
			],
			"type":"VEC3"
		},
		{
			"bufferView":16,
			"componentType":5126,
			"count":61,
			"type":"VEC2"
		},
		{
			"bufferView":17,
			"componentType":5126,
			"count":61,
			"type":"VEC3"
		},
		{
			"bufferView":18,
			"componentType":5126,
			"count":61,
			"type":"VEC4"
		},
		{
			"bufferView":19,
			"componentType":5123,
			"count":78,
			"type":"SCALAR"
		}
	],
	"bufferViews":[
		{
			"buffer":0,
			"byteLength":216,
			"byteOffset":0,
			"target":34962
		},
		{
			"buffer":0,
			"byteLength":144,
			"byteOffset":216,
			"target":34962
		},
		{
			"buffer":0,
			"byteLength":216,
			"byteOffset":360,
			"target":34962
		},
		{
			"buffer":0,
			"byteLength":60,
			"byteOffset":576,
			"target":34963
		},
		{
			"buffer":0,
			"byteLength":144,
			"byteOffset":636,
			"target":34962
		},
		{
			"buffer":0,
			"byteLength":96,
			"byteOffset":780,
			"target":34962
		},
		{
			"buffer":0,
			"byteLength":144,
			"byteOffset":876,
			"target":34962
		},
		{
			"buffer":0,
			"byteLength":36,
			"byteOffset":1020,
			"target":34963
		},
		{
			"buffer":0,
			"byteLength":528,
			"byteOffset":1056,
			"target":34962
		},
		{
			"buffer":0,
			"byteLength":352,
			"byteOffset":1584,
			"target":34962
		},
		{
			"buffer":0,
			"byteLength":528,
			"byteOffset":1936,
			"target":34962
		},
		{
			"buffer":0,
			"byteLength":144,
			"byteOffset":2464,
			"target":34963
		},
		{
			"buffer":0,
			"byteLength":528,
			"byteOffset":2608,
			"target":34962
		},
		{
			"buffer":0,
			"byteLength":352,
			"byteOffset":3136,
			"target":34962
		},
		{
			"buffer":0,
			"byteLength":528,
			"byteOffset":3488,
			"target":34962
		},
		{
			"buffer":0,
			"byteLength":732,
			"byteOffset":4016,
			"target":34962
		},
		{
			"buffer":0,
			"byteLength":488,
			"byteOffset":4748,
			"target":34962
		},
		{
			"buffer":0,
			"byteLength":732,
			"byteOffset":5236,
			"target":34962
		},
		{
			"buffer":0,
			"byteLength":976,
			"byteOffset":5968,
			"target":34962
		},
		{
			"buffer":0,
			"byteLength":156,
			"byteOffset":6944,
			"target":34963
		}
	],
	"buffers":[
		{
			"byteLength":7100,
			"uri":"data:application/octet-stream;base64,"
		}
	]
}
